<svg width="27" height="27" viewBox="0 0 27 27" fill="none" xmlns="http://www.w3.org/2000/svg">
<path d="M22.455 10.0802C21.7013 9.24769 20.565 8.76394 18.99 8.59519V7.74019C18.99 6.19894 18.3375 4.71394 17.19 3.67894C16.0313 2.62144 14.5238 2.12644 12.96 2.27269C10.2713 2.53144 8.01 5.13019 8.01 7.94269V8.59519C6.435 8.76394 5.29875 9.24769 4.545 10.0802C3.45375 11.2952 3.4875 12.9152 3.61125 14.0402L4.39875 20.3064C4.635 22.5002 5.52375 24.7502 10.3613 24.7502L16.6388 24.7502C21.4763 24.7502 22.365 22.5002 22.6013 20.3177L23.3888 14.0289C23.5125 12.9152 23.535 11.2952 22.455 10.0802ZM13.1175 3.83644C14.2425 3.73519 15.3113 4.08394 16.1438 4.83769C16.965 5.58019 17.4263 6.63769 17.4263 7.74019V8.52769L9.57375 8.52769V7.94269C9.57375 5.94019 11.2275 4.01644 13.1175 3.83644ZM9.4725 14.7939H9.46125C8.8425 14.7939 8.33625 14.2877 8.33625 13.6689C8.33625 13.0502 8.8425 12.5439 9.46125 12.5439C10.0913 12.5439 10.5975 13.0502 10.5975 13.6689C10.5975 14.2877 10.0913 14.7939 9.4725 14.7939ZM17.3475 14.7939H17.3363C16.7175 14.7939 16.2113 14.2877 16.2113 13.6689C16.2113 13.0502 16.7175 12.5439 17.3363 12.5439C17.9663 12.5439 18.4725 13.0502 18.4725 13.6689C18.4725 14.2877 17.9663 14.7939 17.3475 14.7939Z" fill="#27C153"/>
</svg>
