<svg width="25" height="24" viewBox="0 0 25 24" fill="none" xmlns="http://www.w3.org/2000/svg">
<path d="M19.3961 0.871216C16.6373 0.871216 14.3922 3.11242 14.3922 5.86657C14.3922 8.62072 16.6373 10.8619 19.3961 10.8619C22.155 10.8619 24.4 8.62072 24.4 5.86657C24.4 3.11242 22.155 0.871216 19.3961 0.871216ZM21.5406 6.58019H20.111V8.00743H18.6813V6.58019H17.2516V5.15294H18.6813V3.7257H20.111V5.15294H21.5406V6.58019Z" fill="#F3EB39"/>
<path d="M6.52891 17.9981H19.949L21.5337 11.8968C21.037 12.0729 20.514 12.1823 19.9702 12.2312L19.9552 12.2892H16.5984L16.6517 11.6521C16.1577 11.4174 15.7065 11.1174 15.2913 10.7704L15.1645 12.2892H12.1902L11.9519 9.43468H14.0516C13.7575 8.99694 13.5379 8.51192 13.3577 8.00744H6.6257L5.67238 3.72571H0V5.15295H4.5261L7.06714 16.5709H6.52891C5.34636 16.5709 4.38438 17.5312 4.38438 18.7118C4.38438 19.8923 5.34636 20.8526 6.52891 20.8526H7.37542C7.29531 21.0769 7.24375 21.3149 7.24375 21.5662C7.24375 22.7468 8.20574 23.7071 9.38828 23.7071C10.5708 23.7071 11.5328 22.7468 11.5328 21.5662C11.5328 21.3149 11.4812 21.0769 11.4011 20.8526H14.5239C14.4438 21.0769 14.3922 21.3149 14.3922 21.5662C14.3922 22.7468 15.3542 23.7071 16.5367 23.7071C17.7193 23.7071 18.6812 22.7468 18.6812 21.5662C18.6812 21.3149 18.6297 21.0769 18.5496 20.8526H20.1109V19.4254H6.52891C6.1345 19.4254 5.81406 19.1055 5.81406 18.7118C5.81406 18.318 6.1345 17.9981 6.52891 17.9981ZM16.4793 13.7164H19.5845L18.8432 16.5709H16.241L16.4793 13.7164ZM15.0453 13.7164L14.807 16.5709H12.5476L12.3093 13.7164H15.0453ZM11.1137 16.5709H8.53223L7.89669 13.7164H10.8753L11.1137 16.5709ZM6.94342 9.43468H10.518L10.7563 12.2892H7.57901L6.94342 9.43468ZM10.1031 21.5662C10.1031 21.96 9.78268 22.2799 9.38828 22.2799C8.99388 22.2799 8.67344 21.96 8.67344 21.5662C8.67344 21.1725 8.99388 20.8526 9.38828 20.8526C9.78268 20.8526 10.1031 21.1725 10.1031 21.5662ZM17.2516 21.5662C17.2516 21.96 16.9311 22.2799 16.5367 22.2799C16.1423 22.2799 15.8219 21.96 15.8219 21.5662C15.8219 21.1725 16.1423 20.8526 16.5367 20.8526C16.9311 20.8526 17.2516 21.1725 17.2516 21.5662Z" fill="#F3EB39"/>
</svg>
