<svg width="210" height="132" viewBox="0 0 210 132" fill="none" xmlns="http://www.w3.org/2000/svg">
<path d="M204.015 115.767H4.69793C2.10328 115.767 0 113.733 0 111.223V96.0273H210V109.978C210 113.175 207.32 115.767 204.015 115.767Z" fill="#399AEA"/>
<path d="M204.015 115.767H149.043V35.6973H183.878C185.693 35.6973 187.432 36.4002 188.708 37.6485L208.041 56.5772C209.296 57.806 210 59.4637 210 61.1909V109.979C210 113.176 207.32 115.767 204.015 115.767Z" fill="#61AFF6"/>
<path d="M208.041 56.5772L188.707 37.6485C188.076 37.0303 187.324 36.5396 186.495 36.2046C185.666 35.8697 184.777 35.6972 183.878 35.6973H160.458C162.272 35.6973 164.012 36.4002 165.287 37.6485L184.62 56.5772C185.875 57.806 186.579 59.4637 186.579 61.1909V115.768H204.014C207.32 115.768 210 113.176 210 109.979V61.1901C210 59.4634 209.296 57.8057 208.041 56.5772Z" fill="#399AEA"/>
<path d="M160.686 75.3866V50.5081C160.686 49.7891 160.981 49.0994 161.507 48.591C162.033 48.0825 162.746 47.7969 163.489 47.7969H180.679C181.428 47.7969 182.146 48.0872 182.673 48.6029L197.549 63.1663C198.067 63.6737 198.358 64.3582 198.357 65.0715V75.3866C198.357 76.1056 198.062 76.7952 197.536 77.3037C197.011 77.8122 196.298 78.0978 195.554 78.0978H163.489C162.746 78.0978 162.033 77.8122 161.507 77.3037C160.981 76.7952 160.686 76.1056 160.686 75.3866Z" fill="#33D8DD"/>
<path d="M178.135 131.614C188.296 131.614 196.533 123.648 196.533 113.821C196.533 103.994 188.296 96.0273 178.135 96.0273C167.974 96.0273 159.737 103.994 159.737 113.821C159.737 123.648 167.974 131.614 178.135 131.614Z" fill="#3D6687"/>
<path d="M178.135 120.693C182.061 120.693 185.243 117.615 185.243 113.818C185.243 110.021 182.061 106.943 178.135 106.943C174.209 106.943 171.027 110.021 171.027 113.818C171.027 117.615 174.209 120.693 178.135 120.693Z" fill="#CCCBCA"/>
<path d="M0 104.461H149.043V3.24636C149.043 2.82004 148.956 2.3979 148.787 2.00403C148.619 1.61017 148.372 1.25229 148.06 0.950837C147.748 0.649385 147.378 0.410259 146.971 0.247115C146.564 0.0839698 146.127 0 145.686 0H3.35672C2.46646 0 1.61267 0.342027 0.98316 0.950837C0.353653 1.55965 0 2.38537 0 3.24636L0 104.461Z" fill="#FFC06C"/>
<path d="M145.687 0H125.623V104.461H149.043V3.24636C149.043 2.3854 148.69 1.55974 148.06 0.950953C147.431 0.342165 146.577 0.000105181 145.687 0Z" fill="#EDA558"/>
<path d="M36.7951 131.614C46.9563 131.614 55.1935 123.648 55.1935 113.821C55.1935 103.994 46.9563 96.0273 36.7951 96.0273C26.634 96.0273 18.3967 103.994 18.3967 113.821C18.3967 123.648 26.634 131.614 36.7951 131.614Z" fill="#3D6687"/>
<path d="M36.7949 120.693C40.7208 120.693 43.9034 117.615 43.9034 113.818C43.9034 110.021 40.7208 106.943 36.7949 106.943C32.8691 106.943 29.6865 110.021 29.6865 113.818C29.6865 117.615 32.8691 120.693 36.7949 120.693Z" fill="#CCCBCA"/>
<path d="M88.6898 37.3268H58.7705C58.1012 37.3268 57.4593 37.0696 56.986 36.6119C56.5127 36.1542 56.2468 35.5334 56.2468 34.8861V0H91.2135V34.8861C91.2135 36.2347 90.0835 37.3268 88.6898 37.3268Z" fill="#FF4C4C"/>
<path d="M99.2427 91.0005H132.384C134.129 91.0005 135.543 89.6328 135.543 87.945C135.543 86.2572 134.129 84.8894 132.384 84.8894H99.2427C98.4048 84.8894 97.6011 85.2113 97.0086 85.7844C96.4161 86.3574 96.0833 87.1346 96.0833 87.945C96.0833 88.7554 96.4161 89.5326 97.0086 90.1056C97.6011 90.6786 98.4048 91.0005 99.2427 91.0005ZM99.2427 73.3455H132.384C133.222 73.3455 134.025 73.0236 134.618 72.4506C135.21 71.8775 135.543 71.1003 135.543 70.2899C135.543 69.4796 135.21 68.7024 134.618 68.1293C134.025 67.5563 133.222 67.2344 132.384 67.2344H99.2427C97.4979 67.2344 96.0833 68.6021 96.0833 70.2899C96.0833 71.9778 97.4975 73.3455 99.2427 73.3455Z" fill="white"/>
</svg>
