<svg width="29" height="29" viewBox="0 0 29 29" fill="none" xmlns="http://www.w3.org/2000/svg">
<path d="M7.82413 25.9042C8.04484 25.9039 8.26068 25.9691 8.44433 26.0915C8.62799 26.2139 8.77121 26.388 8.85587 26.5919C8.94053 26.7957 8.96283 27.02 8.91995 27.2366C8.87707 27.4531 8.77093 27.652 8.61497 27.8081C8.459 27.9643 8.26022 28.0707 8.04377 28.1139C7.82732 28.157 7.60293 28.135 7.39899 28.0506C7.19505 27.9662 7.02073 27.8233 6.89808 27.6398C6.77543 27.4563 6.70996 27.2405 6.70996 27.0198C6.71035 26.7243 6.82781 26.441 7.03663 26.2319C7.24545 26.0228 7.52862 25.9049 7.82413 25.9042Z" stroke="#200E32" stroke-width="1.5" stroke-miterlimit="10" stroke-linecap="round" stroke-linejoin="round"/>
<path d="M24.2348 25.9042C24.4554 25.9042 24.6711 25.9696 24.8546 26.0922C25.038 26.2148 25.181 26.389 25.2655 26.5929C25.3499 26.7967 25.372 27.021 25.329 27.2374C25.2859 27.4539 25.1797 27.6526 25.0236 27.8087C24.8676 27.9647 24.6688 28.0709 24.4524 28.114C24.236 28.157 24.0117 28.1349 23.8078 28.0505C23.604 27.9661 23.4297 27.8231 23.3072 27.6396C23.1846 27.4561 23.1191 27.2404 23.1191 27.0198C23.1195 26.724 23.2372 26.4405 23.4463 26.2314C23.6555 26.0222 23.939 25.9046 24.2348 25.9042Z" stroke="#200E32" stroke-width="1.5" stroke-miterlimit="10" stroke-linecap="round" stroke-linejoin="round"/>
<path d="M1.01074 1.73962L4.04408 2.26462L5.44845 18.9961C5.5024 19.6545 5.8026 20.2683 6.28916 20.7151C6.77571 21.162 7.41285 21.4089 8.07345 21.4067H23.9824C24.6152 21.4078 25.227 21.1802 25.7054 20.7659C26.1837 20.3517 26.4962 19.7786 26.5855 19.1521L27.9695 9.58837C28.0096 9.31081 27.9896 9.02785 27.9108 8.7587C27.832 8.48955 27.6962 8.2405 27.5126 8.02846C27.3291 7.81641 27.1021 7.64632 26.847 7.52974C26.5919 7.41315 26.3147 7.35279 26.0343 7.35275H4.53116" stroke="#200E32" stroke-width="1.5" stroke-miterlimit="10" stroke-linecap="round" stroke-linejoin="round"/>
<path d="M17.5996 12.7428H21.6436" stroke="#200E32" stroke-width="1.5" stroke-miterlimit="10" stroke-linecap="round" stroke-linejoin="round"/>
</svg>
