<svg width="19" height="20" viewBox="0 0 19 20" fill="none" xmlns="http://www.w3.org/2000/svg">
<path d="M11.3855 6.59735C11.3855 8.0337 10.2168 9.20176 8.78111 9.20176C7.34544 9.20176 6.17669 8.0337 6.17669 6.59735C6.17669 6.41629 6.10477 6.24265 5.97674 6.11462C5.84872 5.9866 5.67507 5.91467 5.49402 5.91467C5.31296 5.91467 5.13932 5.9866 5.01129 6.11462C4.88326 6.24265 4.81134 6.41629 4.81134 6.59735C4.81242 7.64986 5.23101 8.65896 5.97526 9.4032C6.7195 10.1474 7.72859 10.566 8.78111 10.5671C9.83362 10.566 10.8427 10.1474 11.587 9.4032C12.3312 8.65896 12.7498 7.64986 12.7509 6.59735C12.7509 6.41629 12.6789 6.24265 12.5509 6.11462C12.4229 5.9866 12.2493 5.91467 12.0682 5.91467C11.8871 5.91467 11.7135 5.9866 11.5855 6.11462C11.4574 6.24265 11.3855 6.41629 11.3855 6.59735Z" fill="#F3EB39"/>
<path d="M14.02 3.28709H12.6881C12.3631 1.42338 10.737 0 8.78113 0C6.82526 0 5.19981 1.4227 4.87417 3.28709H3.54158C3.0653 3.28678 2.60456 3.45655 2.24234 3.76583C1.88013 4.0751 1.64025 4.50354 1.56592 4.97399L0.0401326 14.6257C-0.0342629 15.0998 -0.00498392 15.5845 0.125952 16.0462C0.256889 16.508 0.48637 16.9359 0.798587 17.3004C1.10886 17.6633 1.49411 17.9547 1.92781 18.1545C2.3615 18.3543 2.83335 18.4576 3.31084 18.4575H11.3186C11.4997 18.4575 11.6733 18.3856 11.8014 18.2576C11.9294 18.1296 12.0013 17.9559 12.0013 17.7749C12.0013 17.5938 11.9294 17.4202 11.8014 17.2921C11.6733 17.1641 11.4997 17.0922 11.3186 17.0922H3.31084C2.74353 17.0922 2.2049 16.8444 1.83557 16.4129C1.65179 16.1982 1.51667 15.9463 1.43948 15.6744C1.36229 15.4026 1.34487 15.1172 1.38842 14.838L2.91352 5.19176C2.96472 4.88455 3.23438 4.65244 3.54158 4.65244H14.0207C14.3279 4.65244 14.5975 4.88455 14.6474 5.18698L15.739 12.1093C15.7672 12.2883 15.8654 12.4487 16.0119 12.5553C16.1585 12.6619 16.3413 12.7059 16.5203 12.6777C16.6993 12.6494 16.8597 12.5512 16.9663 12.4047C17.0729 12.2582 17.1169 12.0753 17.0886 11.8963L15.995 4.96989C15.9197 4.50026 15.6795 4.07286 15.3173 3.76453C14.9552 3.45619 14.4949 3.28715 14.0193 3.28777L14.02 3.28709ZM8.78181 1.36535C9.97991 1.36535 10.9814 2.1832 11.2838 3.28709H6.2798C6.58154 2.1832 7.58303 1.36535 8.78113 1.36535H8.78181Z" fill="#F3EB39"/>
<path d="M15.5642 19.1149C15.7453 19.1149 15.9189 19.043 16.047 18.915C16.175 18.7869 16.2469 18.6133 16.2469 18.4322V17.1427H17.5365C17.7175 17.1427 17.8912 17.0707 18.0192 16.9427C18.1472 16.8147 18.2192 16.641 18.2192 16.46C18.2192 16.2789 18.1472 16.1053 18.0192 15.9773C17.8912 15.8492 17.7175 15.7773 17.5365 15.7773H16.2469V14.4877C16.2469 14.3067 16.175 14.133 16.047 14.005C15.9189 13.877 15.7453 13.8051 15.5642 13.8051C15.3832 13.8051 15.2095 13.877 15.0815 14.005C14.9535 14.133 14.8816 14.3067 14.8816 14.4877V15.778H13.592C13.4109 15.778 13.2373 15.8499 13.1093 15.9779C12.9812 16.106 12.9093 16.2796 12.9093 16.4607C12.9093 16.6417 12.9812 16.8154 13.1093 16.9434C13.2373 17.0714 13.4109 17.1433 13.592 17.1433H14.8822V18.4322C14.8822 18.6133 14.9542 18.7869 15.0822 18.915C15.2102 19.043 15.3832 19.1149 15.5642 19.1149Z" fill="#F3EB39"/>
</svg>
