<svg width="30" height="50" viewBox="0 0 30 50" fill="none" xmlns="http://www.w3.org/2000/svg">
<path d="M25.1431 50H4.82725C2.1619 50 0 47.8325 0 45.1963V4.77446C0 2.13825 2.1619 0 4.82725 0H25.1431C27.8381 0 30 2.13825 30 4.77446V45.1963C30 47.8325 27.8381 50 25.1431 50Z" fill="#3E495A"/>
<path d="M28.8154 7.49805H1.18457V42.501H28.8154V7.49805Z" fill="#B7D7FE"/>
<path d="M7.43335 0H22.5666L20.8193 4.21793C20.7305 4.42296 20.5232 4.56942 20.2566 4.56942H9.71371C9.47679 4.56942 9.26948 4.42296 9.18064 4.21793L7.43335 0ZM19.694 46.8366H10.306C9.53602 46.8366 9.53602 45.6649 10.306 45.6649H19.694C20.464 45.6649 20.464 46.8366 19.694 46.8366Z" fill="#738191"/>
<path d="M1.18457 42.501L28.8154 7.49805H1.18457V42.501Z" fill="#A8CFFF"/>
</svg>
