<svg width="50" height="52" viewBox="0 0 50 52" fill="none" xmlns="http://www.w3.org/2000/svg">
<path d="M45.6055 12.2891C44.7958 12.2891 44.1406 11.6077 44.1406 10.7656V4.67188C44.1406 3.82982 44.7958 3.14844 45.6055 3.14844C46.4151 3.14844 47.0703 3.82982 47.0703 4.67188V10.7656C47.0703 11.6077 46.4151 12.2891 45.6055 12.2891Z" fill="#CFD7E6"/>
<path d="M48.5352 48.9531C46.1119 48.9531 44.1406 46.8014 44.1406 44.2812V22.9531C44.1406 22.1111 43.4854 21.4297 42.6758 21.4297C41.8661 21.4297 41.2109 22.1111 41.2109 22.9531V44.2812C41.2109 45.9806 41.7676 47.6374 42.6758 48.9061C44.0119 50.7726 46.1309 52 48.5352 52C49.3448 52 50 51.3186 50 50.4766C50 49.6345 49.3448 48.9531 48.5352 48.9531Z" fill="#4D5E80"/>
<path d="M48.5352 52C49.3448 52 50 51.3186 50 50.4766C50 49.6345 49.3448 48.9531 48.5352 48.9531C46.1119 48.9531 44.1406 46.8014 44.1406 44.2812V22.9531C44.1406 22.1111 43.4854 21.4297 42.6758 21.4297V48.9061C44.0119 50.7726 46.1309 52 48.5352 52Z" fill="#3D4566"/>
<path d="M27.9297 0H4.49219C2.06045 0 0 2.14287 0 4.67188V47.4297C0 49.9585 2.06045 52 4.49219 52H27.9297C30.3614 52 32.4219 49.9585 32.4219 47.4297V4.67188C32.4219 2.14287 30.3614 0 27.9297 0Z" fill="#4D5E80"/>
<path d="M32.4219 4.67188V47.4297C32.4219 49.9585 30.3614 52 27.9297 52H16.2109V0H27.9297C30.3614 0 32.4219 2.14287 32.4219 4.67188Z" fill="#3D4566"/>
<path d="M19.1406 27.5234H13.2812C9.23828 27.5234 5.95703 30.9359 5.95703 35.1406C5.95703 39.3453 9.23828 42.7578 13.2812 42.7578H19.1406C23.1836 42.7578 26.4648 39.3453 26.4648 35.1406C26.4648 30.9359 23.1836 27.5234 19.1406 27.5234ZM19.1406 9.24219H13.2812C9.23828 9.24219 5.95703 12.6547 5.95703 16.8594C5.95703 21.0641 9.23828 24.4766 13.2812 24.4766H19.1406C23.1836 24.4766 26.4648 21.0641 26.4648 16.8594C26.4648 12.6547 23.1836 9.24219 19.1406 9.24219Z" fill="#E1E6F0"/>
<path d="M26.4648 35.1406C26.4648 39.3453 23.1836 42.7578 19.1406 42.7578H16.2109V27.5234H19.1406C23.1836 27.5234 26.4648 30.9359 26.4648 35.1406ZM19.1406 24.4766H16.2109V9.24219H19.1406C23.1836 9.24219 26.4648 12.6547 26.4648 16.8594C26.4648 21.0641 23.1836 24.4766 19.1406 24.4766Z" fill="#CFD7E6"/>
<path d="M39.7461 12.2891C38.9364 12.2891 38.2812 11.6077 38.2812 10.7656V4.67188C38.2812 3.82982 38.9364 3.14844 39.7461 3.14844C40.5558 3.14844 41.2109 3.82982 41.2109 4.67188V10.7656C41.2109 11.6077 40.5558 12.2891 39.7461 12.2891Z" fill="#E1E6F0"/>
<path d="M19.1406 36.6641C19.9496 36.6641 20.6055 35.982 20.6055 35.1406C20.6055 34.2993 19.9496 33.6172 19.1406 33.6172C18.3316 33.6172 17.6758 34.2993 17.6758 35.1406C17.6758 35.982 18.3316 36.6641 19.1406 36.6641Z" fill="#2E2E4D"/>
<path d="M13.2812 36.6641C14.0903 36.6641 14.7461 35.982 14.7461 35.1406C14.7461 34.2993 14.0903 33.6172 13.2812 33.6172C12.4722 33.6172 11.8164 34.2993 11.8164 35.1406C11.8164 35.982 12.4722 36.6641 13.2812 36.6641Z" fill="#3D4566"/>
<path d="M25 45.8047C25.809 45.8047 26.4648 45.1226 26.4648 44.2812C26.4648 43.4399 25.809 42.7578 25 42.7578C24.191 42.7578 23.5352 43.4399 23.5352 44.2812C23.5352 45.1226 24.191 45.8047 25 45.8047Z" fill="#2E2E4D"/>
<path d="M7.42188 45.8047C8.23089 45.8047 8.88672 45.1226 8.88672 44.2812C8.88672 43.4399 8.23089 42.7578 7.42188 42.7578C6.61286 42.7578 5.95703 43.4399 5.95703 44.2812C5.95703 45.1226 6.61286 45.8047 7.42188 45.8047Z" fill="#3D4566"/>
<path d="M25 9.24219C25.809 9.24219 26.4648 8.56012 26.4648 7.71875C26.4648 6.87738 25.809 6.19531 25 6.19531C24.191 6.19531 23.5352 6.87738 23.5352 7.71875C23.5352 8.56012 24.191 9.24219 25 9.24219Z" fill="#2E2E4D"/>
<path d="M7.42188 9.24219C8.23089 9.24219 8.88672 8.56012 8.88672 7.71875C8.88672 6.87738 8.23089 6.19531 7.42188 6.19531C6.61286 6.19531 5.95703 6.87738 5.95703 7.71875C5.95703 8.56012 6.61286 9.24219 7.42188 9.24219Z" fill="#3D4566"/>
<path d="M19.1406 18.3828C19.9496 18.3828 20.6055 17.7007 20.6055 16.8594C20.6055 16.018 19.9496 15.3359 19.1406 15.3359C18.3316 15.3359 17.6758 16.018 17.6758 16.8594C17.6758 17.7007 18.3316 18.3828 19.1406 18.3828Z" fill="#2E2E4D"/>
<path d="M13.2812 18.3828C14.0903 18.3828 14.7461 17.7007 14.7461 16.8594C14.7461 16.018 14.0903 15.3359 13.2812 15.3359C12.4722 15.3359 11.8164 16.018 11.8164 16.8594C11.8164 17.7007 12.4722 18.3828 13.2812 18.3828Z" fill="#3D4566"/>
<path d="M48.5352 9.24219H36.8164C35.996 9.24219 35.3516 9.9124 35.3516 10.7656V19.9062C35.3516 22.4351 37.3144 24.4766 39.7461 24.4766H45.6055C48.0372 24.4766 50 22.4351 50 19.9062V10.7656C50 9.9124 49.3556 9.24219 48.5352 9.24219Z" fill="#FFC44D"/>
<path d="M50 10.7656V19.9062C50 22.4351 48.0372 24.4766 45.6055 24.4766H42.6758V9.24219H48.5352C49.3556 9.24219 50 9.9124 50 10.7656Z" fill="#FF9040"/>
</svg>
