<svg width="46" height="52" viewBox="0 0 46 52" fill="none" xmlns="http://www.w3.org/2000/svg">
<path d="M31.7044 2.21443C29.1182 -0.779649 24.4791 -0.69063 21.7772 2.19706C16.7249 7.59683 17.0991 19.0933 17.1034 19.229L19.0612 19.1726C19.0752 19.1878 19.0882 19.2041 19.1023 19.2193C19.1023 19.2193 19.0612 9.31642 22.7301 4.30421C24.6446 1.68792 28.6618 1.07455 30.599 4.1088C33.9488 9.35984 34.1564 19.2193 34.1564 19.2193C34.1705 19.2041 34.1835 19.1878 34.1975 19.1726L36.1326 19.2008C36.1326 19.2008 36.1423 7.35257 31.7044 2.21443Z" fill="#6D7486"/>
<path d="M43.6922 23.4626C43.6058 23.0987 43.4214 22.7656 43.1591 22.4999C42.8968 22.2341 42.5667 22.0459 42.205 21.9557C40.423 21.5192 38.6196 21.1757 36.8022 20.9266L33.447 20.5445C27.7338 20.298 23.7047 20.2807 19.8271 20.6226L16.4535 20.9689C13.9149 21.3044 11.6337 21.7321 10.4515 21.9807C10.073 22.0607 9.72491 22.247 9.44797 22.5181C9.17103 22.7891 8.97662 23.1336 8.88744 23.5114C8.76413 24.0303 8.61379 24.7164 8.44938 25.5838C8.21683 26.8192 7.95507 28.4205 7.70413 30.4267C7.27581 33.83 6.87452 38.3993 6.68091 44.3191H45.9106C45.5202 32.3807 44.2839 25.9355 43.6922 23.4626Z" fill="#956D61"/>
<path d="M45.9106 44.3193H6.6809C6.65386 45.1542 6.63114 46.0158 6.61275 46.9041C6.60518 47.2613 6.59761 47.6239 6.5922 47.9897C6.58614 48.3216 6.62249 48.6529 6.70037 48.9755C6.90524 49.8365 7.39306 50.6031 8.08516 51.1518C8.77726 51.7005 9.63331 51.9993 10.5153 51.9999H42.0762C42.5974 51.9992 43.1131 51.8945 43.5935 51.6918C44.0739 51.4891 44.5093 51.1925 44.8744 50.8193C45.2395 50.4461 45.527 50.0037 45.7201 49.518C45.9132 49.0322 46.0082 48.5127 45.9993 47.9897C45.9788 46.712 45.9492 45.4885 45.9106 44.3193Z" fill="#7C555F"/>
<path d="M6.70056 48.9757H6.69948C3.68497 48.7119 2.2821 47.0868 1.83105 44.8711C2.83996 45.9659 4.19352 46.6789 5.66436 46.8903C6.0505 46.9457 6.36418 46.963 6.61187 46.9044H6.61295C6.60538 47.2616 6.59781 47.6242 6.5924 47.99C6.58634 48.3219 6.62269 48.6532 6.70056 48.9757Z" fill="#A1A6B5"/>
<path d="M6.21049 26.3105C3.34092 28.0236 -0.287957 34.8347 0.0181451 40.5601C0.100636 42.1659 0.74222 43.6916 1.83096 44.871C0.648737 39.075 5.9801 29.2449 5.9801 29.2449L6.21049 26.3105Z" fill="#6D7486"/>
<path d="M36.8022 20.9273C36.893 22.2279 36.376 23.4068 36.376 23.4068H33.8428C33.8428 23.4068 33.1344 22.0129 33.447 20.5452C33.5579 20.0143 33.8022 19.5207 34.1565 19.1111C34.1706 19.0959 34.1835 19.0796 34.1976 19.0644C34.3196 18.9267 34.4698 18.8169 34.6378 18.7426C34.8059 18.6683 34.9879 18.6312 35.1716 18.6339C35.3552 18.6366 35.5361 18.679 35.7019 18.7581C35.8678 18.8373 36.0147 18.9514 36.1327 19.0927C36.1435 19.1057 36.1543 19.1187 36.164 19.1317C36.5492 19.6537 36.7713 20.2786 36.8022 20.9273ZM6.21037 26.3108C6.48586 26.0013 6.83841 25.771 7.23186 25.6433C7.62531 25.5157 8.0455 25.4954 8.44935 25.5845C8.21679 26.82 7.95504 28.4212 7.7041 30.4274H7.70302C6.99592 30.2766 6.37671 29.8517 5.97998 29.2452C5.80858 28.9917 5.68889 28.7066 5.62781 28.4065C5.56674 28.1063 5.56548 27.7969 5.62412 27.4963C5.71167 27.0561 5.91396 26.647 6.21037 26.3108Z" fill="#D8A43D"/>
<path d="M10.949 30.4131C11.2 28.4069 11.4617 26.8125 11.6943 25.577C11.8587 24.7096 12.009 24.027 12.1323 23.508C12.2216 23.1305 12.416 22.7862 12.693 22.5154C12.9699 22.2447 13.318 22.0586 13.6964 21.979C14.8786 21.7304 17.1598 21.3035 19.6984 20.9681L23.072 20.6222C24.6453 20.4835 26.2436 20.4041 27.9693 20.375C24.9143 20.3304 22.3386 20.4011 19.8271 20.6225L16.4535 20.9688C13.9149 21.3043 11.6337 21.7321 10.4515 21.9807C10.073 22.0607 9.72491 22.2471 9.44797 22.5181C9.17103 22.7891 8.97662 23.1336 8.88744 23.5114C8.76413 24.0303 8.61379 24.7164 8.44938 25.5838C8.21683 26.8192 7.95507 28.4069 7.70413 30.4131C7.27581 33.8165 6.87452 38.4297 6.68091 44.2919H9.92581C10.1194 38.4297 10.5207 33.8165 10.949 30.4131Z" fill="#5E433D"/>
<path d="M9.94518 48.9753C9.8673 48.6527 9.83095 48.3214 9.83701 47.9895C9.84242 47.6237 9.84999 47.2475 9.85756 46.8904C9.87487 46.0013 9.89867 45.1605 9.92571 44.292H6.68081C6.65377 45.1605 6.62997 46.0013 6.61267 46.8904C6.6051 47.2475 6.59752 47.6169 6.59212 47.9828C6.5833 48.5061 6.67817 49.0259 6.87122 49.512C7.06427 49.9982 7.35165 50.4409 7.71665 50.8147C8.08166 51.1884 8.51702 51.4856 8.99745 51.689C9.47787 51.8924 9.99378 51.9979 10.5152 51.9995H13.7601C12.8782 51.9989 12.0221 51.7001 11.33 51.1515C10.6379 50.6028 10.1501 49.8362 9.94518 48.9753Z" fill="#54363F"/>
<path d="M16.4535 20.9694C16.4785 20.306 16.702 19.6655 17.0949 19.1315C17.0975 19.1279 17.1004 19.1247 17.1036 19.1217V19.1206C17.2194 18.9737 17.3659 18.854 17.5327 18.77C17.6996 18.686 17.8827 18.6397 18.0693 18.6343C18.2559 18.6289 18.4414 18.6646 18.6128 18.7389C18.7842 18.8131 18.9373 18.9242 19.0613 19.0642C19.0754 19.0794 19.0884 19.0956 19.1024 19.1108C19.4741 19.541 19.7243 20.0631 19.8271 20.6231C20.0997 22.0615 19.4161 23.4065 19.4161 23.4065H16.8829C16.57 22.6337 16.4237 21.8031 16.4535 20.9694Z" fill="#D8A43D"/>
<path d="M29.5925 27.2705H24.8174C24.6453 27.2705 24.4802 27.2019 24.3585 27.0797C24.2368 26.9576 24.1685 26.7919 24.1685 26.6191C24.1685 26.4464 24.2368 26.2807 24.3585 26.1586C24.4802 26.0364 24.6453 25.9678 24.8174 25.9678H29.5925C29.7646 25.9678 29.9297 26.0364 30.0514 26.1586C30.1731 26.2807 30.2415 26.4464 30.2415 26.6191C30.2415 26.7919 30.1731 26.9576 30.0514 27.0797C29.9297 27.2019 29.7646 27.2705 29.5925 27.2705Z" fill="#493431"/>
</svg>
