<svg width="46" height="52" viewBox="0 0 46 52" fill="none" xmlns="http://www.w3.org/2000/svg">
<path d="M29.7753 49.5284C26.8669 51.8008 23.3969 52.3111 20.1065 51.8397C16.2417 51.2867 12.5065 49.5101 8.72152 48.2089C5.86424 47.2266 2.90323 46.5144 0 46.81C1.2324 35.9991 4.49932 24.6563 6.58091 21.1385C5.81677 17.5092 4.59632 12.5755 4.353 10.2967C4.10734 8.00516 4.27642 2.23956 4.33503 0.502633C4.33964 0.367761 4.39675 0.239945 4.49431 0.146164C4.59186 0.0523836 4.72224 -2.509e-05 4.85791 8.66624e-08H6.70936C6.84812 8.08095e-05 6.98117 0.0549458 7.07929 0.152542C7.1774 0.250139 7.23256 0.382486 7.23264 0.520508V2.51845C7.23264 4.56798 8.06745 6.42383 9.41747 7.76679C10.7732 9.11554 12.649 9.94713 14.7197 9.94003C18.8489 9.92611 22.1554 6.51503 22.1554 2.40815V0.520508C22.1554 0.382486 22.2106 0.250139 22.3087 0.152542C22.4068 0.0549458 22.5399 8.08095e-05 22.6786 8.66624e-08H24.5298C24.6655 -7.77788e-05 24.796 0.0523182 24.8936 0.146123C24.9912 0.239929 25.0484 0.3678 25.053 0.502735C25.1116 2.23945 25.2803 8.00516 25.035 10.2967C24.7945 12.5442 23.6051 17.3466 22.8386 20.9889C25.086 24.6472 28.824 37.8237 29.7753 49.5284Z" fill="#FFE1D7"/>
<path d="M22.8384 20.9889C23.6054 17.3462 24.7947 12.5442 25.0352 10.2967C25.2806 8.00475 25.1114 2.23956 25.0528 0.502633C25.0483 0.367736 24.9912 0.239861 24.8937 0.146057C24.7961 0.0522523 24.6657 -0.000126118 24.53 2.28045e-07H22.6788C22.5401 2.28045e-07 22.407 0.0548393 22.3088 0.152453C22.2107 0.250068 22.1556 0.382461 22.1556 0.520508V2.40815C22.1556 2.48513 22.152 2.56171 22.1496 2.63829C22.2014 5.09519 22.2382 8.62215 22.0802 10.2967C21.868 12.5442 20.819 17.3462 20.1426 20.9889C22.1252 24.6472 25.4221 37.8237 26.2609 49.5284C24.6149 50.9868 22.765 51.7184 20.8841 51.9314C23.938 52.2194 27.0948 51.6227 29.7751 49.5284C28.8243 37.8241 25.0863 24.6472 22.8384 20.9889Z" fill="#FFD2C0"/>
<path d="M6.54895 20.9893C6.55978 21.0392 6.5706 21.0896 6.58091 21.1389C4.49932 24.6567 1.2324 35.9995 0 46.8103C2.90323 46.5148 5.86384 47.2269 8.72112 48.2092C12.5061 49.5109 16.2417 51.2871 20.1065 51.8401C23.3969 52.3113 26.8665 51.8012 29.7749 49.5287C28.8241 37.8241 25.086 24.6475 22.8382 20.9893H6.54895Z" fill="#8CBAFA"/>
<path d="M22.8381 20.9893H20.1427C22.1249 24.6475 25.4217 37.8241 26.2605 49.5287C24.6146 50.9872 22.7651 51.7187 20.8837 51.9317C24.1128 52.236 27.2138 51.5298 29.7752 49.5287C29.135 41.656 25.9471 26.0491 22.8381 20.9893ZM17.2251 21.1642C17.5302 22.4473 17.9072 24.9189 18.2865 28.1236C18.2983 28.223 18.3295 28.319 18.3786 28.4063C18.4277 28.4936 18.4936 28.5704 18.5725 28.6324C18.6514 28.6944 18.7418 28.7402 18.8386 28.7674C18.9354 28.7946 19.0366 28.8026 19.1364 28.7909C19.3381 28.7673 19.5222 28.665 19.648 28.5064C19.7739 28.3479 19.8313 28.1461 19.8077 27.9455C19.4375 24.8217 19.0662 22.3666 18.756 20.9893H17.2052C17.2052 21.0471 17.2111 21.1055 17.2251 21.1642ZM10.5317 28.791C10.5624 28.7945 10.5924 28.7965 10.6223 28.7965C11.0052 28.7961 11.3362 28.5113 11.3821 28.1236C11.7471 25.0383 12.1136 22.6174 12.4135 21.3078C12.4306 21.2321 12.4362 21.1542 12.4298 21.0769L12.4231 20.9893H10.8899C10.8899 21.0088 10.8899 21.0279 10.8915 21.0476L10.8943 21.0837C10.5876 22.4667 10.2218 24.8938 9.86098 27.9455C9.8492 28.0448 9.85721 28.1455 9.88455 28.2417C9.91189 28.338 9.95802 28.4279 10.0203 28.5065C10.0826 28.585 10.1598 28.6505 10.2476 28.6993C10.3354 28.7482 10.4318 28.7793 10.5317 28.791Z" fill="#5692D8"/>
<path d="M42.0047 25.0908C39.1534 25.0908 37.5242 27.0468 35.8211 30.7629C34.1731 34.3585 31.5176 38.9419 28.7727 38.9419C27.2021 38.9419 26.3465 37.6247 25.8648 36.5552C25.7454 36.2905 25.4571 36.1434 25.1727 36.2052C18.2348 37.7195 17.4484 42.5474 17.3969 44.2973C17.3938 44.3806 17.4077 44.4637 17.4377 44.5415C17.4677 44.6194 17.5132 44.6904 17.5714 44.7503C17.6297 44.8102 17.6995 44.8578 17.7767 44.8902C17.854 44.9226 17.937 44.9392 18.0208 44.9389H30.6556C31.013 44.9389 31.3333 44.7131 31.4458 44.3755C33.0032 39.6881 37.9761 34.8794 40.0054 34.8794C40.5239 35.4229 40.5239 37.7613 40.5239 38.9768V44.3112C40.5239 44.3937 40.5402 44.4753 40.5719 44.5514C40.6036 44.6276 40.65 44.6968 40.7086 44.7551C40.7672 44.8134 40.8368 44.8596 40.9134 44.8912C40.9899 44.9227 41.072 44.9389 41.1549 44.9389H42.461C42.5439 44.9389 42.626 44.9227 42.7026 44.8912C42.7792 44.8596 42.8488 44.8134 42.9074 44.7551C42.966 44.6968 43.0125 44.6276 43.0443 44.5515C43.076 44.4753 43.0924 44.3937 43.0924 44.3112V38.9768C43.0924 36.2512 45.2633 34.5568 45.2633 31.6842C45.2633 27.6693 43.7083 25.0909 42.0048 25.0909L42.0047 25.0908Z" fill="#ED5176"/>
<path d="M42.7411 25.0908C42.3685 25.0908 42.0176 25.125 41.6841 25.1914C43.147 25.6987 44.3684 28.1266 44.3684 31.6838C44.3684 34.5569 42.197 36.2509 42.197 38.9764V44.3108C42.1969 44.4491 42.1509 44.5835 42.0662 44.6931C41.9814 44.8027 41.8626 44.8815 41.7283 44.917C41.7806 44.9305 41.8349 44.9384 41.891 44.9384H43.1973C43.3647 44.9384 43.5252 44.8723 43.6436 44.7547C43.762 44.637 43.8286 44.4773 43.8287 44.3108V38.9764C43.8287 36.2509 45.9996 34.5569 45.9996 31.6838C45.9996 27.6692 44.4446 25.0908 42.7411 25.0908Z" fill="#BA365F"/>
<path d="M29.7787 6.64345L27.4292 12.1449C27.3788 12.2626 27.3631 12.3922 27.3839 12.5185C27.4048 12.6448 27.4613 12.7626 27.5468 12.8582L36.1806 22.4983C36.4506 22.7994 36.9245 22.7994 37.1945 22.4983L45.8283 12.8582C45.9138 12.7626 45.9703 12.6448 45.9911 12.5185C46.012 12.3922 45.9963 12.2626 45.9459 12.1449L43.5967 6.64345C43.5445 6.52153 43.4575 6.41756 43.3464 6.34447C43.2353 6.27139 43.105 6.23242 42.9718 6.23242H30.4033C30.2701 6.23237 30.1398 6.27132 30.0288 6.34441C29.9177 6.4175 29.8307 6.5215 29.7786 6.64345H29.7787Z" fill="#C8E7F7"/>
<path d="M45.9528 12.1621H39.8337C39.8337 12.157 39.8337 12.1506 39.8321 12.1455L39.0348 6.6432C38.9989 6.39529 38.9144 6.2334 38.8223 6.2334H42.9711C43.1042 6.23349 43.2345 6.27234 43.3457 6.34516C43.457 6.41798 43.5444 6.52158 43.5972 6.6432L45.946 12.1455C45.9488 12.1505 45.9512 12.1569 45.9528 12.1621Z" fill="#ADD9EA"/>
<path d="M34.5524 6.2334C34.4603 6.2334 34.3758 6.39529 34.3398 6.6432L33.5426 12.1455C33.5414 12.1505 33.5414 12.1569 33.5414 12.1621H27.4219C27.4236 12.1564 27.4259 12.1508 27.4287 12.1455L29.7774 6.6432C29.8302 6.52158 29.9176 6.41798 30.0288 6.34516C30.1401 6.27234 30.2703 6.23349 30.4035 6.2334H34.5524Z" fill="#DEF6FF"/>
<path d="M45.8283 12.8588L37.1949 22.4992C37.1311 22.5702 37.053 22.6269 36.9656 22.6658C36.8783 22.7046 36.7837 22.7247 36.688 22.7246C36.7507 22.7246 36.8136 22.6493 36.8595 22.4992L39.7923 12.8587C39.8513 12.6676 39.8664 12.399 39.8333 12.1621H45.9524C45.9983 12.2783 46.0109 12.4049 45.9891 12.5279C45.9672 12.6508 45.9115 12.7653 45.8283 12.8588Z" fill="#90C7D3"/>
<path d="M39.7921 12.8589L36.8594 22.4992C36.8131 22.6493 36.7505 22.7246 36.6878 22.7246C36.6236 22.7246 36.561 22.6493 36.5148 22.4992L33.582 12.8587C33.5247 12.6676 33.5079 12.399 33.541 12.1621H39.8327C39.8662 12.399 39.8511 12.6677 39.7921 12.8589Z" fill="#ADD9EA"/>
</svg>
