<svg width="30" height="52" viewBox="0 0 30 52" fill="none" xmlns="http://www.w3.org/2000/svg">
<path d="M20.625 14.7333L24.375 3.46667L20.625 0H9.375L5.625 3.46667L9.375 14.7333" fill="#4C506E"/>
<path d="M19.6877 3.46667L17.8127 0H12.1877L10.3127 3.46667" fill="#C8CDED"/>
<path d="M19.6875 3.4668L16.875 14.7335H20.625L24.375 3.4668M10.3125 3.4668L13.125 14.7335H9.375L5.625 3.4668" fill="#787FAA"/>
<path d="M7.5 19.0667V14.7334H22.5V19.0667M28.125 52.0001H1.875C1.37772 52.0001 0.900806 51.8175 0.549175 51.4924C0.197544 51.1673 0 50.7264 0 50.2667V20.8001C0 20.3404 0.197544 19.8995 0.549175 19.5744C0.900806 19.2494 1.37772 19.0667 1.875 19.0667H28.125C28.6223 19.0667 29.0992 19.2494 29.4508 19.5744C29.8025 19.8995 30 20.3404 30 20.8001V50.2667C30 50.7264 29.8025 51.1673 29.4508 51.4924C29.0992 51.8175 28.6223 52.0001 28.125 52.0001Z" fill="#363A4F"/>
<path d="M0 20.7997V49.3997H26.25C26.7473 49.3997 27.2242 49.2171 27.5758 48.8921C27.9275 48.567 28.125 48.1261 28.125 47.6664V19.0664H1.875C1.37772 19.0664 0.900806 19.249 0.549175 19.5741C0.197544 19.8992 0 20.34 0 20.7997Z" fill="#4C506E"/>
<path d="M28.125 19.0664C26.8772 25.4087 26.25 31.8428 26.25 38.2891V45.0664C26.25 45.5261 26.0525 45.967 25.7008 46.2921C25.3492 46.6171 24.8723 46.7997 24.375 46.7997H5.625C5.12772 46.7997 4.65081 46.6171 4.29918 46.2921C3.94754 45.967 3.75 45.5261 3.75 45.0664V38.2891C3.75 31.8428 3.12281 25.4087 1.875 19.0664" fill="#E2E7F6"/>
<path d="M1.875 19.0664C3.12281 25.4087 3.75 31.8428 3.75 38.2891V41.5997H19.6875C20.1848 41.5997 20.6617 41.4171 21.0133 41.0921C21.365 40.767 21.5625 40.3261 21.5625 39.8664V19.0664H1.875Z" fill="white"/>
<path d="M25.9942 24.2666C24.0092 24.2666 22.0464 24.6523 20.2332 25.3989C18.4199 26.1454 16.7967 27.236 15.4688 28.5999C14.1411 29.964 12.5179 31.0546 10.7046 31.8012C8.89132 32.5477 6.9285 32.9334 4.94354 32.9333H3.6001C3.69666 34.7169 3.7501 36.5022 3.7501 38.2893V45.0666C3.7501 45.5263 3.94764 45.9672 4.29927 46.2923C4.6509 46.6173 5.12782 46.7999 5.6251 46.7999H24.3751C24.8724 46.7999 25.3493 46.6173 25.7009 46.2923C26.0526 45.9672 26.2501 45.5263 26.2501 45.0666V38.2893C26.2501 33.598 26.5867 28.9137 27.2485 24.2666H25.9942Z" fill="#FAD85D"/>
<path d="M15.4688 28.5996C14.1411 29.9636 12.5179 31.0543 10.7046 31.8008C8.89132 32.5473 6.9285 32.9331 4.94354 32.9329H3.6001C3.69666 34.7165 3.7501 36.5018 3.7501 38.2889V41.5996H19.6876C20.1849 41.5996 20.6618 41.417 21.0134 41.0919C21.3651 40.7668 21.5626 40.326 21.5626 39.8662V24.9258C19.2201 25.6392 17.1196 26.9056 15.4688 28.5996Z" fill="#FCE797"/>
<path d="M5.75705 45.0579L5.49268 43.3419L10.8017 42.6407C14.7983 42.1129 17.8124 38.9011 17.8124 35.1683C17.8117 33.8546 17.4411 32.5637 16.7371 31.4226L16.5121 31.0586C14.9079 28.4619 14.0635 25.5235 14.0624 22.5332H15.9374C15.9374 25.2173 16.6986 27.8675 18.1396 30.1989L18.3646 30.5629C19.2305 31.9655 19.6864 33.5525 19.6874 35.1675C19.6874 39.7573 15.9814 43.7076 11.0671 44.3576L5.75705 45.0579Z" fill="#E2E7F6"/>
<path d="M15.469 28.5998C15.423 28.6466 15.3715 28.6873 15.3246 28.7332C15.6567 29.5347 16.0534 30.312 16.5115 31.0585L16.7365 31.4225C17.4412 32.5634 17.8121 33.8544 17.8127 35.1682C17.8127 37.8506 16.2518 40.2582 13.8921 41.5998H16.8518C18.6086 39.915 19.6877 37.6365 19.6877 35.1674C19.6877 33.5554 19.2302 31.9633 18.3649 30.5628L18.1399 30.1988C17.5927 29.3116 17.1417 28.3765 16.7936 27.4072C16.3268 27.7747 15.8843 28.1734 15.469 28.5998Z" fill="white"/>
<path d="M13.125 19.0664V22.5331H16.875V19.0664" fill="#E2E7F6"/>
<path d="M7.5 14.7334V17.3334H18.75C19.2473 17.3334 19.7242 17.1508 20.0758 16.8257C20.4275 16.5007 20.625 16.0598 20.625 15.6001V14.7334H7.5Z" fill="#4C506E"/>
</svg>
