<svg width="60" height="52" viewBox="0 0 60 52" fill="none" xmlns="http://www.w3.org/2000/svg">
<path d="M12.0659 23.5734L1.53617 15.5771L0.584961 16.0687L6.52367 50.684C6.58673 51.0516 6.78269 51.3856 7.07666 51.6266C7.37063 51.8676 7.74351 51.9999 8.1289 51.9999C9.0725 51.9999 9.81828 51.2263 9.75207 50.316L8.70945 35.987C8.42696 32.0998 9.62035 28.2464 12.0659 25.1491V23.5734Z" fill="#FFE07D"/>
<path d="M8.15408 50.5481L4.85549 18.0982L1.53568 15.5771L0.584473 16.0687L6.52318 50.684C6.58624 51.0516 6.78221 51.3856 7.07617 51.6266C7.37014 51.8676 7.74302 51.9999 8.12842 51.9999C8.44107 51.9999 8.73088 51.9136 8.97779 51.7669C8.7491 51.6429 8.55478 51.4674 8.41136 51.2552C8.26794 51.043 8.17968 50.8004 8.15408 50.5481Z" fill="#FFD064"/>
<path d="M27.8753 27.8933C19.1677 12.2451 9.79074 2.24219 9.79074 2.24219L9.17188 4.0789L27.6978 38.1847L36.6568 41.6089L45.6047 39.0408V37.5897C39.8537 37.9515 32.5891 36.3643 27.8753 27.8933Z" fill="#EC625E"/>
<path d="M36.6567 41.6088L40.8421 40.4076C35.8173 39.2855 30.5149 36.1641 27.7869 28.5361C27.514 27.7734 27.2347 27.0129 26.949 26.2546C18.5159 11.5507 9.79074 2.24219 9.79074 2.24219L9.17188 4.0789L21.504 26.782L21.7617 26.6849L22.3068 28.2601L27.6978 38.1847L36.6567 41.6088Z" fill="#DF4854"/>
<path d="M5.40971 0.666354C6.2367 -0.240047 7.70471 -0.217271 8.50978 0.707261C11.0481 3.62204 16.4419 10.6067 21.2083 22.0108C27.4422 36.9259 32.9096 44.5038 45.9166 37.4238C47.0295 36.818 48.3717 36.7486 49.543 37.241C53.1245 38.334 55.8826 39.3881 57.973 40.3122C60.6746 41.5064 60.6772 45.2141 57.9717 46.4C54.4505 47.9434 49.5427 49.8121 43.8761 51.1819C38.9506 52.3726 34.564 52.0999 31.1579 51.399C27.0525 50.5541 23.7726 47.5716 22.6381 43.6639C17.5173 26.0262 3.60983 17.7001 0.584866 16.0687C0.405318 15.972 0.256167 15.8302 0.15322 15.6582C0.0502731 15.4862 -0.00263551 15.2904 0.000101017 15.0917C0.107796 7.63643 3.36373 2.90896 5.40971 0.666354Z" fill="#F87C68"/>
<path d="M35.8257 50.3092C31.7203 49.4644 28.4404 46.4817 27.3059 42.5741C22.1853 24.9366 8.27775 16.6105 5.25279 14.9791C5.07326 14.8824 4.92412 14.7405 4.8212 14.5685C4.71827 14.3965 4.66538 14.2008 4.66815 14.0021C4.7558 7.93422 6.92893 3.6736 8.83779 1.08879C8.72917 0.961041 8.61983 0.833862 8.50978 0.707261C7.70459 -0.217271 6.23658 -0.240047 5.40971 0.666354C3.36373 2.90884 0.107795 7.63632 0.000100041 15.0916C-0.00262274 15.2903 0.0502789 15.486 0.153202 15.658C0.256125 15.83 0.405238 15.9719 0.584748 16.0686C3.60971 17.7 17.5173 26.0261 22.6379 43.6637C23.7724 47.5713 27.0522 50.5539 31.1577 51.3988C34.5637 52.0997 38.9505 52.3723 43.8759 51.1816C44.7218 50.9769 45.5641 50.7583 46.4023 50.5259C42.3467 51.1923 38.7296 50.9069 35.8257 50.3092Z" fill="#EC625E"/>
</svg>
