<svg width="46" height="52" viewBox="0 0 46 52" fill="none" xmlns="http://www.w3.org/2000/svg">
<path d="M9.0931 26.6666L12.4683 19.7133L14.4604 26.6666H32.548L34.54 19.7133L37.9153 26.6666L46 22.8533C42.7108 14.6932 40.4114 9.17998 38.8867 6.33336C38.0498 4.75694 36.9252 3.38221 35.5816 2.29324C34.238 1.20427 32.7037 0.423946 31.0725 0C27.8817 9.24666 18.5489 9.24666 15.3579 0C13.6765 0.396702 12.0879 1.16274 10.69 2.25087C9.29209 3.339 8.11461 4.72614 7.23018 6.32674C5.71161 9.17336 3.28934 14.9934 0 23.1401L9.0931 26.6666Z" fill="#FCD462"/>
<path d="M35.038 52L34.995 29.7334H35.0319C35.0319 29.7334 34.7184 21.7934 34.4171 17.9933C34.1159 14.1933 31.6074 13.5067 31.6074 13.5067L35.0196 1.79341C34.0487 1.0641 32.9753 0.510239 31.841 0.153365L26.8672 13.9534H20.1044L14.7924 0C13.7224 0.185078 12.6977 0.602263 11.7798 1.2266L15.3888 13.5199C15.3888 13.5199 12.9296 14.1866 12.6037 17.9932C12.2778 21.7997 11.7798 29.7265 11.7798 29.7265L11.7614 51.9998H19.096L22.2685 41.0465L27.7034 51.9998H35.038V52Z" fill="#3A556A"/>
<path d="M28.6133 15.9336C28.3214 15.9336 28.0415 16.0593 27.8351 16.2831C27.6287 16.507 27.5127 16.8105 27.5127 17.127C27.5127 17.4435 27.6287 17.7471 27.8351 17.9709C28.0415 18.1947 28.3214 18.3204 28.6133 18.3204C28.9052 18.3204 29.1851 18.1947 29.3915 17.9709C29.5979 17.7471 29.7139 17.4435 29.7139 17.127C29.7139 16.8105 29.5979 16.507 29.3915 16.2831C29.1851 16.0593 28.9052 15.9336 28.6133 15.9336ZM18.4014 15.9336C18.1095 15.9336 17.8295 16.0593 17.6231 16.2831C17.4167 16.507 17.3008 16.8105 17.3008 17.127C17.3008 17.4435 17.4167 17.7471 17.6231 17.9709C17.8295 18.1947 18.1095 18.3204 18.4014 18.3204C18.6933 18.3204 18.9732 18.1947 19.1796 17.9709C19.386 17.7471 19.502 17.4435 19.502 17.127C19.502 16.8105 19.386 16.507 19.1796 16.2831C18.9732 16.0593 18.6933 15.9336 18.4014 15.9336Z" fill="white"/>
</svg>
