<svg width="164" height="190" viewBox="0 0 164 190" fill="none" xmlns="http://www.w3.org/2000/svg">
<path d="M0.75 26.75H117.75V163.25H0.75V26.75Z" fill="#5AAAE7"/>
<path d="M117.75 65.75V163.25H20.25L117.75 65.75Z" fill="#3D9AE2"/>
<path d="M163.25 46.25V72.25C163.245 73.9723 162.558 75.6226 161.341 76.8405C160.123 78.0584 158.472 78.7449 156.75 78.75H137.25L124.25 95V78.75H111.25C109.528 78.7449 107.877 78.0584 106.659 76.8405C105.442 75.6226 104.755 73.9723 104.75 72.25V46.25C104.755 44.5277 105.442 42.8774 106.659 41.6595C107.877 40.4416 109.528 39.7551 111.25 39.75H156.75C158.472 39.7551 160.123 40.4416 161.341 41.6595C162.558 42.8774 163.245 44.5277 163.25 46.25Z" fill="#FFD422"/>
<path d="M59.25 134C80.7891 134 98.25 116.539 98.25 95C98.25 73.4609 80.7891 56 59.25 56C37.7109 56 20.25 73.4609 20.25 95C20.25 116.539 37.7109 134 59.25 134Z" fill="#E6E7E8"/>
<path d="M75.3375 78.912C76.2439 79.8159 76.963 80.8897 77.4537 82.0721C77.9444 83.2544 78.197 84.5219 78.197 85.802C78.197 87.0821 77.9444 88.3496 77.4537 89.5319C76.963 90.7142 76.2439 91.7881 75.3375 92.692L66.14 101.889L52.36 88.1095L61.5575 78.912C63.3856 77.0861 65.8637 76.0605 68.4475 76.0605C71.0312 76.0605 73.5094 77.0861 75.3375 78.912Z" fill="#FFD422"/>
<path d="M66.14 101.889L56.9425 111.087C56.0499 112.045 54.9735 112.813 53.7775 113.346C52.5815 113.879 51.2905 114.165 49.9813 114.189C48.6722 114.212 47.3718 113.971 46.1578 113.48C44.9437 112.99 43.8409 112.26 42.915 111.334C41.9892 110.409 41.2593 109.306 40.7689 108.092C40.2786 106.878 40.0377 105.577 40.0608 104.268C40.0839 102.959 40.3705 101.668 40.9034 100.472C41.4363 99.2759 42.2046 98.1995 43.1625 97.3069L52.36 88.1094L66.14 101.889Z" fill="#FF5023"/>
<path d="M117.75 163.25V176.25C117.75 179.698 116.38 183.004 113.942 185.442C111.504 187.88 108.198 189.25 104.75 189.25H13.75C10.3022 189.25 6.99558 187.88 4.55761 185.442C2.11964 183.004 0.75 179.698 0.75 176.25V163.25H117.75ZM117.75 13.75V26.75H0.75V13.75C0.75 10.3022 2.11964 6.99558 4.55761 4.55761C6.99558 2.11964 10.3022 0.75 13.75 0.75H104.75C108.198 0.75 111.504 2.11964 113.942 4.55761C116.38 6.99558 117.75 10.3022 117.75 13.75Z" fill="#898890"/>
<path d="M17 10.5H23.5V17H17V10.5ZM30 10.5H43V17H30V10.5ZM49.5 173H69V179.5H49.5V173Z" fill="#57565C"/>
<path d="M130.75 56H137.25V62.5H130.75V56ZM143.75 56H150.25V62.5H143.75V56ZM117.75 56H124.25V62.5H117.75V56Z" fill="#F1F2F2"/>
</svg>
