<svg width="12" height="9" viewBox="0 0 12 9" fill="none" xmlns="http://www.w3.org/2000/svg">
<path d="M6.00556 8.64113C6.12063 8.64123 6.23454 8.61332 6.34043 8.55908C6.44631 8.50483 6.54199 8.42537 6.62172 8.32548L11.7582 2.14236C11.8382 2.0432 11.9008 1.92568 11.9422 1.79679C11.9837 1.66791 12.0032 1.5303 11.9996 1.39215C11.9959 1.25401 11.9692 1.11815 11.9211 0.992686C11.8729 0.867219 11.8043 0.754704 11.7192 0.66184C11.6342 0.568975 11.5345 0.497661 11.4261 0.452146C11.3177 0.406631 11.2027 0.387844 11.0882 0.396905C10.9736 0.405967 10.8617 0.442692 10.7592 0.504892C10.6566 0.567091 10.5656 0.653494 10.4913 0.758954L6.00556 6.15879L1.4615 0.688811C1.30094 0.495541 1.08318 0.386963 0.856126 0.386963C0.629067 0.386963 0.411308 0.495541 0.250753 0.688811C0.0901995 0.882081 0 1.14421 0 1.41753C0 1.69086 0.0901995 1.95299 0.250753 2.14626L5.38724 8.32938C5.46696 8.42927 5.56264 8.50873 5.66853 8.56297C5.77442 8.61722 5.88832 8.64513 6.0034 8.64503L6.00556 8.64113Z" fill="#BCC5CA"/>
</svg>
