<svg width="6" height="21" viewBox="0 0 6 21" fill="none" xmlns="http://www.w3.org/2000/svg">
<path d="M3 21C2.40666 21 1.82664 20.8321 1.33329 20.5174C0.839943 20.2027 0.455426 19.7555 0.228363 19.2322C0.00129986 18.709 -0.0581102 18.1332 0.0576455 17.5777C0.173401 17.0222 0.459123 16.512 0.878681 16.1115C1.29824 15.711 1.83279 15.4382 2.41473 15.3278C2.99667 15.2173 3.59987 15.274 4.14805 15.4907C4.69623 15.7075 5.16477 16.0745 5.49441 16.5454C5.82405 17.0163 6 17.57 6 18.1364C6 18.8958 5.68393 19.6242 5.12132 20.1613C4.55871 20.6983 3.79565 21 3 21ZM3 17.1818C2.80222 17.1818 2.60888 17.2378 2.44443 17.3427C2.27998 17.4476 2.15181 17.5967 2.07612 17.7711C2.00043 17.9455 1.98063 18.1374 2.01922 18.3226C2.0578 18.5078 2.15304 18.6778 2.29289 18.8113C2.43275 18.9448 2.61093 19.0357 2.80491 19.0726C2.99889 19.1094 3.19996 19.0905 3.38268 19.0182C3.56541 18.946 3.72159 18.8237 3.83147 18.6667C3.94135 18.5097 4 18.3252 4 18.1364C4 17.8832 3.89464 17.6404 3.70711 17.4614C3.51957 17.2824 3.26522 17.1818 3 17.1818ZM3 13.3636C2.40666 13.3636 1.82664 13.1957 1.33329 12.881C0.839943 12.5664 0.455426 12.1191 0.228363 11.5959C0.00129986 11.0726 -0.0581102 10.4968 0.0576455 9.94133C0.173401 9.38584 0.459123 8.87559 0.878681 8.4751C1.29824 8.07462 1.83279 7.80188 2.41473 7.69139C2.99667 7.58089 3.59987 7.6376 4.14805 7.85435C4.69623 8.07109 5.16477 8.43813 5.49441 8.90905C5.82405 9.37997 6 9.93363 6 10.5C6 11.2595 5.68393 11.9879 5.12132 12.5249C4.55871 13.0619 3.79565 13.3636 3 13.3636ZM3 9.54545C2.80222 9.54545 2.60888 9.60144 2.44443 9.70633C2.27998 9.81121 2.15181 9.96029 2.07612 10.1347C2.00043 10.3091 1.98063 10.5011 2.01922 10.6862C2.0578 10.8714 2.15304 11.0415 2.29289 11.175C2.43275 11.3085 2.61093 11.3994 2.80491 11.4362C2.99889 11.473 3.19996 11.4541 3.38268 11.3819C3.56541 11.3096 3.72159 11.1873 3.83147 11.0303C3.94135 10.8733 4 10.6888 4 10.5C4 10.2468 3.89464 10.004 3.70711 9.82504C3.51957 9.64602 3.26522 9.54545 3 9.54545ZM3 5.72727C2.40666 5.72727 1.82664 5.55932 1.33329 5.24466C0.839943 4.93 0.455426 4.48277 0.228363 3.9595C0.00129986 3.43624 -0.0581102 2.86046 0.0576455 2.30497C0.173401 1.74948 0.459123 1.23923 0.878681 0.838741C1.29824 0.438254 1.83279 0.165519 2.41473 0.0550253C2.99667 -0.0554688 3.59987 0.00124077 4.14805 0.217983C4.69623 0.434724 5.16477 0.801764 5.49441 1.27269C5.82405 1.74361 6 2.29726 6 2.86364C6 3.62312 5.68393 4.3515 5.12132 4.88853C4.55871 5.42557 3.79565 5.72727 3 5.72727ZM3 1.90909C2.80222 1.90909 2.60888 1.96508 2.44443 2.06996C2.27998 2.17485 2.15181 2.32393 2.07612 2.49835C2.00043 2.67277 1.98063 2.8647 2.01922 3.04986C2.0578 3.23502 2.15304 3.40511 2.29289 3.5386C2.43275 3.6721 2.61093 3.76301 2.80491 3.79984C2.99889 3.83667 3.19996 3.81777 3.38268 3.74552C3.56541 3.67328 3.72159 3.55093 3.83147 3.39395C3.94135 3.23698 4 3.05243 4 2.86364C4 2.61048 3.89464 2.36768 3.70711 2.18867C3.51957 2.00966 3.26522 1.90909 3 1.90909Z" fill="black" fill-opacity="0.2"/>
</svg>
