<svg width="22" height="22" viewBox="0 0 22 22" fill="none" xmlns="http://www.w3.org/2000/svg">
<path d="M8.86984 1.86096C8.83796 1.82906 8.81553 1.78883 8.80507 1.74479C8.79461 1.70074 8.79653 1.65463 8.81061 1.61162C8.8247 1.56862 8.85039 1.53042 8.88481 1.50133C8.91923 1.47225 8.961 1.45341 9.00544 1.44695L10.2382 1.26554L10.7886 0.146393C10.8075 0.102874 10.8385 0.0658481 10.8779 0.0398478C10.9174 0.0138475 10.9634 0 11.0105 0C11.0576 0 11.1037 0.0138475 11.1431 0.0398478C11.1825 0.0658481 11.2135 0.102874 11.2324 0.146393L11.7828 1.26554L13.0004 1.44695C13.0451 1.45344 13.0871 1.47245 13.1216 1.50182C13.1561 1.53119 13.1818 1.56974 13.1957 1.61309C13.2096 1.65645 13.2112 1.70286 13.2002 1.74706C13.1893 1.79126 13.1663 1.83149 13.1338 1.86315L12.2462 2.74092L12.4572 3.97857C12.4637 4.02236 12.4582 4.06711 12.4413 4.10799C12.4245 4.14887 12.3969 4.18434 12.3615 4.21059C12.3262 4.23685 12.2844 4.25288 12.2407 4.25698C12.197 4.26108 12.153 4.25308 12.1135 4.23385L11.004 3.64868L9.89449 4.23385C9.85456 4.25503 9.80954 4.2645 9.76454 4.26119C9.71954 4.25787 9.67636 4.24191 9.6399 4.2151C9.60343 4.1883 9.57515 4.15173 9.55824 4.10953C9.54133 4.06734 9.53648 4.02121 9.54424 3.97637L9.75526 2.73873L8.86984 1.86096ZM12.9982 19.1902L11.7654 19.0088L11.215 17.8897C11.1961 17.8462 11.1651 17.8091 11.1257 17.7831C11.0863 17.7571 11.0402 17.7433 10.9931 17.7433C10.946 17.7433 10.8999 17.7571 10.8605 17.7831C10.8211 17.8091 10.7901 17.8462 10.7712 17.8897L10.223 19.0081L9.00544 19.1895C8.96089 19.1963 8.91909 19.2154 8.88473 19.2448C8.85038 19.2742 8.82483 19.3127 8.81097 19.3559C8.7971 19.3992 8.79547 19.4455 8.80626 19.4896C8.81704 19.5337 8.83981 19.5739 8.87201 19.6057L9.75961 20.4835L9.54859 21.7211C9.54303 21.7646 9.54919 21.8087 9.56642 21.849C9.58366 21.8892 9.61133 21.924 9.64652 21.9496C9.68171 21.9753 9.72311 21.991 9.76637 21.9949C9.80962 21.9988 9.85313 21.9909 9.89231 21.972L11.0018 21.3868L12.1113 21.972C12.1512 21.9932 12.1963 22.0027 12.2413 21.9994C12.2863 21.996 12.3294 21.9801 12.3659 21.9533C12.4024 21.9265 12.4307 21.8899 12.4476 21.8477C12.4645 21.8055 12.4693 21.7594 12.4616 21.7145L12.2505 20.471L13.1381 19.5933C13.1688 19.561 13.1901 19.5207 13.1997 19.477C13.2092 19.4332 13.2066 19.3877 13.1921 19.3454C13.1776 19.3031 13.1519 19.2656 13.1177 19.237C13.0835 19.2085 13.0421 19.19 12.9982 19.1837V19.1902ZM0.754554 12.8455C0.747085 12.8902 0.75213 12.9362 0.769121 12.9782C0.786112 13.0203 0.814377 13.0567 0.850748 13.0834C0.887119 13.1102 0.930156 13.1262 0.975031 13.1296C1.01991 13.1331 1.06485 13.1238 1.10481 13.1029L2.2143 12.5178L3.3238 13.1029C3.36374 13.1241 3.40876 13.1336 3.45375 13.1303C3.49875 13.127 3.54193 13.111 3.5784 13.0842C3.61486 13.0574 3.64314 13.0208 3.66005 12.9786C3.67696 12.9364 3.68181 12.8903 3.67405 12.8455L3.46303 11.6078L4.35063 10.73C4.3831 10.6984 4.40612 10.6582 4.41706 10.614C4.42801 10.5697 4.42644 10.5233 4.41254 10.48C4.39865 10.4366 4.37297 10.3981 4.33844 10.3687C4.30391 10.3393 4.26191 10.3203 4.2172 10.3138L2.98443 10.1324L2.43403 9.01328C2.4154 8.9695 2.38445 8.93219 2.34501 8.90597C2.30556 8.87976 2.25937 8.86578 2.21213 8.86578C2.1649 8.86578 2.1187 8.87976 2.07925 8.90597C2.03981 8.93219 2.00886 8.9695 1.99023 9.01328L1.43983 10.1324L0.207059 10.3138C0.162352 10.3203 0.120344 10.3393 0.085813 10.3687C0.0512821 10.3981 0.0256132 10.4366 0.0117156 10.48C-0.00218196 10.5233 -0.00374898 10.5697 0.00719553 10.614C0.0181401 10.6582 0.0411582 10.6984 0.0736303 10.73L0.961227 11.6078L0.754554 12.8455ZM21.7966 10.3168L20.5638 10.1354L20.0134 9.01621C19.9948 8.97243 19.9638 8.93512 19.9244 8.9089C19.8849 8.88268 19.8387 8.86871 19.7915 8.86871C19.7443 8.86871 19.6981 8.88268 19.6586 8.9089C19.6192 8.93512 19.5882 8.97243 19.5696 9.01621L19.0192 10.1354L17.7864 10.3168C17.7417 10.3233 17.6997 10.3423 17.6652 10.3716C17.6307 10.401 17.605 10.4396 17.5911 10.4829C17.5772 10.5263 17.5756 10.5727 17.5866 10.6169C17.5975 10.6611 17.6205 10.7013 17.653 10.733L18.5406 11.6107L18.3296 12.8484C18.322 12.8933 18.327 12.9394 18.344 12.9815C18.361 13.0237 18.3894 13.0602 18.4259 13.0869C18.4624 13.1137 18.5055 13.1297 18.5505 13.133C18.5955 13.1363 18.6406 13.1269 18.6805 13.1059L19.79 12.5207L20.8995 13.1059C20.9395 13.127 20.9845 13.1365 21.0295 13.1332C21.0745 13.1299 21.1177 13.1139 21.1541 13.0871C21.1906 13.0603 21.2189 13.0237 21.2358 12.9815C21.2527 12.9393 21.2576 12.8932 21.2498 12.8484L21.0388 11.6107L21.9264 10.733C21.9588 10.7013 21.9819 10.6611 21.9928 10.6169C22.0037 10.5727 22.0022 10.5263 21.9883 10.4829C21.9744 10.4396 21.9487 10.401 21.9142 10.3716C21.8797 10.3423 21.8376 10.3233 21.7929 10.3168H21.7966ZM15.98 5.33545L15.769 6.5731C15.7613 6.61793 15.7661 6.66406 15.783 6.70625C15.7999 6.74845 15.8282 6.78502 15.8647 6.81182C15.9011 6.83863 15.9443 6.85459 15.9893 6.85791C16.0343 6.86122 16.0793 6.85175 16.1193 6.83057L17.2288 6.2454L18.3383 6.83057C18.3782 6.85175 18.4232 6.86122 18.4682 6.85791C18.5132 6.85459 18.5564 6.83863 18.5929 6.81182C18.6293 6.78502 18.6576 6.74845 18.6745 6.70625C18.6914 6.66406 18.6963 6.61793 18.6885 6.5731L18.4775 5.33545L19.3651 4.45768C19.3979 4.42448 19.4205 4.38245 19.4303 4.33663C19.4401 4.2908 19.4366 4.2431 19.4202 4.19922C19.4039 4.15535 19.3754 4.11714 19.3381 4.08917C19.3008 4.0612 19.2563 4.04464 19.2099 4.04148L17.9771 3.86007L17.4267 2.74092C17.4081 2.69714 17.3772 2.65983 17.3377 2.63361C17.2983 2.60739 17.2521 2.59342 17.2048 2.59342C17.1576 2.59342 17.1114 2.60739 17.072 2.63361C17.0325 2.65983 17.0016 2.69714 16.9829 2.74092L16.4347 3.86665L15.2165 4.04806C15.1719 4.05481 15.1301 4.07396 15.0957 4.10336C15.0614 4.13276 15.0358 4.17125 15.022 4.21449C15.0081 4.25773 15.0065 4.30401 15.0173 4.34814C15.0281 4.39226 15.0508 4.43248 15.083 4.46427L15.98 5.33545ZM6.78717 16.6001L5.5544 16.4187L5.004 15.2995C4.98537 15.2558 4.95442 15.2185 4.91498 15.1922C4.87554 15.166 4.82934 15.152 4.7821 15.152C4.73487 15.152 4.68867 15.166 4.64923 15.1922C4.60979 15.2185 4.57883 15.2558 4.5602 15.2995L4.0098 16.4187L2.79153 16.6001C2.74682 16.6066 2.70482 16.6256 2.67029 16.655C2.63576 16.6843 2.61009 16.7229 2.59619 16.7662C2.58229 16.8096 2.58073 16.856 2.59167 16.9002C2.60262 16.9444 2.62563 16.9846 2.6581 17.0163L3.5457 17.8941L3.33468 19.1317C3.32912 19.1752 3.33529 19.2193 3.35252 19.2595C3.36975 19.2998 3.39742 19.3345 3.43261 19.3602C3.4678 19.3859 3.5092 19.4016 3.55245 19.4055C3.59571 19.4094 3.63922 19.4015 3.6784 19.3826L4.78791 18.7974L5.8974 19.3826C5.93734 19.4038 5.98236 19.4133 6.02736 19.4099C6.07235 19.4066 6.11553 19.3907 6.15199 19.3639C6.18846 19.3371 6.21675 19.3005 6.23365 19.2583C6.25056 19.2161 6.25541 19.17 6.24766 19.1251L6.03663 17.8875L6.92423 17.0097C6.95494 16.9774 6.97622 16.9372 6.98574 16.8934C6.99526 16.8497 6.99264 16.8042 6.97818 16.7618C6.96372 16.7195 6.93797 16.682 6.90376 16.6535C6.86955 16.6249 6.82821 16.6065 6.78427 16.6001H6.78717ZM3.54788 5.34276L3.33686 6.58041C3.3313 6.62386 3.33746 6.66802 3.35469 6.70824C3.37193 6.74845 3.3996 6.78324 3.43478 6.80892C3.46997 6.8346 3.51138 6.85024 3.55463 6.85418C3.59789 6.85812 3.6414 6.85022 3.68058 6.83131L4.79008 6.24613L5.89958 6.83131C5.93951 6.85248 5.98453 6.86195 6.02953 6.85864C6.07453 6.85532 6.1177 6.83936 6.15417 6.81256C6.19063 6.78575 6.21892 6.74918 6.23583 6.70698C6.25274 6.66479 6.25759 6.61866 6.24983 6.57383L6.03881 5.33618L6.9264 4.45841C6.95874 4.4262 6.98143 4.38545 6.99189 4.34084C7.00235 4.29623 7.00016 4.24954 6.98556 4.20613C6.97097 4.16271 6.94455 4.12432 6.90934 4.09533C6.87413 4.06634 6.83154 4.04793 6.78645 4.04221L5.55368 3.8608L5.00328 2.74165C4.98464 2.69787 4.95369 2.66056 4.91425 2.63434C4.87481 2.60812 4.82861 2.59415 4.78138 2.59415C4.73414 2.59415 4.68794 2.60812 4.6485 2.63434C4.60906 2.66056 4.57811 2.69787 4.55948 2.74165L4.01126 3.86665L2.79299 4.04806C2.74828 4.05455 2.70627 4.07357 2.67174 4.10293C2.63721 4.1323 2.61154 4.17085 2.59764 4.21421C2.58374 4.25756 2.58218 4.30397 2.59312 4.34817C2.60407 4.39238 2.62708 4.4326 2.65955 4.46427L3.54788 5.34276ZM15.98 17.8824L15.769 19.12C15.7613 19.1649 15.7661 19.211 15.783 19.2532C15.7999 19.2954 15.8282 19.3319 15.8647 19.3587C15.9011 19.3855 15.9443 19.4015 15.9893 19.4048C16.0343 19.4081 16.0793 19.3987 16.1193 19.3775L17.2288 18.7923L18.3383 19.3775C18.3782 19.3987 18.4232 19.4081 18.4682 19.4048C18.5132 19.4015 18.5564 19.3855 18.5929 19.3587C18.6293 19.3319 18.6576 19.2954 18.6745 19.2532C18.6914 19.211 18.6963 19.1649 18.6885 19.12L18.4775 17.8824L19.3651 17.0046C19.3962 16.9713 19.4174 16.9298 19.4262 16.8849C19.4349 16.84 19.431 16.7935 19.4148 16.7507C19.3986 16.708 19.3708 16.6707 19.3346 16.6431C19.2983 16.6156 19.2551 16.5989 19.2099 16.595L17.9771 16.4136L17.4267 15.2944C17.4081 15.2506 17.3772 15.2133 17.3377 15.1871C17.2983 15.1609 17.2521 15.1469 17.2048 15.1469C17.1576 15.1469 17.1114 15.1609 17.072 15.1871C17.0325 15.2133 17.0016 15.2506 16.9829 15.2944L16.4325 16.4136L15.2143 16.595C15.1696 16.6015 15.1276 16.6205 15.093 16.6499C15.0585 16.6792 15.0328 16.7178 15.0189 16.7611C15.005 16.8045 15.0035 16.8509 15.0144 16.8951C15.0254 16.9393 15.0484 16.9795 15.0808 17.0112L15.98 17.8824ZM7.84663 14.9894H14.1555C14.3079 14.9894 14.4539 14.9284 14.5617 14.8197C14.6694 14.7111 14.7299 14.5637 14.7299 14.4101V8.04628C14.7299 7.89263 14.6694 7.74528 14.5617 7.63663C14.4539 7.52799 14.3079 7.46695 14.1555 7.46695H11.7712V9.76231H10.2941V7.46622H7.85316C7.70084 7.46622 7.55476 7.52726 7.44705 7.6359C7.33934 7.74455 7.27883 7.8919 7.27883 8.04555V14.4093C7.27882 14.5619 7.33844 14.7082 7.44474 14.8167C7.55104 14.9251 7.69545 14.9869 7.84663 14.9887V14.9894Z" fill="#E15F5A"/>
</svg>
