<svg width="17" height="16" viewBox="0 0 17 16" fill="none" xmlns="http://www.w3.org/2000/svg">
<path d="M11.6472 4.23909C11.3421 4.23923 11.0438 4.14886 10.79 3.97942C10.5362 3.80998 10.3384 3.56908 10.2216 3.28719C10.1047 3.00531 10.0741 2.6951 10.1336 2.39581C10.1931 2.09653 10.34 1.82161 10.5558 1.60585C10.7716 1.39008 11.0465 1.24315 11.3458 1.18366C11.6451 1.12416 11.9553 1.15477 12.2371 1.27161C12.519 1.38844 12.7599 1.58626 12.9294 1.84003C13.0988 2.09381 13.1892 2.39213 13.189 2.69728C13.1889 3.10613 13.0264 3.49819 12.7372 3.7873C12.4481 4.0764 12.0561 4.2389 11.6472 4.23909Z" fill="#F3EB39" stroke="#F3EB39" stroke-width="1.3" stroke-miterlimit="10" stroke-linecap="round" stroke-linejoin="round"/>
<path d="M13.1807 2.69727H15.7541H13.1807Z" fill="#F3EB39"/>
<path d="M13.1807 2.69727H15.7541" stroke="#F3EB39" stroke-width="1.3" stroke-miterlimit="10" stroke-linecap="round" stroke-linejoin="round"/>
<path d="M1.27246 2.69727H10.1046H1.27246Z" fill="#F3EB39"/>
<path d="M1.27246 2.69727H10.1046" stroke="#F3EB39" stroke-width="1.3" stroke-miterlimit="10" stroke-linecap="round" stroke-linejoin="round"/>
<path d="M5.57496 9.40218C5.26982 9.40232 4.97149 9.31195 4.71772 9.14251C4.46395 8.97307 4.26613 8.73217 4.14929 8.45028C4.03245 8.16839 4.00185 7.85818 4.06134 7.5589C4.12084 7.25962 4.26776 6.9847 4.48353 6.76893C4.6993 6.55317 4.97421 6.40624 5.2735 6.34674C5.57278 6.28725 5.88299 6.31785 6.16488 6.43469C6.44677 6.55153 6.68767 6.74935 6.85711 7.00312C7.02655 7.25689 7.11691 7.55522 7.11678 7.86036C7.11659 8.26922 6.95409 8.66128 6.66498 8.95038C6.37588 9.23949 5.98382 9.40199 5.57496 9.40218Z" fill="#F3EB39" stroke="#F3EB39" stroke-width="1.3" stroke-miterlimit="10" stroke-linecap="round" stroke-linejoin="round"/>
<path d="M7.11719 7.85962H15.7544H7.11719Z" fill="#F3EB39"/>
<path d="M7.11719 7.85962H15.7544" stroke="#F3EB39" stroke-width="1.3" stroke-miterlimit="10" stroke-linecap="round" stroke-linejoin="round"/>
<path d="M1.27246 7.85962H4.04083H1.27246Z" fill="#F3EB39"/>
<path d="M1.27246 7.85962H4.04083" stroke="#F3EB39" stroke-width="1.3" stroke-miterlimit="10" stroke-linecap="round" stroke-linejoin="round"/>
<path d="M11.6472 14.5645C11.3421 14.5647 11.0438 14.4743 10.79 14.3049C10.5362 14.1354 10.3384 13.8945 10.2216 13.6126C10.1047 13.3307 10.0741 13.0205 10.1336 12.7213C10.1931 12.422 10.34 12.1471 10.5558 11.9313C10.7716 11.7155 11.0465 11.5686 11.3458 11.5091C11.6451 11.4496 11.9553 11.4802 12.2371 11.597C12.519 11.7139 12.7599 11.9117 12.9294 12.1655C13.0988 12.4192 13.1892 12.7176 13.189 13.0227C13.1889 13.4316 13.0264 13.8236 12.7372 14.1127C12.4481 14.4018 12.0561 14.5643 11.6472 14.5645Z" fill="#F3EB39" stroke="#F3EB39" stroke-width="1.3" stroke-miterlimit="10" stroke-linecap="round" stroke-linejoin="round"/>
<path d="M13.1807 13.0227H15.7541H13.1807Z" fill="#F3EB39"/>
<path d="M13.1807 13.0227H15.7541" stroke="#F3EB39" stroke-width="1.3" stroke-miterlimit="10" stroke-linecap="round" stroke-linejoin="round"/>
<path d="M1.27246 13.0227H10.1046H1.27246Z" fill="#F3EB39"/>
<path d="M1.27246 13.0227H10.1046" stroke="#F3EB39" stroke-width="1.3" stroke-miterlimit="10" stroke-linecap="round" stroke-linejoin="round"/>
</svg>
