<svg width="29" height="21" viewBox="0 0 29 21" fill="none" xmlns="http://www.w3.org/2000/svg">
<path d="M27.4451 15.0626H28.576C28.6177 15.0634 28.6591 15.0548 28.6971 15.0375C28.735 15.0202 28.7684 14.9946 28.7949 14.9628C28.8213 14.9309 28.8401 14.8935 28.8498 14.8534C28.8595 14.8134 28.8598 14.7717 28.8508 14.7315C28.6062 13.2552 26.6805 12.6532 25.9777 12.4724C25.8915 12.4481 25.8115 12.406 25.743 12.3489C25.6745 12.2918 25.6192 12.221 25.5806 12.1412L24.3858 9.67087C24.5346 9.75681 24.7055 9.79866 24.8778 9.79141H25.4892C25.5095 9.79251 25.5299 9.78937 25.5489 9.78221C25.5679 9.77504 25.5851 9.76401 25.5995 9.74982C25.6139 9.73564 25.6251 9.71862 25.6324 9.69988C25.6397 9.68115 25.6428 9.66111 25.6417 9.64108V7.65286C25.6428 7.63283 25.6397 7.61279 25.6324 7.59406C25.6251 7.57532 25.6139 7.55831 25.5995 7.54412C25.5851 7.52994 25.5679 7.5189 25.5489 7.51173C25.5299 7.50457 25.5095 7.50143 25.4892 7.50254H24.8778C24.7386 7.50298 24.6011 7.53276 24.4746 7.58987C24.348 7.64698 24.2353 7.73011 24.144 7.83367C24.1138 7.68334 24.0527 7.50254 23.9915 7.29125C23.9002 6.96011 23.4996 7.02038 23.0132 7.14091C22.3601 7.3051 21.6966 7.42591 21.0271 7.50254L20.7523 7.53232C20.7102 7.38427 20.6284 7.25014 20.5155 7.14408C20.4025 7.03801 20.2627 6.96392 20.1106 6.92963L18.3993 6.50773C18.0936 6.14612 17.7267 5.69444 17.1462 5.06196C16.8831 4.74842 16.5324 4.5179 16.1376 4.39899C15.5795 4.17299 14.9535 4.17299 14.3954 4.39899C14.1265 4.55249 13.898 4.76601 13.7281 5.0224C13.5582 5.2788 13.4516 5.57091 13.4171 5.87525L12.9251 10.2736C12.9065 10.4141 12.9189 10.5569 12.9612 10.6923C13.0036 10.8277 13.0751 10.9525 13.1708 11.0582C13.2665 11.164 13.3841 11.2482 13.5157 11.3051C13.6474 11.3621 13.7899 11.3904 13.9336 11.3882H18.2123L18.0591 15.1236C18.0471 15.3912 18.1434 15.6526 18.3269 15.8504C18.5103 16.0481 18.7659 16.1659 19.0374 16.1779H19.0676C19.333 16.1784 19.5884 16.0787 19.7816 15.8994C19.9747 15.7201 20.091 15.4747 20.1064 15.2136L20.3172 10.4537C20.3194 10.1784 20.222 9.91148 20.0425 9.70066C19.9496 9.60104 19.8359 9.52249 19.7092 9.47046C19.5825 9.41843 19.4459 9.39415 19.3087 9.39931H16.6549L16.8383 7.44158C17.0492 7.68265 17.2052 7.86346 17.2052 7.86346C17.328 8.01801 17.5022 8.12476 17.6972 8.16481L19.7142 8.64975C19.7817 8.67385 19.8535 8.68399 19.9251 8.67953C20.0264 8.68414 20.1276 8.66806 20.2223 8.63229C20.317 8.59653 20.4031 8.54185 20.4754 8.4717L21.3314 8.35117C21.3688 8.48888 21.3894 8.63052 21.3926 8.77305C21.4839 9.43602 21.6983 9.70689 22.0954 9.79694C22.4011 10.9116 22.737 12.6587 22.9816 13.7457C23.0273 14.0029 23.0126 14.267 22.9383 14.5177C22.8641 14.7683 22.7325 14.9989 22.5536 15.1914L21.3918 16.4266C21.2885 16.5314 21.1649 16.6146 21.0284 16.6715C20.8919 16.7284 20.7452 16.7577 20.597 16.7578H17.1469C17.055 16.7613 16.9634 16.7456 16.8781 16.7116C16.7928 16.6776 16.7159 16.6262 16.6523 16.5607C16.5887 16.4952 16.5399 16.4172 16.5093 16.3317C16.4786 16.2463 16.4667 16.1553 16.4743 16.065L16.5354 13.8357H16.9023C17.0167 13.8335 17.1272 13.7939 17.2162 13.723C17.3053 13.6522 17.3679 13.5541 17.3943 13.4443L17.5777 12.7211C17.5943 12.6485 17.5941 12.5732 17.5771 12.5008C17.56 12.4283 17.5266 12.3606 17.4793 12.3027C17.432 12.2447 17.3721 12.1981 17.3039 12.1662C17.2358 12.1342 17.1612 12.1179 17.0857 12.1184H7.27381C7.18169 12.1202 7.0925 12.1506 7.01894 12.2053C6.94537 12.26 6.89119 12.3361 6.86409 12.423C6.83699 12.5098 6.83836 12.6028 6.86802 12.6888C6.89767 12.7748 6.95408 12.8493 7.02923 12.9019L8.67943 13.9563C7.9284 14.8463 7.50704 15.9619 7.48466 17.1194C7.48557 17.2069 7.52125 17.2906 7.58406 17.3525C7.64686 17.4145 7.73178 17.4496 7.8206 17.4505H8.52341C8.52341 17.5711 8.49319 17.6916 8.49319 17.8121C8.49687 18.6304 8.81812 19.4162 9.39102 20.0083C9.96393 20.6004 10.745 20.9539 11.574 20.9963C12.403 21.0386 13.217 20.7666 13.8489 20.2361C14.4809 19.7056 14.8829 18.9567 14.9724 18.1433C15.1136 18.1681 15.2571 18.1781 15.4004 18.1731H21.5437C21.725 18.168 21.9032 18.1252 22.0664 18.0473C22.2297 17.9694 22.3744 17.8584 22.491 17.7214V17.7817C22.4891 18.2329 22.584 18.6795 22.7696 19.092C22.9552 19.5045 23.2272 19.8736 23.5677 20.1752C23.9083 20.4767 24.3097 20.7039 24.7457 20.8416C25.1816 20.9794 25.6422 21.0247 26.0972 20.9746C26.7954 20.8882 27.4475 20.5845 27.9587 20.1077C28.4698 19.6309 28.8133 19.0059 28.9393 18.3234C29.0674 17.6945 28.9918 17.0418 28.7232 16.4576C28.4546 15.8734 28.0065 15.3871 27.4423 15.0674L27.4451 15.0626ZM11.7971 19.6417C11.5518 19.6433 11.3086 19.5968 11.0817 19.505C10.8548 19.4132 10.6486 19.2779 10.4751 19.1069C10.3017 18.9359 10.1644 18.7327 10.0712 18.509C9.9781 18.2853 9.93096 18.0456 9.93254 17.8038C9.92743 17.6825 9.93758 17.5611 9.96276 17.4422H11.0627C11.0003 17.5527 10.9688 17.6774 10.9713 17.8038C10.9681 17.9086 10.9863 18.013 11.0248 18.1107C11.0634 18.2085 11.1214 18.2976 11.1955 18.3729C11.2695 18.4481 11.3582 18.5079 11.4562 18.5487C11.5542 18.5896 11.6594 18.6106 11.7658 18.6106C11.8722 18.6106 11.9775 18.5896 12.0754 18.5487C12.1734 18.5079 12.2621 18.4481 12.3362 18.3729C12.4103 18.2976 12.4683 18.2085 12.5068 18.1107C12.5453 18.013 12.5635 17.9086 12.5603 17.8038C12.5592 17.6779 12.5279 17.554 12.469 17.4422H13.5689V17.5323C13.5689 17.6223 13.5991 17.7131 13.5991 17.8031C13.6129 18.0429 13.5763 18.2829 13.4914 18.508C13.4065 18.7331 13.2753 18.9384 13.1059 19.1111C12.9366 19.2837 12.7328 19.4199 12.5074 19.5112C12.282 19.6024 12.04 19.6466 11.7964 19.641L11.7971 19.6417ZM25.7949 19.6417C25.4262 19.6417 25.0657 19.5339 24.7591 19.332C24.4524 19.13 24.2134 18.843 24.0723 18.5072C23.9312 18.1713 23.8943 17.8018 23.9662 17.4453C24.0382 17.0888 24.2157 16.7613 24.4765 16.5043C24.7373 16.2472 25.0695 16.0722 25.4312 16.0013C25.7929 15.9303 26.1678 15.9667 26.5085 16.1058C26.8492 16.245 27.1404 16.4805 27.3453 16.7828C27.5501 17.085 27.6595 17.4403 27.6595 17.8038C27.6575 18.2912 27.4599 18.7579 27.1098 19.1022C26.7598 19.4464 26.2859 19.6401 25.7914 19.641L25.7949 19.6417Z" fill="#FFAF10"/>
<path d="M25.7951 17.0205C25.6378 17.0204 25.4841 17.0662 25.3533 17.1522C25.2225 17.2382 25.1205 17.3606 25.0602 17.5037C24.9999 17.6469 24.9841 17.8044 25.0147 17.9565C25.0453 18.1085 25.1209 18.2482 25.2321 18.3578C25.3432 18.4675 25.4848 18.5422 25.6391 18.5724C25.7933 18.6027 25.9531 18.5872 26.0984 18.528C26.2437 18.4687 26.3679 18.3683 26.4552 18.2394C26.5426 18.1105 26.5892 17.959 26.5892 17.804C26.59 17.701 26.57 17.5988 26.5303 17.5035C26.4907 17.4081 26.4323 17.3215 26.3584 17.2486C26.2845 17.1757 26.1966 17.118 26.0999 17.0789C26.0032 17.0397 25.8996 17.0199 25.7951 17.0205Z" fill="#FFAF10"/>
<path d="M7.36815 11.4165H11.28C11.4579 11.4151 11.6281 11.3448 11.7539 11.2208C11.8798 11.0967 11.9511 10.9289 11.9526 10.7536V7.10828C11.9511 6.9329 11.8798 6.76511 11.7539 6.64109C11.6281 6.51707 11.4579 6.44676 11.28 6.44531H7.36815C7.19022 6.44676 7.01999 6.51707 6.89418 6.64109C6.76836 6.76511 6.69703 6.9329 6.69556 7.10828V10.7536C6.69703 10.9289 6.76836 11.0967 6.89418 11.2208C7.01999 11.3448 7.19022 11.4151 7.36815 11.4165Z" fill="#FFAF10"/>
<path d="M16.7489 1.6868C16.6895 1.6669 16.625 1.6669 16.5655 1.6868C16.5485 1.76825 16.5591 1.85295 16.5957 1.92788C16.691 2.13802 16.8344 2.32356 17.0146 2.46995C17.1948 2.61634 17.407 2.71961 17.6345 2.77166C18.0359 2.87924 18.4442 2.95979 18.8567 3.01274C18.7635 2.55692 18.6199 2.11253 18.4287 1.68749C17.8762 1.81651 17.3007 1.81651 16.7482 1.68749L16.7489 1.6868Z" fill="#FFAF10"/>
<path d="M14.7923 3.70302L18.1847 4.45605C18.2825 4.48181 18.3864 4.47153 18.4769 4.42714C18.5675 4.38276 18.6385 4.30731 18.6767 4.21497C18.7746 3.99312 18.8454 3.76056 18.8876 3.52221C18.4248 3.4679 17.9656 3.38741 17.5122 3.28113C16.5648 3.07331 15.8957 2.13601 16.0145 1.56379C16.0756 1.29293 16.3202 1.05184 16.8396 1.17238C17.2933 1.25675 17.758 1.26681 18.215 1.20217C18.0782 0.929802 17.8846 0.688936 17.647 0.495308C17.4094 0.301681 17.133 0.159647 16.8358 0.078482C16.5387 -0.00268259 16.2276 -0.0211526 15.9227 0.0242811C15.6179 0.0697148 15.3261 0.178031 15.0666 0.342151C14.8071 0.50627 14.5857 0.722503 14.4167 0.976727C14.2478 1.23095 14.1352 1.51745 14.0862 1.8175C14.0372 2.11755 14.053 2.42441 14.1325 2.71804C14.2121 3.01167 14.3535 3.28546 14.5477 3.52152C14.5696 3.56958 14.6036 3.61137 14.6464 3.64299C14.6891 3.67461 14.7393 3.69572 14.7923 3.70302Z" fill="#FFAF10"/>
<path d="M4.67614 10.6033C4.84642 10.6033 5.00972 10.5366 5.13012 10.4179C5.25052 10.2993 5.31816 10.1383 5.31816 9.97047C5.31816 9.80263 5.25052 9.64167 5.13012 9.52299C5.00972 9.40431 4.84642 9.33765 4.67614 9.33765H0.64202C0.471747 9.33765 0.308447 9.40431 0.188046 9.52299C0.0676443 9.64167 0 9.80263 0 9.97047C0 10.1383 0.0676443 10.2993 0.188046 10.4179C0.308447 10.5366 0.471747 10.6033 0.64202 10.6033H4.67614Z" fill="#FFAF10"/>
<path d="M5.10424 13.3457C5.27452 13.3457 5.43782 13.2791 5.55822 13.1604C5.67862 13.0417 5.74626 12.8807 5.74626 12.7129C5.74626 12.5451 5.67862 12.3841 5.55822 12.2654C5.43782 12.1467 5.27452 12.0801 5.10424 12.0801H1.07011C0.905108 12.0874 0.749357 12.1573 0.635411 12.2752C0.521465 12.393 0.458144 12.5498 0.458674 12.7126C0.456653 12.7962 0.471867 12.8793 0.503399 12.9569C0.53493 13.0346 0.582122 13.1051 0.642114 13.1642C0.702105 13.2234 0.773648 13.2699 0.852412 13.301C0.931176 13.332 1.01552 13.347 1.10034 13.345L5.10424 13.3457Z" fill="#FFAF10"/>
<path d="M5.5631 14.8213H1.52898C1.3587 14.8213 1.1954 14.888 1.075 15.0067C0.954602 15.1253 0.886963 15.2863 0.886963 15.4541C0.886963 15.622 0.954602 15.7829 1.075 15.9016C1.1954 16.0203 1.3587 16.087 1.52898 16.087H5.5631C5.64792 16.0889 5.73227 16.074 5.81103 16.0429C5.88979 16.0118 5.96134 15.9653 6.02133 15.9062C6.08132 15.847 6.12851 15.7765 6.16004 15.6989C6.19157 15.6212 6.20679 15.5381 6.20477 15.4545C6.20385 15.2869 6.13597 15.1265 6.01585 15.008C5.89574 14.8895 5.73306 14.8224 5.5631 14.8213Z" fill="#FFAF10"/>
</svg>
