<svg width="208" height="209" viewBox="0 0 208 209" fill="none" xmlns="http://www.w3.org/2000/svg">
<path d="M44.6973 1.5607L7.23483 19.2927H0V50.5796H42.5215L85.9849 38.466L65.0682 7.13702C60.6472 0.513734 51.944 -1.86878 44.6973 1.5607Z" fill="#FFCBBE"/>
<path d="M39.5813 35.818V37.0777H72.1798V26.4805H49.0432C43.8178 26.4805 39.5813 30.661 39.5813 35.818Z" fill="#EAAC9D"/>
<path d="M55.0869 77.6576V21.8559C55.0869 12.8151 62.5137 5.48633 71.6745 5.48633H154.458C163.619 5.48633 171.045 12.8155 171.045 21.8559V77.6572C171.045 86.698 163.619 94.0268 154.458 94.0268H71.6749C62.5137 94.0272 55.0869 86.698 55.0869 77.6576Z" fill="#8BC852"/>
<path d="M64.8298 70.8254V28.6779C72.4308 28.6779 78.5929 22.5968 78.5929 15.0957H147.54C147.54 22.5968 153.702 28.6779 161.303 28.6779V70.8254C153.702 70.8254 147.54 76.9065 147.54 84.4076H78.5929C78.5929 76.9062 72.4308 70.8254 64.8298 70.8254Z" fill="#69AF81"/>
<path d="M113.066 72.1263C125.588 72.1263 135.738 62.1093 135.738 49.7526C135.738 37.396 125.588 27.3789 113.066 27.3789C100.545 27.3789 90.3948 37.396 90.3948 49.7526C90.3948 62.1093 100.545 72.1263 113.066 72.1263Z" fill="#8BC852"/>
<path d="M152.716 52.7576H144.994C144.594 52.7576 144.198 52.6799 143.829 52.5289C143.46 52.3779 143.124 52.1566 142.841 51.8775C142.559 51.5985 142.334 51.2673 142.181 50.9027C142.028 50.5382 141.949 50.1474 141.949 49.7528C141.949 49.3582 142.028 48.9675 142.181 48.603C142.334 48.2384 142.559 47.9071 142.841 47.6281C143.124 47.3491 143.46 47.1278 143.829 46.9768C144.198 46.8258 144.594 46.748 144.994 46.748H152.716C154.398 46.748 155.761 48.0933 155.761 49.7528C155.761 51.4124 154.398 52.7576 152.716 52.7576Z" fill="#8BC852"/>
<path d="M89.6792 34.4316H0V55.7677H11.8403L17.1223 61.1776C27.4134 71.713 44.1858 72.646 55.611 63.3248L61.9501 58.1502H89.6788C92.9963 58.1502 95.9989 56.8225 98.1747 54.6787C100.351 52.5315 101.696 49.5649 101.696 46.2909C101.696 39.7431 96.3142 34.4316 89.6792 34.4316Z" fill="#FFCBBE"/>
<path d="M61.4815 50.9641C46.7466 62.9902 25.1107 61.7838 11.8403 48.1985H0V55.7668H11.8403L17.1223 61.1767C27.4134 71.7121 44.1858 72.6451 55.611 63.3239L61.9501 58.1493H89.6788C92.9963 58.1493 95.9989 56.8216 98.1747 54.6779C100.351 52.5306 101.696 49.5679 101.696 46.29C101.696 44.9662 101.477 43.6952 101.073 42.5078C100.479 44.2401 99.4866 45.8136 98.1747 47.1056C95.9989 49.2528 92.9967 50.5806 89.6788 50.5806H61.9501L61.4815 50.9641Z" fill="#EAAC9D"/>
<path d="M58.545 132.349C58.779 140.235 59.3193 148.108 60.1647 155.953C60.6128 160.117 64.0257 163.352 68.2516 163.684C94.9575 165.775 121.789 165.775 148.495 163.684C152.724 163.352 156.137 160.117 156.585 155.953C156.627 155.561 156.669 155.173 156.707 154.781C158.925 133.433 158.884 112.082 156.585 90.7344C156.137 86.5738 152.724 83.3352 148.495 83.0035C139.936 82.3343 131.361 81.8793 122.779 81.6388C113.174 81.3704 103.573 81.3704 93.9688 81.6388C85.3863 81.8793 76.8112 82.3344 68.252 83.0035C64.0261 83.3352 60.6136 86.5738 60.1651 90.7344C58.6731 104.608 58.132 118.477 58.545 132.349Z" fill="#F4DD45"/>
<path d="M58.5449 132.352C58.7789 140.237 59.3193 148.111 60.1647 155.955C60.6127 160.119 64.0256 163.354 68.2515 163.686C94.9574 165.778 121.789 165.778 148.495 163.686C152.724 163.354 156.137 160.119 156.585 155.955C156.627 155.563 156.668 155.175 156.707 154.783C155.186 149.98 148.361 144.881 124.069 148.701C83.0006 155.159 58.5449 132.352 58.5449 132.352Z" fill="#ECBE6B"/>
<path d="M143.341 164.061C145.06 163.944 146.779 163.821 148.498 163.685C152.724 163.354 156.137 160.119 156.585 155.954C158.925 134.276 158.925 112.414 156.585 90.7359C156.137 86.5749 152.724 83.3367 148.498 83.005C146.779 82.8724 145.06 82.746 143.341 82.6289C144.975 84.1428 146.003 86.1857 146.238 88.3853C148.748 111.692 148.748 134.998 146.238 158.305C146.004 160.505 144.975 162.548 143.341 164.061Z" fill="#ECBE6B"/>
<path d="M93.9692 81.6388V114.54L108.375 104.636L122.779 114.54V81.6388C113.174 81.3704 103.573 81.3704 93.9692 81.6388Z" fill="#595959"/>
<path d="M47.5986 155.221H47.6013L88.898 187.912C90.5793 189.242 92.5132 190.228 94.586 190.81C96.6588 191.392 98.8287 191.56 100.968 191.302L156.627 184.617L171.457 190.031C179.424 181.946 176.15 155.93 176.15 155.93L172.618 154.976C172.925 150.319 170.699 145.694 166.568 143.049C166.107 142.751 165.627 142.483 165.132 142.245L141.265 130.742L128.99 124.826C128.335 124.509 127.651 124.255 126.947 124.065C121.816 122.678 116.246 124.905 113.62 129.679C110.641 135.099 112.519 141.874 117.879 145.043L137.72 156.778L104.331 162.517C100.312 163.207 96.1769 162.372 92.7554 160.179L59.5496 138.907C55.0955 136.051 49.1694 137.043 45.9138 141.188C45.0948 142.229 44.4907 143.419 44.1356 144.689C43.0917 148.45 44.326 152.63 47.5986 155.221Z" fill="#FFCBBE"/>
<path d="M101.059 182.522C123.924 185.453 139.688 172.221 149.224 159.772C153.953 153.6 152.359 144.77 145.758 140.595C122.732 126.03 116.777 126.565 113.621 129.679C116.247 124.905 121.817 122.678 126.947 124.065C127.651 124.255 128.335 124.509 128.991 124.826L141.265 130.742L160.61 140.065L160.612 140.069L165.132 142.245C170.177 144.675 172.958 149.804 172.618 154.976L184.276 158.006C184.276 158.006 179.424 181.946 171.457 190.031L156.627 184.617L100.968 191.302C98.8287 191.56 96.6588 191.392 94.586 190.81C92.5132 190.228 90.5792 189.243 88.898 187.912L47.6013 155.221C61.872 151.401 85.6589 180.197 101.059 182.522Z" fill="#EAAC9D"/>
<path d="M197.994 180.733C203.52 165.29 201.708 150.578 193.945 147.873C186.183 145.168 175.411 155.494 169.885 170.937C164.359 186.38 166.172 201.091 173.934 203.796C181.696 206.501 192.468 196.176 197.994 180.733Z" fill="#3B66C1"/>
<path d="M166.931 192.193C173.036 195.956 179.66 198.265 186.805 199.125C188.222 195.76 189.59 192.376 190.91 188.974C183.466 188.067 176.555 185.681 170.174 181.814C169.044 185.259 167.962 188.719 166.931 192.193Z" fill="#26457D"/>
<path d="M179.596 189.967C181.277 189.967 182.641 188.621 182.641 186.962C182.641 185.302 181.277 183.957 179.596 183.957C177.914 183.957 176.551 185.302 176.551 186.962C176.551 188.621 177.914 189.967 179.596 189.967Z" fill="#454545"/>
</svg>
