<svg width="21" height="19" viewBox="0 0 21 19" fill="none" xmlns="http://www.w3.org/2000/svg">
<path d="M10.6888 0.368343C10.6888 0.441195 10.6672 0.512411 10.6268 0.572984C10.5863 0.633558 10.5288 0.680768 10.4614 0.708647C10.3941 0.736526 10.3201 0.743821 10.2486 0.729608C10.1772 0.715395 10.1115 0.680315 10.06 0.628801C10.0085 0.577287 9.97344 0.511656 9.95923 0.440204C9.94501 0.368753 9.95231 0.294689 9.98019 0.227383C10.0081 0.160077 10.0553 0.10255 10.1158 0.0620758C10.1764 0.0216018 10.2476 0 10.3205 0C10.4182 0 10.5119 0.0388078 10.5809 0.107886C10.65 0.176963 10.6888 0.270653 10.6888 0.368343Z" fill="#F3EB39"/>
<path d="M0 11.7941C0 11.8425 0.00952871 11.8904 0.0280397 11.9351C0.0465507 11.9798 0.0736793 12.0204 0.107883 12.0546C0.142087 12.0888 0.182694 12.1159 0.227383 12.1345C0.272073 12.153 0.319972 12.1625 0.368343 12.1625H20.2702C20.3186 12.1625 20.3665 12.153 20.4112 12.1345C20.4559 12.1159 20.4965 12.0888 20.5307 12.0546C20.5649 12.0204 20.592 11.9798 20.6106 11.9351C20.6291 11.8904 20.6386 11.8425 20.6386 11.7941V10.6885H0V11.7941Z" fill="#F3EB39"/>
<path d="M10.3205 1.47461C8.03911 1.47741 5.84682 2.3605 4.20052 3.93983C2.55421 5.51917 1.58089 7.67291 1.4834 9.95219H19.1569C19.0594 7.67302 18.0862 5.51937 16.44 3.94005C14.7939 2.36073 12.6017 1.47757 10.3205 1.47461ZM14.1644 4.029C13.0071 3.32168 11.6768 2.948 10.3205 2.94925V2.21193C11.8126 2.21071 13.2761 2.622 14.5492 3.40035L14.1644 4.029ZM15.5803 5.15551C15.3617 4.93408 15.1296 4.72646 14.8853 4.53382L15.3421 3.95571C15.6112 4.16735 15.8667 4.39567 16.1072 4.63933L15.5803 5.15551Z" fill="#F3EB39"/>
<path d="M0 14.3749H2.21132V18.7975H0V14.3749Z" fill="#F3EB39"/>
<path d="M6.11208 18.4521L10.5057 18.9683C11.5307 19.0868 12.5666 18.8733 13.4613 18.3592L19.9588 14.6088C20.0441 14.5612 20.1192 14.4971 20.1796 14.4202C20.2399 14.3433 20.2844 14.2552 20.3104 14.161C20.3364 14.0667 20.3434 13.9683 20.331 13.8713C20.3186 13.7744 20.2871 13.6808 20.2382 13.5962C20.1893 13.5115 20.1241 13.4374 20.0463 13.3782C19.9685 13.319 19.8797 13.2758 19.7851 13.2512C19.6905 13.2267 19.5919 13.2211 19.4952 13.235C19.3984 13.2488 19.3054 13.2818 19.2214 13.3319L15.8331 15.2906C15.7909 15.648 15.6191 15.9777 15.3503 16.217C15.0814 16.4564 14.7342 16.5889 14.3742 16.5895H8.84528V15.8522H14.3742C14.5698 15.8522 14.7573 15.7745 14.8956 15.6363C15.0339 15.498 15.1115 15.3104 15.1115 15.1149C15.1115 14.9194 15.0339 14.7318 14.8956 14.5936C14.7573 14.4553 14.5698 14.3776 14.3742 14.3776H9.95158C9.91206 14.3776 9.8728 14.3712 9.83532 14.3586L8.41818 13.8861C7.92925 13.7231 7.41722 13.6401 6.90184 13.6403H6.58594C5.71789 13.6405 4.86622 13.8766 4.1219 14.3233L3.50462 14.6916C3.44751 14.7265 3.382 14.7453 3.31507 14.7459H2.948V18.4319H5.72353C5.85317 18.4319 5.9827 18.4395 6.11146 18.4546L6.11208 18.4521Z" fill="#F3EB39"/>
</svg>
