<svg width="20" height="20" viewBox="0 0 20 20" fill="none" xmlns="http://www.w3.org/2000/svg">
<path d="M7.135 18.773V15.716C7.13539 15.5296 7.17252 15.3451 7.24426 15.173C7.316 15.0009 7.42094 14.8447 7.55309 14.7132C7.68524 14.5817 7.84201 14.4775 8.01444 14.4066C8.18686 14.3357 8.37157 14.2995 8.558 14.3H11.432C11.8091 14.2997 12.1711 14.4486 12.439 14.714C12.5711 14.8449 12.676 15.0007 12.7475 15.1723C12.8191 15.344 12.856 15.5281 12.856 15.714V18.772C12.8549 18.9329 12.8858 19.0925 12.9469 19.2413C13.008 19.3902 13.0981 19.5254 13.212 19.639C13.3264 19.7533 13.4622 19.8439 13.6117 19.9057C13.7611 19.9675 13.9213 19.9992 14.083 19.999H16.044C16.9585 20.0017 17.8368 19.6421 18.487 18.999C18.8074 18.6824 19.0619 18.3054 19.2357 17.8899C19.4096 17.4744 19.4994 17.0285 19.5 16.578V7.86704C19.4988 7.50367 19.4175 7.14503 19.262 6.81664C19.1064 6.48825 18.8804 6.19817 18.6 5.96704L11.934 0.67604C11.3702 0.226894 10.6675 -0.0117245 9.94673 0.00123372C9.226 0.0141919 8.53231 0.277916 7.985 0.74704L1.467 5.96504C1.17411 6.18983 0.935241 6.47732 0.767915 6.80643C0.600589 7.13555 0.509046 7.49794 0.5 7.86704L0.5 16.567C0.501442 17.0194 0.591986 17.467 0.766459 17.8844C0.940933 18.3018 1.19592 18.6807 1.51685 18.9995C1.83778 19.3183 2.21838 19.5707 2.63689 19.7424C3.05541 19.9141 3.50364 20.0016 3.956 20H5.872C6.19711 20.0014 6.50954 19.8741 6.74111 19.6459C6.97268 19.4177 7.10457 19.1071 7.108 18.782L7.135 18.773Z" fill="#F3EB39"/>
</svg>
