<svg width="30" height="30" viewBox="0 0 30 30" fill="none" xmlns="http://www.w3.org/2000/svg">
<path d="M3.91304 4.28571V0H6.52174V4.28571H10.4348V7.14286H6.52174V11.4286H3.91304V7.14286H0V4.28571H3.91304ZM7.82609 12.8571V8.57143H11.7391V4.28571H20.8696L23.2565 7.14286H27.3913C28.0825 7.14512 28.7449 7.44686 29.2337 7.98219C29.7224 8.51752 29.9979 9.24293 30 10V27.1429C29.9979 27.8999 29.7224 28.6253 29.2337 29.1607C28.7449 29.696 28.0825 29.9977 27.3913 30H6.52174C5.83051 29.9977 5.16817 29.696 4.67939 29.1607C4.19062 28.6253 3.91511 27.8999 3.91304 27.1429V12.8571H7.82609ZM16.9565 25.7143C18.2464 25.7143 19.5073 25.2954 20.5798 24.5105C21.6523 23.7256 22.4882 22.6101 22.9818 21.3049C23.4754 19.9997 23.6046 18.5635 23.3529 17.1779C23.1013 15.7923 22.4802 14.5196 21.5681 13.5207C20.656 12.5217 19.4939 11.8414 18.2289 11.5658C16.9638 11.2902 15.6525 11.4317 14.4608 11.9723C13.2691 12.5129 12.2505 13.4284 11.5339 14.6031C10.8173 15.7777 10.4348 17.1587 10.4348 18.5714C10.4348 20.4658 11.1219 22.2826 12.345 23.6222C13.568 24.9617 15.2268 25.7143 16.9565 25.7143ZM12.7826 18.5714C12.7826 19.4756 13.0274 20.3594 13.486 21.1112C13.9447 21.8629 14.5966 22.4489 15.3592 22.7949C16.1219 23.1409 16.9612 23.2314 17.7708 23.055C18.5805 22.8786 19.3242 22.4432 19.9079 21.8039C20.4917 21.1646 20.8892 20.35 21.0502 19.4633C21.2113 18.5765 21.1286 17.6573 20.8127 16.822C20.4968 15.9867 19.9618 15.2727 19.2754 14.7704C18.589 14.2681 17.782 14 16.9565 14C15.8495 14 14.7879 14.4816 14.0051 15.3389C13.2224 16.1962 12.7826 17.359 12.7826 18.5714Z" fill="white"/>
</svg>
