<svg width="24" height="24" viewBox="0 0 24 24" fill="none" xmlns="http://www.w3.org/2000/svg">
<path d="M11.545 21.976C10.6258 21.8663 9.78781 21.3962 9.21501 20.669C9.10022 20.5243 9.04726 20.3401 9.06768 20.1566C9.0881 19.973 9.18023 19.8049 9.32401 19.689C9.39454 19.632 9.47572 19.5896 9.56282 19.5642C9.64991 19.5389 9.74118 19.5312 9.83129 19.5415C9.9214 19.5519 10.0085 19.58 10.0877 19.6244C10.1668 19.6688 10.2362 19.7285 10.292 19.8C10.4642 20.0181 10.6778 20.2002 10.9204 20.3357C11.163 20.4713 11.43 20.5577 11.706 20.59C11.9852 20.6231 12.2682 20.6008 12.5388 20.5244C12.8094 20.4481 13.0623 20.3191 13.283 20.145C13.4163 20.0453 13.536 19.9287 13.639 19.798C13.6953 19.7269 13.7652 19.6678 13.8446 19.6239C13.9239 19.5801 14.0112 19.5524 14.1014 19.5425C14.1915 19.5327 14.2827 19.5408 14.3697 19.5665C14.4566 19.5921 14.5377 19.6348 14.608 19.692C14.7515 19.8085 14.843 19.9771 14.8627 20.1609C14.8824 20.3446 14.8286 20.5287 14.713 20.673C14.5386 20.8921 14.337 21.088 14.113 21.256C13.3854 21.8274 12.4607 22.0868 11.542 21.977L11.545 21.976ZM7.51301 17.846C6.33405 17.7281 5.23771 17.1871 4.42701 16.323C3.81024 15.5751 3.48142 14.6312 3.50001 13.662V13.424C3.53746 12.6952 3.76875 11.9896 4.17001 11.38L4.23701 11.294C4.70479 10.7816 5.02573 10.1525 5.16601 9.473L5.15101 9.534V8.999L5.16301 8.399C5.17201 8.137 5.18601 7.899 5.20501 7.676C5.2895 6.8869 5.53019 6.12251 5.91304 5.42736C6.2959 4.73221 6.81327 4.1202 7.43501 3.627C8.71077 2.57597 10.3121 2.00084 11.965 2L12.037 2C13.6897 2.00123 15.2908 2.57591 16.567 3.626C17.1888 4.12165 17.7062 4.73552 18.0895 5.43218C18.4727 6.12885 18.7142 6.89451 18.8 7.685C18.817 7.885 18.825 8.064 18.828 8.332V9.005C18.828 9.115 18.828 9.213 18.828 9.313L18.837 9.513L18.882 9.7C19.0222 10.2222 19.2694 10.7095 19.608 11.131L19.758 11.308L19.82 11.387C20.2322 12.0023 20.4675 12.7191 20.5 13.459V13.859C20.47 14.7776 20.1295 15.6589 19.534 16.359C18.7338 17.2099 17.6501 17.7387 16.487 17.846C14.9948 18.0083 13.495 18.0897 11.994 18.09C10.497 18.0893 9.0012 18.0079 7.51301 17.846ZM5.28701 12.2L5.21001 12.329C5.04837 12.6199 4.94223 12.9383 4.89701 13.268L4.88001 13.459V13.678C4.86521 14.2993 5.06867 14.9062 5.45501 15.393C6.036 16.0017 6.81722 16.3803 7.65501 16.459C9.09709 16.6151 10.5465 16.6936 11.997 16.694C13.4525 16.6936 14.907 16.6148 16.354 16.458C17.1733 16.3838 17.9387 16.0179 18.511 15.427C18.9236 14.9295 19.1415 14.2991 19.124 13.653V13.49C19.1029 13.0175 18.9524 12.5599 18.689 12.167L18.704 12.192L18.566 12.03C18.0896 11.4432 17.7442 10.7613 17.553 10.03L17.488 9.754L17.475 9.661C17.464 9.514 17.459 9.395 17.456 9.261V8.361C17.456 8.133 17.448 7.979 17.434 7.814C17.2195 6.54981 16.5547 5.40596 15.5625 4.5937C14.5703 3.78145 13.3177 3.35567 12.036 3.395H11.965C10.6856 3.35458 9.43487 3.77936 8.4447 4.59062C7.45453 5.40188 6.79204 6.54461 6.58001 7.807C6.56902 7.929 6.56002 8.063 6.55102 8.229L6.53602 8.7L6.52902 9.619L6.51502 9.761C6.32901 10.6653 5.90825 11.5048 5.29501 12.195L5.28701 12.2Z" fill="black"/>
<circle cx="6.5" cy="3.5" r="3.5" fill="#E7464E"/>
</svg>
