<svg width="25" height="26" viewBox="0 0 25 26" fill="none" xmlns="http://www.w3.org/2000/svg">
<path d="M18.9694 26C18.1661 25.9855 17.3749 25.7788 16.6495 25.3939C15.9241 25.009 15.2814 24.4549 14.7651 23.7691C13.7 22.433 13.1028 20.714 13.0829 18.9272V14.7148C13.0836 14.5016 13.1394 14.2932 13.2435 14.1144C13.3477 13.9355 13.4958 13.7938 13.6702 13.7062L18.5461 11.2802C18.8673 11.1582 19.2156 11.1582 19.5368 11.2802L24.4127 13.7062C24.5876 13.7931 24.7362 13.9346 24.8404 14.1136C24.9447 14.2926 25.0001 14.5014 25 14.7148V18.9259C24.9801 20.7128 24.3829 22.4318 23.3178 23.7679C22.8014 24.4537 22.1588 25.0078 21.4334 25.3927C20.708 25.7776 19.9168 25.9843 19.1135 25.9988L18.9694 26ZM15.0709 15.4321V18.9259C15.0709 21.221 16.7398 23.7889 18.9738 23.7889H19.1079C21.3409 23.7889 23.0098 21.2222 23.0098 18.9259V15.4321L19.0403 13.4568L15.0709 15.4321ZM3.90514 20.3543C2.87224 20.356 1.88095 19.901 1.14882 19.0893C0.416685 18.2776 0.0035212 17.1754 0 16.0247L0 4.33087C0.00352092 3.18003 0.41665 2.07775 1.14875 1.26584C1.88085 0.453924 2.87214 -0.00131162 3.90514 2.83865e-06H21.0816C22.1146 -0.00131162 23.1059 0.453924 23.838 1.26584C24.5701 2.07775 24.9832 3.18003 24.9867 4.33087V10.0753C24.9867 10.3638 24.8838 10.6404 24.7008 10.8444C24.5177 11.0484 24.2693 11.163 24.0104 11.163C23.7515 11.163 23.5032 11.0484 23.3201 10.8444C23.137 10.6404 23.0341 10.3638 23.0341 10.0753V7.91111H1.95257V16.0247C1.95433 16.6001 2.1609 17.1513 2.52695 17.5572C2.893 17.9632 3.38864 18.1908 3.90514 18.1901H10.3967C10.6545 18.1901 10.9017 18.3042 11.0839 18.5072C11.2662 18.7103 11.3686 18.9857 11.3686 19.2728C11.3686 19.56 11.2662 19.8354 11.0839 20.0384C10.9017 20.2415 10.6545 20.3556 10.3967 20.3556L3.90514 20.3543ZM1.95257 4.33087V5.74568H23.0386V4.33087C23.0368 3.75545 22.8302 3.20431 22.4642 2.79835C22.0981 2.3924 21.6025 2.16478 21.086 2.16543H3.90514C3.38864 2.16478 2.893 2.3924 2.52695 2.79835C2.1609 3.20431 1.95433 3.75545 1.95257 4.33087Z" fill="black"/>
</svg>
