<svg width="27" height="28" viewBox="0 0 27 28" fill="none" xmlns="http://www.w3.org/2000/svg">
<path d="M13.5075 13.924C17.8623 13.924 21.3925 11.0309 21.3925 7.462C21.3925 3.89314 17.8623 1 13.5075 1C9.15278 1 5.62256 3.89314 5.62256 7.462C5.62256 11.0309 9.15278 13.924 13.5075 13.924Z" stroke="black" stroke-width="2" stroke-miterlimit="10" stroke-linecap="round" stroke-linejoin="round"/>
<path d="M1.00002 22.9111C0.998125 22.457 1.12227 22.0084 1.36308 21.5993C1.91117 20.99 2.60767 20.4807 3.40847 20.1035C4.20927 19.7264 5.09692 19.4896 6.01518 19.4083C7.28978 19.187 8.58185 19.0397 9.88176 18.9674C12.2893 18.7941 14.7107 18.7941 17.1182 18.9674C18.4181 19.0423 19.7101 19.1914 20.9847 19.4137C22.7522 19.7112 24.8827 20.305 25.6369 21.6047C25.8759 22.0167 26 22.4671 26 22.9233C26 23.3795 25.8759 23.83 25.6369 24.242C24.881 25.5417 22.7522 26.1354 20.9847 26.4208C19.7118 26.653 18.4193 26.8063 17.1182 26.8792C15.1603 27.013 13.1934 27.0356 11.2317 26.9469C10.7814 26.9591 10.3308 26.9342 9.88671 26.8725C8.5904 26.8004 7.30273 26.6472 6.03498 26.414C4.24775 26.1354 2.13375 25.5362 1.36308 24.242C1.12234 23.8261 0.998281 23.3714 1.00002 22.9111Z" stroke="black" stroke-width="2" stroke-miterlimit="10" stroke-linecap="round" stroke-linejoin="round"/>
</svg>
