<svg width="25" height="26" viewBox="0 0 25 26" fill="none" xmlns="http://www.w3.org/2000/svg">
<path d="M2.69046 6.36216C3.22297 6.36268 3.74366 6.17665 4.18669 5.8276C4.62972 5.47855 4.97519 4.98214 5.17943 4.40115C5.38367 3.82016 5.4375 3.18067 5.33413 2.56354C5.23075 1.9464 4.9748 1.37933 4.59864 0.934034C4.22249 0.488734 3.74301 0.185196 3.22084 0.0617974C2.69868 -0.0616011 2.15726 0.000681521 1.66505 0.24077C1.17284 0.480859 0.751942 0.887973 0.455569 1.41064C0.159196 1.9333 0.000658791 2.54805 9.15396e-07 3.17715C-0.000587484 4.02095 0.282505 4.83048 0.787033 5.42775C1.29156 6.02502 1.97622 6.36112 2.69046 6.36216ZM2.69046 1.47726C2.97549 1.47726 3.25411 1.57711 3.4911 1.76418C3.7281 1.95126 3.91281 2.21715 4.02188 2.52825C4.13096 2.83934 4.1595 3.18166 4.10389 3.51192C4.04828 3.84217 3.91103 4.14553 3.70949 4.38363C3.50794 4.62173 3.25116 4.78388 2.97161 4.84957C2.69206 4.91527 2.4023 4.88155 2.13897 4.75269C1.87564 4.62383 1.65057 4.40561 1.49221 4.12564C1.33386 3.84566 1.24934 3.5165 1.24934 3.17977C1.2492 2.95609 1.28636 2.73455 1.35872 2.52785C1.43108 2.32114 1.53721 2.1333 1.67104 1.97507C1.80488 1.81684 1.96379 1.69131 2.13871 1.60567C2.31363 1.52003 2.50112 1.47726 2.69046 1.47726Z" fill="black"/>
<path d="M2.69046 16.1753C3.22277 16.1753 3.74312 15.9887 4.18566 15.6392C4.6282 15.2898 4.97304 14.793 5.17655 14.2119C5.38005 13.6308 5.43307 12.9915 5.3289 12.3748C5.22473 11.7581 4.96804 11.1918 4.59133 10.7475C4.21462 10.3031 3.73481 10.0008 3.21262 9.8788C2.69043 9.75675 2.14933 9.82043 1.65779 10.0618C1.16625 10.3032 0.746368 10.7114 0.451271 11.2348C0.156173 11.7582 -0.00087366 12.3732 3.65574e-06 13.0021C0.00205564 13.8438 0.286314 14.6503 0.790555 15.245C1.2948 15.8398 1.97795 16.1742 2.69046 16.1753ZM2.69046 11.2956C2.97549 11.2956 3.25412 11.3955 3.49111 11.5825C3.7281 11.7696 3.91281 12.0355 4.02188 12.3466C4.13096 12.6577 4.1595 13 4.10389 13.3303C4.04829 13.6605 3.91103 13.9639 3.70949 14.202C3.50794 14.4401 3.25116 14.6022 2.97161 14.6679C2.69206 14.7336 2.4023 14.6999 2.13897 14.571C1.87564 14.4422 1.65057 14.224 1.49222 13.944C1.33386 13.664 1.24934 13.3349 1.24934 12.9981C1.25052 12.5475 1.40287 12.1158 1.673 11.7977C1.94314 11.4795 2.30902 11.3008 2.69046 11.3009V11.2956Z" fill="black"/>
<path d="M2.69046 25.9995C3.22277 25.9995 3.74312 25.813 4.18566 25.4635C4.6282 25.114 4.97304 24.6173 5.17655 24.0362C5.38005 23.4551 5.43307 22.8157 5.3289 22.199C5.22473 21.5823 4.96804 21.016 4.59133 20.5717C4.21462 20.1274 3.73481 19.8251 3.21262 19.703C2.69043 19.581 2.14933 19.6447 1.65779 19.8861C1.16625 20.1274 0.746368 20.5356 0.451271 21.059C0.156173 21.5824 -0.00087366 22.1974 3.65574e-06 22.8263C0.00205564 23.668 0.286314 24.4746 0.790556 25.0693C1.2948 25.664 1.97795 25.9985 2.69046 25.9995ZM2.69046 21.1146C2.97549 21.1146 3.25412 21.2145 3.49111 21.4015C3.7281 21.5886 3.91281 21.8545 4.02188 22.1656C4.13096 22.4767 4.1595 22.819 4.10389 23.1492C4.04829 23.4795 3.91103 23.7829 3.70949 24.021C3.50794 24.2591 3.25116 24.4212 2.97161 24.4869C2.69206 24.5526 2.4023 24.5189 2.13897 24.3901C1.87564 24.2612 1.65057 24.043 1.49222 23.763C1.33386 23.483 1.24934 23.1539 1.24934 22.8171C1.25052 22.3665 1.40287 21.9348 1.673 21.6166C1.94314 21.2985 2.30902 21.1199 2.69046 21.1199V21.1146Z" fill="black"/>
<path d="M8.97956 3.91935H24.3718C24.5384 3.91935 24.6981 3.84118 24.8159 3.70205C24.9336 3.56292 24.9998 3.37421 24.9998 3.17745C24.9998 2.98068 24.9336 2.79198 24.8159 2.65285C24.6981 2.51371 24.5384 2.43555 24.3718 2.43555H8.97956C8.813 2.43555 8.65327 2.51371 8.5355 2.65285C8.41773 2.79198 8.35156 2.98068 8.35156 3.17745C8.35156 3.37421 8.41773 3.56292 8.5355 3.70205C8.65327 3.84118 8.813 3.91935 8.97956 3.91935Z" fill="black"/>
<path d="M8.97956 13.7445H24.3718C24.5384 13.7445 24.6981 13.6664 24.8159 13.5272C24.9336 13.3881 24.9998 13.1994 24.9998 13.0026C24.9998 12.8059 24.9336 12.6172 24.8159 12.478C24.6981 12.3389 24.5384 12.2607 24.3718 12.2607H8.97956C8.813 12.2607 8.65327 12.3389 8.5355 12.478C8.41773 12.6172 8.35156 12.8059 8.35156 13.0026C8.35156 13.1994 8.41773 13.3881 8.5355 13.5272C8.65327 13.6664 8.813 13.7445 8.97956 13.7445Z" fill="black"/>
<path d="M8.97956 23.5629H24.3718C24.5384 23.5629 24.6981 23.4847 24.8159 23.3456C24.9336 23.2065 24.9998 23.0178 24.9998 22.821C24.9998 22.6242 24.9336 22.4355 24.8159 22.2964C24.6981 22.1573 24.5384 22.0791 24.3718 22.0791H8.97956C8.813 22.0791 8.65327 22.1573 8.5355 22.2964C8.41773 22.4355 8.35156 22.6242 8.35156 22.821C8.35156 23.0178 8.41773 23.2065 8.5355 23.3456C8.65327 23.4847 8.813 23.5629 8.97956 23.5629Z" fill="black"/>
</svg>
