<svg width="25" height="25" viewBox="0 0 25 25" fill="none" xmlns="http://www.w3.org/2000/svg">
<path d="M18.0564 7.91493C18.0018 7.67998 17.8835 7.46464 17.7145 7.29257C17.5455 7.1205 17.3323 6.99835 17.0984 6.93955C16.8645 6.88076 16.6189 6.8876 16.3886 6.95931L16.3879 6.95951L9.99017 8.95826C9.98989 8.95835 9.98961 8.95844 9.98933 8.95852C9.74381 9.03479 9.52052 9.16963 9.33872 9.35143C9.1568 9.53334 9.0219 9.75681 8.94567 10.0025C8.94563 10.0026 8.94559 10.0028 8.94555 10.0029L6.94668 16.4138L6.94666 16.4138C6.8756 16.6418 6.86825 16.8848 6.92538 17.1167C6.98252 17.3485 7.10197 17.5603 7.27081 17.7292C7.43966 17.898 7.65147 18.0175 7.88329 18.0746L8.06276 17.3464L7.88331 18.0746C8.11515 18.1317 8.3582 18.1244 8.58616 18.0533L8.58737 18.053L14.9619 16.0542C15.2101 15.9802 15.4359 15.8455 15.6191 15.6623C15.8021 15.4793 15.9367 15.2537 16.0108 15.0058L18.0259 8.61809C18.0999 8.39089 18.1105 8.14775 18.0564 7.91493ZM18.0564 7.91493L17.3375 8.08193L18.0564 7.91491C18.0564 7.91492 18.0564 7.91492 18.0564 7.91493ZM19.0279 2.73023C17.0958 1.43918 14.8241 0.75006 12.5003 0.75L19.0279 2.73023ZM19.0279 2.73023C20.9602 4.02134 22.4662 5.85644 23.3556 8.00347M19.0279 2.73023L23.3556 8.00347M23.3556 8.00347C24.2449 10.1505 24.4776 12.513 24.0242 14.7923M23.3556 8.00347L24.0242 14.7923M24.0242 14.7923C23.5708 17.0716 22.4518 19.1652 20.8085 20.8085M24.0242 14.7923L20.8085 20.8085M20.8085 20.8085C19.1652 22.4518 17.0716 23.5708 14.7923 24.0242M20.8085 20.8085L14.7923 24.0242M14.7923 24.0242C12.513 24.4776 10.1505 24.2449 8.00347 23.3556M14.7923 24.0242L8.00347 23.3556M8.00347 23.3556C5.85644 22.4662 4.02134 20.9602 2.73023 19.0279M8.00347 23.3556L2.73023 19.0279M2.73023 19.0279C1.43918 17.0958 0.75006 14.8241 0.75 12.5003L2.73023 19.0279ZM0.75 12.5C0.751347 9.38412 1.98972 6.39624 4.19298 4.19298C6.39624 1.98972 9.38412 0.751347 12.5 0.75L0.75 12.5Z" fill="white" stroke="black" stroke-width="1.5"/>
</svg>
