<svg width="24" height="24" viewBox="0 0 24 24" fill="none" xmlns="http://www.w3.org/2000/svg">
<path d="M7.42196 19.8199C7.5733 19.8197 7.72131 19.8644 7.84724 19.9484C7.97318 20.0323 8.07138 20.1517 8.12944 20.2915C8.18749 20.4313 8.20279 20.5851 8.17338 20.7336C8.14398 20.882 8.0712 21.0184 7.96425 21.1255C7.8573 21.2326 7.72099 21.3056 7.57257 21.3352C7.42415 21.3648 7.27028 21.3497 7.13044 21.2918C6.99059 21.2339 6.87106 21.1359 6.78695 21.0101C6.70285 20.8842 6.65796 20.7363 6.65796 20.5849C6.65822 20.3823 6.73877 20.188 6.88196 20.0447C7.02515 19.9013 7.21932 19.8205 7.42196 19.8199Z" stroke="black" stroke-width="1.5" stroke-miterlimit="10" stroke-linecap="round" stroke-linejoin="round"/>
<path d="M18.6749 19.8199C18.8262 19.8199 18.9741 19.8648 19.0999 19.9489C19.2257 20.0329 19.3238 20.1524 19.3817 20.2922C19.4396 20.432 19.4547 20.5858 19.4252 20.7342C19.3957 20.8826 19.3228 21.0189 19.2158 21.1259C19.1089 21.2329 18.9726 21.3057 18.8242 21.3352C18.6758 21.3648 18.5219 21.3496 18.3822 21.2917C18.2424 21.2338 18.1229 21.1358 18.0388 21.01C17.9548 20.8842 17.9099 20.7362 17.9099 20.5849C17.9102 20.3821 17.9909 20.1877 18.1343 20.0443C18.2777 19.9009 18.4721 19.8202 18.6749 19.8199Z" stroke="black" stroke-width="1.5" stroke-miterlimit="10" stroke-linecap="round" stroke-linejoin="round"/>
<path d="M2.75 3.25L4.83 3.61L5.793 15.083C5.82999 15.5345 6.03584 15.9554 6.36948 16.2618C6.70312 16.5682 7.14002 16.7375 7.593 16.736H18.502C18.9359 16.7367 19.3555 16.5807 19.6835 16.2966C20.0114 16.0125 20.2258 15.6196 20.287 15.19L21.236 8.632C21.2635 8.44167 21.2498 8.24764 21.1958 8.06308C21.1417 7.87852 21.0486 7.70775 20.9227 7.56234C20.7969 7.41694 20.6412 7.30031 20.4663 7.22036C20.2914 7.14042 20.1013 7.09903 19.909 7.099H5.164" stroke="black" stroke-width="1.5" stroke-miterlimit="10" stroke-linecap="round" stroke-linejoin="round"/>
<path d="M14.125 10.795H16.898" stroke="black" stroke-width="1.5" stroke-miterlimit="10" stroke-linecap="round" stroke-linejoin="round"/>
</svg>
