<svg width="24" height="24" viewBox="0 0 24 24" fill="none" xmlns="http://www.w3.org/2000/svg">
<g clip-path="url(#clip0_193_2442)">
<path d="M11.7611 21.854C9.58809 20.5162 7.56865 18.9438 5.73909 17.165C4.44967 15.8806 3.46957 14.3195 2.87309 12.6C1.80009 9.24999 3.05409 5.42099 6.57109 4.28799C7.48287 3.99385 8.452 3.92316 9.39681 4.08187C10.3416 4.24059 11.2345 4.62406 12.0001 5.19999C12.7651 4.62603 13.6566 4.2437 14.5997 4.08503C15.5429 3.92636 16.5103 3.99595 17.4211 4.28799C20.9381 5.42099 22.2001 9.24999 21.1281 12.6C20.5323 14.3212 19.5521 15.8841 18.2621 17.17C16.4323 18.9471 14.4128 20.5178 12.2401 21.854L12.0051 22L11.7611 21.854Z" stroke="black" stroke-width="1.5" stroke-miterlimit="10" stroke-linecap="round" stroke-linejoin="round"/>
</g>
<defs>
<clipPath id="clip0_193_2442">
<rect width="24" height="24" fill="white"/>
</clipPath>
</defs>
</svg>
