<svg width="46" height="52" viewBox="0 0 46 52" fill="none" xmlns="http://www.w3.org/2000/svg">
<path d="M11.7921 15.44V24.098C11.7921 25.2244 12.4194 26.1375 13.1933 26.1375H41.5916C42.7997 26.1375 43.894 25.4247 44.686 24.272C45.478 23.1192 45.9677 21.5265 45.9677 19.7681C45.9677 16.2514 44.0089 13.4004 41.5916 13.4004H13.1933C12.4194 13.4005 11.7921 14.3136 11.7921 15.44Z" fill="url(#paint0_linear_622_7108)"/>
<path d="M13.1933 13.4014H24.2265C23.4527 13.4014 22.8253 14.3144 22.8253 15.4408V24.0989C22.8253 25.2253 23.4527 26.1383 24.2265 26.1383H13.1933C12.4194 26.1383 11.7921 25.2253 11.7921 24.0989V15.4408C11.7921 14.3144 12.4194 13.4014 13.1933 13.4014Z" fill="url(#paint1_linear_622_7108)"/>
<path d="M13.1933 26.1384H23.9538L23.9188 26.0875C23.6604 26.0026 23.4238 25.8128 23.2364 25.5401C23.0491 25.2674 22.9187 24.9231 22.8603 24.5469L15.2028 13.4014H13.1933C12.4194 13.4014 11.7921 14.3144 11.7921 15.4408V24.0989C11.7921 25.2253 12.4194 26.1384 13.1933 26.1384Z" fill="url(#paint2_linear_622_7108)"/>
<path d="M12.2933 24.5953H41.2985C43.1294 24.5953 44.6138 22.4349 44.6138 19.7698C44.6138 17.1048 43.1295 14.9443 41.2985 14.9443H12.107C11.3954 14.9443 10.8186 15.7839 10.8186 16.8195V22.4487C10.8185 23.6343 11.4788 24.5953 12.2933 24.5953Z" fill="url(#paint3_linear_622_7108)"/>
<path d="M44.2293 22.0244C43.673 23.5526 42.5695 24.5944 41.2985 24.5944H12.2933C11.4788 24.5944 10.8186 23.6334 10.8186 22.4479V22.0244H44.2293Z" fill="url(#paint4_linear_622_7108)"/>
<path d="M41.2985 24.595H12.2933C11.4788 24.595 10.8186 23.634 10.8186 22.4486V19.7695H44.6137C44.6137 22.4345 43.1294 24.595 41.2985 24.595Z" fill="url(#paint5_linear_622_7108)"/>
<path d="M44.2455 17.5605C44.488 18.2435 44.6142 19.0012 44.6137 19.7699C44.6137 22.4349 43.1294 24.5953 41.2984 24.5953H12.2933C11.4788 24.5953 10.8186 23.6344 10.8186 22.4489V17.5605H44.2455Z" fill="url(#paint6_linear_622_7108)"/>
<path d="M12.0831 14.9443H22.8689C22.8404 15.1066 22.8258 15.2733 22.8253 15.4407V24.0988C22.8253 24.2702 22.8415 24.4359 22.8688 24.595H12.2695C11.455 24.595 10.7948 23.634 10.7948 22.4486V16.8194C10.7947 15.7839 11.3715 14.9443 12.0831 14.9443Z" fill="url(#paint7_linear_622_7108)"/>
<path d="M44.7915 40.7832V49.6723C44.7915 50.7066 44.2281 51.5493 43.5231 51.585C43.5153 51.585 43.5075 51.5865 43.4986 51.5865C43.4908 51.5865 43.483 51.5881 43.4752 51.5881H13.7643C12.6165 51.5881 11.6193 50.6513 11.1151 49.2729C10.8829 48.6405 10.7618 47.9344 10.7626 47.2174V43.2363C10.7626 42.4943 10.8898 41.7946 11.1151 41.1824C11.1813 40.999 11.257 40.8231 11.3415 40.6564C11.8881 39.5719 12.7693 38.8672 13.7644 38.8672H43.4753C44.2025 38.8673 44.7915 39.7246 44.7915 40.7832Z" fill="url(#paint8_linear_622_7108)"/>
<path d="M44.7914 41.1827V49.273H11.1149C10.8828 48.6406 10.7617 47.9345 10.7625 47.2176V43.2365C10.7625 42.4945 10.8896 41.7948 11.1149 41.1826L44.7914 41.1827Z" fill="url(#paint9_linear_622_7108)"/>
<path d="M13.4633 49.2729C13.2311 48.6405 13.1101 47.9344 13.1108 47.2174V43.2363C13.1108 42.4943 13.238 41.7946 13.4633 41.1824C13.5295 40.999 13.6052 40.8231 13.6898 40.6564C14.2363 39.5719 15.1176 38.8672 16.1126 38.8672H15.1086C14.1136 38.8672 13.2324 39.5718 12.6858 40.6564C12.6012 40.8231 12.5255 40.999 12.4593 41.1824C12.2271 41.8142 12.106 42.5198 12.1068 43.2363V47.2174C12.1068 47.9594 12.234 48.6591 12.4593 49.2729C12.9635 50.6513 13.9608 51.5881 15.1085 51.5881H16.1125C14.9647 51.5881 13.9675 50.6513 13.4633 49.2729Z" fill="url(#paint10_linear_622_7108)"/>
<path d="M19.0686 49.2729C18.8365 48.6405 18.7154 47.9344 18.7161 47.2174V43.2363C18.7161 42.4943 18.8433 41.7946 19.0686 41.1824C19.1348 40.999 19.2105 40.8231 19.2951 40.6564C19.8417 39.5719 20.7229 38.8672 21.718 38.8672H20.714C19.7189 38.8672 18.8377 39.5718 18.2911 40.6564C18.2066 40.8231 18.1309 40.999 18.0646 41.1824C17.8324 41.8142 17.7113 42.5198 17.7122 43.2363V47.2174C17.7122 47.9594 17.8393 48.6591 18.0646 49.2729C18.5688 50.6513 19.5661 51.5881 20.7139 51.5881H21.7179C20.57 51.5881 19.5728 50.6513 19.0686 49.2729Z" fill="url(#paint11_linear_622_7108)"/>
<path d="M43.5276 42.5723V51.4614C43.5276 51.5037 43.5254 51.5425 43.5231 51.5848C43.5153 51.5848 43.5075 51.5864 43.4986 51.5864C43.4908 51.5864 43.483 51.588 43.4752 51.588H13.7643C12.6165 51.588 11.6193 50.6511 11.1151 49.2727C10.8829 48.6403 10.7618 47.9342 10.7626 47.2172V43.2362C10.7626 42.4942 10.8898 41.7945 11.1151 41.1823C11.1813 40.9988 11.257 40.823 11.3415 40.6562H42.2115C42.5629 40.6562 42.8808 40.8559 43.1162 41.1823C43.2465 41.3607 43.3502 41.5761 43.421 41.8152C43.4918 42.0542 43.5281 42.3119 43.5276 42.5723Z" fill="url(#paint12_linear_622_7108)"/>
<path d="M45.0026 40.8989V49.557C45.0026 50.6834 44.3753 51.5964 43.6014 51.5964H23.7924C22.5843 51.5964 21.4901 50.8837 20.6981 49.731C19.9061 48.5782 19.4164 46.9855 19.4164 45.2271C19.4164 41.7104 21.3752 38.8594 23.7924 38.8594H43.6014C44.3753 38.8595 45.0026 39.7726 45.0026 40.8989Z" fill="url(#paint13_linear_622_7108)"/>
<path d="M44.5015 50.0533H24.0857C22.2547 50.0533 20.7704 47.8929 20.7704 45.2278C20.7704 42.5628 22.2547 40.4023 24.0857 40.4023H44.6879C45.3994 40.4023 45.9762 41.2419 45.9762 42.2776V47.9067C45.9763 49.0922 45.316 50.0533 44.5015 50.0533Z" fill="url(#paint14_linear_622_7108)"/>
<path d="M21.1549 47.4834C21.7112 49.0118 22.8147 50.0533 24.0857 50.0533H44.5015C45.316 50.0533 45.9762 49.0924 45.9762 47.9069V47.4834H21.1549Z" fill="url(#paint15_linear_622_7108)"/>
<path d="M24.0858 50.0529H44.5015C45.316 50.0529 45.9762 49.0919 45.9762 47.9064V45.2275H20.7705C20.7705 47.8924 22.2548 50.0529 24.0858 50.0529Z" fill="url(#paint16_linear_622_7108)"/>
<path d="M21.1387 43.0186C20.8963 43.7015 20.77 44.4592 20.7705 45.2279C20.7705 47.8929 22.2548 50.0533 24.0858 50.0533H44.5016C45.3161 50.0533 45.9763 49.0924 45.9763 47.9069V43.0186H21.1387Z" fill="url(#paint17_linear_622_7108)"/>
<path d="M10.7625 36.9427V28.0536C10.7625 26.9955 11.3518 26.1377 12.0788 26.1377H44.6836C45.4105 26.1377 45.9999 26.9955 45.9999 28.0536V36.9427C45.9999 38.0008 45.4105 38.8586 44.6836 38.8586H12.0788C11.3518 38.8588 10.7625 38.001 10.7625 36.9427Z" fill="url(#paint18_linear_622_7108)"/>
<path d="M10.7625 36.5438V28.4531H46V36.5438H10.7625Z" fill="url(#paint19_linear_622_7108)"/>
<path d="M40.4607 38.8588V26.1377H41.6161V38.8588H40.4607Z" fill="url(#paint20_linear_622_7108)"/>
<path d="M37.6906 38.8588V26.1377H38.846V38.8588H37.6906Z" fill="url(#paint21_linear_622_7108)"/>
<path d="M17.9165 38.8588V26.1377H19.072V38.8588H17.9165Z" fill="url(#paint22_linear_622_7108)"/>
<path d="M15.1464 38.8588V26.1377H16.3018V38.8588H15.1464Z" fill="url(#paint23_linear_622_7108)"/>
<path d="M44.7361 29.8436C44.7361 28.7855 44.1467 27.9277 43.4197 27.9277H10.8149C10.7987 27.9277 10.7828 27.9304 10.7667 27.9313C10.7649 27.972 10.7625 28.0124 10.7625 28.0539V36.9431C10.7625 38.0013 11.3518 38.859 12.0788 38.859H44.6836C44.6998 38.859 44.7157 38.8564 44.7318 38.8555C44.7336 38.8148 44.7361 38.7744 44.7361 38.7329V29.8436Z" fill="url(#paint24_linear_622_7108)"/>
<path d="M11.8277 14.9899C11.8043 15.1378 11.7924 15.2891 11.7921 15.4408V24.0989C11.7921 24.2289 11.8014 24.3556 11.8173 24.4788C11.9667 24.5531 12.1264 24.5951 12.2932 24.5951H22.869C22.8662 24.579 22.8628 24.5631 22.8603 24.5468L16.2629 14.9443H12.1068C12.0129 14.9447 11.9193 14.96 11.8277 14.9899Z" fill="url(#paint25_linear_622_7108)"/>
<path d="M6.89712 51.938L0.985852 49.704C0.282143 49.4381 -0.140155 48.3923 0.0425818 47.368L8.23653 1.43491C8.41927 0.410658 9.13777 -0.203996 9.84148 0.0619778L15.7528 2.29597C16.4565 2.56195 16.8788 3.60773 16.696 4.63198L8.50207 50.565C8.31933 51.5892 7.60083 52.2039 6.89712 51.938Z" fill="url(#paint26_linear_622_7108)"/>
<path d="M6.63163 51.8374L1.25134 49.8042L10.1069 0.162109L15.4872 2.19538L6.63163 51.8374Z" fill="url(#paint27_linear_622_7108)"/>
<path d="M15.6347 10.5815L7.17517 7.38458L7.4656 5.75684L15.9251 8.95377L15.6347 10.5815Z" fill="url(#paint28_linear_622_7108)"/>
<path d="M9.27297 46.2436L0.813477 43.0467L1.10382 41.4189L9.56331 44.6159L9.27297 46.2436Z" fill="url(#paint29_linear_622_7108)"/>
<path d="M9.97289 42.3198L1.51331 39.1229L1.80374 37.4951L10.2632 40.6921L9.97289 42.3198Z" fill="url(#paint30_linear_622_7108)"/>
<path d="M10.7141 2.29244C10.0104 2.02646 9.29186 2.64125 9.10912 3.66537L0.915259 49.5988C0.9112 49.6217 0.908945 49.6446 0.905518 49.6675C0.932125 49.6803 0.958463 49.6939 0.985972 49.7043L6.89724 51.9383C7.60086 52.2043 8.31945 51.5895 8.50219 50.5654L16.6961 4.63211C16.7002 4.60914 16.7025 4.5863 16.7059 4.56332C16.6793 4.55059 16.6529 4.53694 16.6254 4.52657L10.7141 2.29244Z" fill="url(#paint31_linear_622_7108)"/>
<defs>
<linearGradient id="paint0_linear_622_7108" x1="30.9693" y1="11.4916" x2="21.172" y2="26.076" gradientUnits="userSpaceOnUse">
<stop stop-color="#92F37F"/>
<stop offset="1" stop-color="#4AB272"/>
</linearGradient>
<linearGradient id="paint1_linear_622_7108" x1="14.057" y1="19.7699" x2="28.9364" y2="19.7699" gradientUnits="userSpaceOnUse">
<stop stop-color="#4AB272" stop-opacity="0"/>
<stop offset="1" stop-color="#009245"/>
</linearGradient>
<linearGradient id="paint2_linear_622_7108" x1="24.14" y1="33.9151" x2="4.49014" y2="21.0794" gradientUnits="userSpaceOnUse">
<stop stop-color="#4AB272" stop-opacity="0"/>
<stop offset="1" stop-color="#009245"/>
</linearGradient>
<linearGradient id="paint3_linear_622_7108" x1="27.7161" y1="16.397" x2="27.7161" y2="24.4423" gradientUnits="userSpaceOnUse">
<stop stop-color="#F9F7FC"/>
<stop offset="1" stop-color="#F0DDFC"/>
</linearGradient>
<linearGradient id="paint4_linear_622_7108" x1="27.5853" y1="24.5576" x2="27.0129" y2="14.4327" gradientUnits="userSpaceOnUse">
<stop stop-color="#F0DDFC" stop-opacity="0"/>
<stop offset="0.289" stop-color="#C8B7E0" stop-opacity="0.289"/>
<stop offset="0.592" stop-color="#A595C8" stop-opacity="0.592"/>
<stop offset="0.84" stop-color="#8F81B8" stop-opacity="0.84"/>
<stop offset="1" stop-color="#8779B3"/>
</linearGradient>
<linearGradient id="paint5_linear_622_7108" x1="27.7161" y1="22.1334" x2="27.7161" y2="16.5049" gradientUnits="userSpaceOnUse">
<stop stop-color="#F0DDFC" stop-opacity="0"/>
<stop offset="0.289" stop-color="#C8B7E0" stop-opacity="0.289"/>
<stop offset="0.592" stop-color="#A595C8" stop-opacity="0.592"/>
<stop offset="0.84" stop-color="#8F81B8" stop-opacity="0.84"/>
<stop offset="1" stop-color="#8779B3"/>
</linearGradient>
<linearGradient id="paint6_linear_622_7108" x1="27.6815" y1="19.3734" x2="27.5299" y2="15.834" gradientUnits="userSpaceOnUse">
<stop stop-color="#F0DDFC" stop-opacity="0"/>
<stop offset="0.289" stop-color="#C8B7E0" stop-opacity="0.289"/>
<stop offset="0.592" stop-color="#A595C8" stop-opacity="0.592"/>
<stop offset="0.84" stop-color="#8F81B8" stop-opacity="0.84"/>
<stop offset="1" stop-color="#8779B3"/>
</linearGradient>
<linearGradient id="paint7_linear_622_7108" x1="13.9402" y1="19.7697" x2="34.9817" y2="19.7697" gradientUnits="userSpaceOnUse">
<stop stop-color="#F0DDFC" stop-opacity="0"/>
<stop offset="0.289" stop-color="#C8B7E0" stop-opacity="0.289"/>
<stop offset="0.592" stop-color="#A595C8" stop-opacity="0.592"/>
<stop offset="0.84" stop-color="#8F81B8" stop-opacity="0.84"/>
<stop offset="1" stop-color="#8779B3"/>
</linearGradient>
<linearGradient id="paint8_linear_622_7108" x1="27.777" y1="42.5464" x2="27.777" y2="51.4761" gradientUnits="userSpaceOnUse">
<stop stop-color="#FFDA45"/>
<stop offset="1" stop-color="#FFA425"/>
</linearGradient>
<linearGradient id="paint9_linear_622_7108" x1="27.777" y1="43.4396" x2="27.777" y2="47.4207" gradientUnits="userSpaceOnUse">
<stop stop-color="#FFDA45"/>
<stop offset="1" stop-color="#FFA425"/>
</linearGradient>
<linearGradient id="paint10_linear_622_7108" x1="14.1097" y1="45.4283" x2="14.1097" y2="48.5173" gradientUnits="userSpaceOnUse">
<stop stop-color="#FF7044"/>
<stop offset="1" stop-color="#F92814"/>
</linearGradient>
<linearGradient id="paint11_linear_622_7108" x1="19.7151" y1="45.4283" x2="19.7151" y2="48.5173" gradientUnits="userSpaceOnUse">
<stop stop-color="#FF7044"/>
<stop offset="1" stop-color="#F92814"/>
</linearGradient>
<linearGradient id="paint12_linear_622_7108" x1="27.1451" y1="46.6865" x2="27.1451" y2="38.7309" gradientUnits="userSpaceOnUse">
<stop stop-color="#FFDA45" stop-opacity="0"/>
<stop offset="1" stop-color="#FCEE21"/>
</linearGradient>
<linearGradient id="paint13_linear_622_7108" x1="30.603" y1="38.4735" x2="38.67" y2="50.4821" gradientUnits="userSpaceOnUse">
<stop stop-color="#FFDA45"/>
<stop offset="1" stop-color="#FFA425"/>
</linearGradient>
<linearGradient id="paint14_linear_622_7108" x1="33.3734" y1="41.8548" x2="33.3734" y2="49.9003" gradientUnits="userSpaceOnUse">
<stop stop-color="#F9F7FC"/>
<stop offset="1" stop-color="#F0DDFC"/>
</linearGradient>
<linearGradient id="paint15_linear_622_7108" x1="33.5082" y1="49.8661" x2="34.016" y2="40.8856" gradientUnits="userSpaceOnUse">
<stop stop-color="#F0DDFC" stop-opacity="0"/>
<stop offset="0.289" stop-color="#C8B7E0" stop-opacity="0.289"/>
<stop offset="0.592" stop-color="#A595C8" stop-opacity="0.592"/>
<stop offset="0.84" stop-color="#8F81B8" stop-opacity="0.84"/>
<stop offset="1" stop-color="#8779B3"/>
</linearGradient>
<linearGradient id="paint16_linear_622_7108" x1="33.3734" y1="47.5911" x2="33.3734" y2="41.9627" gradientUnits="userSpaceOnUse">
<stop stop-color="#F0DDFC" stop-opacity="0"/>
<stop offset="0.289" stop-color="#C8B7E0" stop-opacity="0.289"/>
<stop offset="0.592" stop-color="#A595C8" stop-opacity="0.592"/>
<stop offset="0.84" stop-color="#8F81B8" stop-opacity="0.84"/>
<stop offset="1" stop-color="#8779B3"/>
</linearGradient>
<linearGradient id="paint17_linear_622_7108" x1="33.4067" y1="44.9035" x2="33.5514" y2="41.52" gradientUnits="userSpaceOnUse">
<stop stop-color="#F0DDFC" stop-opacity="0"/>
<stop offset="0.289" stop-color="#C8B7E0" stop-opacity="0.289"/>
<stop offset="0.592" stop-color="#A595C8" stop-opacity="0.592"/>
<stop offset="0.84" stop-color="#8F81B8" stop-opacity="0.84"/>
<stop offset="1" stop-color="#8779B3"/>
</linearGradient>
<linearGradient id="paint18_linear_622_7108" x1="28.3813" y1="26.1377" x2="28.3813" y2="41.8858" gradientUnits="userSpaceOnUse">
<stop stop-color="#4A98F7"/>
<stop offset="1" stop-color="#0469BC"/>
</linearGradient>
<linearGradient id="paint19_linear_622_7108" x1="28.3813" y1="28.4531" x2="28.3813" y2="34.4047" gradientUnits="userSpaceOnUse">
<stop stop-color="#4A98F7"/>
<stop offset="1" stop-color="#0469BC"/>
</linearGradient>
<linearGradient id="paint20_linear_622_7108" x1="41.0384" y1="26.1377" x2="41.0384" y2="35.4954" gradientUnits="userSpaceOnUse">
<stop stop-color="#FFDA45"/>
<stop offset="1" stop-color="#FFA425"/>
</linearGradient>
<linearGradient id="paint21_linear_622_7108" x1="38.2683" y1="26.1377" x2="38.2683" y2="35.4954" gradientUnits="userSpaceOnUse">
<stop stop-color="#FFDA45"/>
<stop offset="1" stop-color="#FFA425"/>
</linearGradient>
<linearGradient id="paint22_linear_622_7108" x1="18.4943" y1="26.1377" x2="18.4943" y2="35.4954" gradientUnits="userSpaceOnUse">
<stop stop-color="#FFDA45"/>
<stop offset="1" stop-color="#FFA425"/>
</linearGradient>
<linearGradient id="paint23_linear_622_7108" x1="15.7242" y1="26.1377" x2="15.7242" y2="35.4954" gradientUnits="userSpaceOnUse">
<stop stop-color="#FFDA45"/>
<stop offset="1" stop-color="#FFA425"/>
</linearGradient>
<linearGradient id="paint24_linear_622_7108" x1="29.7705" y1="27.0836" x2="37.9817" y2="14.9842" gradientUnits="userSpaceOnUse">
<stop stop-color="#18CFFC" stop-opacity="0"/>
<stop offset="1" stop-color="#65E1DC"/>
</linearGradient>
<linearGradient id="paint25_linear_622_7108" x1="19.414" y1="25.0062" x2="6.37469" y2="18.9419" gradientUnits="userSpaceOnUse">
<stop stop-color="#F0DDFC" stop-opacity="0"/>
<stop offset="0.289" stop-color="#C8B7E0" stop-opacity="0.289"/>
<stop offset="0.592" stop-color="#A595C8" stop-opacity="0.592"/>
<stop offset="0.84" stop-color="#8F81B8" stop-opacity="0.84"/>
<stop offset="1" stop-color="#8779B3"/>
</linearGradient>
<linearGradient id="paint26_linear_622_7108" x1="4.14877" y1="24.4075" x2="14.9826" y2="26.3367" gradientUnits="userSpaceOnUse">
<stop stop-color="#FF7044"/>
<stop offset="1" stop-color="#F92814"/>
</linearGradient>
<linearGradient id="paint27_linear_622_7108" x1="5.68854" y1="24.9882" x2="9.78277" y2="25.7173" gradientUnits="userSpaceOnUse">
<stop stop-color="#FF7044"/>
<stop offset="1" stop-color="#F92814"/>
</linearGradient>
<linearGradient id="paint28_linear_622_7108" x1="7.32427" y1="6.57462" x2="13.7618" y2="7.72092" gradientUnits="userSpaceOnUse">
<stop stop-color="#F9F7FC"/>
<stop offset="1" stop-color="#F0DDFC"/>
</linearGradient>
<linearGradient id="paint29_linear_622_7108" x1="0.973252" y1="42.2409" x2="7.41073" y2="43.3872" gradientUnits="userSpaceOnUse">
<stop stop-color="#F9F7FC"/>
<stop offset="1" stop-color="#F0DDFC"/>
</linearGradient>
<linearGradient id="paint30_linear_622_7108" x1="1.67194" y1="38.3166" x2="8.10942" y2="39.4629" gradientUnits="userSpaceOnUse">
<stop stop-color="#F9F7FC"/>
<stop offset="1" stop-color="#F0DDFC"/>
</linearGradient>
<linearGradient id="paint31_linear_622_7108" x1="7.24513" y1="25.8479" x2="-0.423028" y2="22.9198" gradientUnits="userSpaceOnUse">
<stop stop-color="#FF7044" stop-opacity="0"/>
<stop offset="1" stop-color="#FFA425"/>
</linearGradient>
</defs>
</svg>
