<svg width="20" height="21" viewBox="0 0 20 21" fill="none" xmlns="http://www.w3.org/2000/svg">
<path fill-rule="evenodd" clip-rule="evenodd" d="M8.70577 6.06445C8.36222 6.06445 8.02639 6.16639 7.74074 6.35736C7.4551 6.54833 7.23245 6.81978 7.10098 7.13736C6.96951 7.45494 6.9351 7.80439 7.00213 8.14153C7.06915 8.47866 7.23461 8.78835 7.47753 9.03142C7.72045 9.27448 8.02994 9.44 8.36688 9.50706C8.70383 9.57413 9.05309 9.5397 9.37048 9.40816C9.68788 9.27661 9.95917 9.05385 10.15 8.76804C10.3409 8.48222 10.4428 8.1462 10.4428 7.80246C10.4425 7.34159 10.2594 6.89969 9.93373 6.57381C9.60803 6.24793 9.16637 6.06472 8.70577 6.06445Z" fill="#F3EB39"/>
<path fill-rule="evenodd" clip-rule="evenodd" d="M8.70474 11.2773C8.01785 11.2773 7.34637 11.0735 6.77524 10.6916C6.20411 10.3098 5.75897 9.76709 5.49611 9.13211C5.23324 8.49714 5.16446 7.79843 5.29847 7.12435C5.43247 6.45027 5.76325 5.83108 6.24896 5.34509C6.73466 4.85911 7.3535 4.52814 8.02719 4.39406C8.70089 4.25998 9.3992 4.32879 10.0338 4.59181C10.6684 4.85482 11.2108 5.30022 11.5924 5.87168C11.9741 6.44314 12.1777 7.115 12.1777 7.80229C12.1767 8.72359 11.8104 9.60686 11.1594 10.2583C10.5083 10.9098 9.62552 11.2762 8.70474 11.2773ZM16.2764 9.81029C16.6065 8.47412 16.6032 7.07721 16.2666 5.74264C15.9301 4.40806 15.2707 3.17679 14.3465 2.15729C12.7955 0.768098 10.7869 0 8.70524 0C6.62357 0 4.61501 0.768098 3.06398 2.15729C1.80159 3.55829 1.04633 5.3431 0.919462 7.22516C0.792589 9.10723 1.30146 10.9774 2.36439 12.5353L8.00114 20.4683C8.08135 20.5814 8.18744 20.6736 8.31054 20.7372C8.43363 20.8009 8.57017 20.8342 8.70874 20.8343C8.76521 20.833 8.82144 20.8263 8.87664 20.8143C8.69724 20.3113 8.677 19.7652 8.81868 19.2503L9.56725 16.6333C9.69013 16.2084 9.91881 15.8216 10.2319 15.5093L15.237 10.5013C15.5346 10.2045 15.8882 9.96989 16.2774 9.81129" fill="#F3EB39"/>
<path fill-rule="evenodd" clip-rule="evenodd" d="M19.5558 12.6693L18.6183 11.7303C18.3282 11.453 17.9426 11.2983 17.5414 11.2983C17.1403 11.2983 16.7546 11.453 16.4645 11.7303L11.4574 16.7403C11.3531 16.844 11.2771 16.9728 11.2366 17.1143L10.484 19.7323C10.4468 19.8616 10.4402 19.9979 10.4647 20.1302C10.4891 20.2626 10.544 20.3874 10.6249 20.495C10.7058 20.6025 10.8106 20.6898 10.9309 20.7498C11.0513 20.8099 11.184 20.8412 11.3185 20.8412C11.3997 20.8416 11.4805 20.8302 11.5584 20.8073L14.1749 20.0543C14.316 20.0137 14.4443 19.9376 14.5476 19.8333L19.5558 14.8232C19.8405 14.5372 20.0004 14.15 20.0004 13.7462C20.0004 13.3425 19.8405 12.9553 19.5558 12.6693Z" fill="#F3EB39"/>
</svg>
