<svg width="46" height="52" viewBox="0 0 46 52" fill="none" xmlns="http://www.w3.org/2000/svg">
<path d="M25.3793 2.68945L31.3893 6.08637C32.4432 6.68207 33.3295 7.59774 33.949 8.73081C34.5684 9.86387 34.8965 11.1695 34.8966 12.5015V25.1032H28.5517V43.0343H6.34483V25.1032H0V12.5015C3.22705e-06 11.1695 0.328122 9.86387 0.94759 8.73081C1.56706 7.59774 2.4534 6.68207 3.5073 6.08637L9.51724 2.68945H25.3793Z" fill="#C3C6C7"/>
<path d="M34.8966 25.1038H28.5518V21.5176H34.8966V25.1038Z" fill="#9AA3A8"/>
<path d="M5.55177 22.4139C5.34143 22.4139 5.1397 22.3194 4.99096 22.1513C4.84223 21.9832 4.75867 21.7551 4.75867 21.5173V15.2415C4.75867 15.0037 4.84223 14.7757 4.99096 14.6075C5.1397 14.4394 5.34143 14.3449 5.55177 14.3449C5.76211 14.3449 5.96384 14.4394 6.11258 14.6075C6.26131 14.7757 6.34487 15.0037 6.34487 15.2415V21.5173C6.34487 21.7551 6.26131 21.9832 6.11258 22.1513C5.96384 22.3194 5.76211 22.4139 5.55177 22.4139ZM29.3449 22.4139C29.1345 22.4139 28.9328 22.3194 28.7841 22.1513C28.6353 21.9832 28.5518 21.7551 28.5518 21.5173V15.2415C28.5518 15.0037 28.6353 14.7757 28.7841 14.6075C28.9328 14.4394 29.1345 14.3449 29.3449 14.3449C29.5552 14.3449 29.7569 14.4394 29.9057 14.6075C30.0544 14.7757 30.138 15.0037 30.138 15.2415V21.5173C30.138 21.7551 30.0544 21.9832 29.9057 22.1513C29.7569 22.3194 29.5552 22.4139 29.3449 22.4139ZM16.6552 43.0346V12.5518C16.6552 12.314 16.7388 12.086 16.8875 11.9179C17.0362 11.7497 17.238 11.6553 17.4483 11.6553C17.6587 11.6553 17.8604 11.7497 18.0091 11.9179C18.1579 12.086 18.2414 12.314 18.2414 12.5518V43.0346H16.6552Z" fill="#B6B9BA"/>
<path d="M21.4138 0V4.48276L17.4483 9.86207L13.4828 4.48276V0H21.4138Z" fill="#C3C6C7"/>
<path d="M26.9655 6.27586H23.7931V9.86207L17.4483 13.4483V9.86207L21.4138 4.48276V0L24.5862 0.896552L26.9655 6.27586ZM17.4483 9.86207V13.4483L11.1034 9.86207V6.27586H7.93103L10.3103 0.896552L13.4828 0V4.48276L17.4483 9.86207Z" fill="#9AA3A8"/>
<path d="M6.34485 18.8271H12.6897V27.7927H6.34485V18.8271Z" fill="#B6B9BA"/>
<path d="M6.34485 18.8274H12.6897V22.4136H6.34485V18.8274ZM20.6227 17.0343C20.4123 17.0345 20.2106 16.9401 20.0617 16.7721C19.9129 16.6041 19.8292 16.3761 19.8291 16.1383C19.829 15.9005 19.9124 15.6724 20.061 15.5042C20.2097 15.336 20.4114 15.2414 20.6217 15.2412H20.6227C20.833 15.2412 21.0348 15.3357 21.1835 15.5038C21.3322 15.6719 21.4158 15.9 21.4158 16.1378C21.4158 16.3755 21.3322 16.6036 21.1835 16.7717C21.0348 16.9399 20.833 17.0343 20.6227 17.0343ZM20.6227 27.7929C20.4123 27.7931 20.2106 27.6988 20.0617 27.5307C19.9129 27.3627 19.8292 27.1347 19.8291 26.8969C19.829 26.6592 19.9124 26.4311 20.061 26.2628C20.2097 26.0946 20.4114 26 20.6217 25.9998H20.6227C20.833 25.9998 21.0348 26.0943 21.1835 26.2624C21.3322 26.4306 21.4158 26.6586 21.4158 26.8964C21.4158 27.1342 21.3322 27.3622 21.1835 27.5303C21.0348 27.6985 20.833 27.7929 20.6227 27.7929ZM20.6227 38.5516C20.4123 38.5517 20.2106 38.4574 20.0617 38.2894C19.9129 38.1213 19.8292 37.8933 19.8291 37.6556C19.829 37.4178 19.9124 37.1897 20.061 37.0214C20.2097 36.8532 20.4114 36.7586 20.6217 36.7585H20.6227C20.833 36.7585 21.0348 36.8529 21.1835 37.021C21.3322 37.1892 21.4158 37.4172 21.4158 37.655C21.4158 37.8928 21.3322 38.1208 21.1835 38.289C21.0348 38.4571 20.833 38.5516 20.6227 38.5516Z" fill="#9AA3A8"/>
<path d="M26.1724 13.4482H45.2068V18.8276H26.1724V13.4482Z" fill="#966651"/>
<path d="M46 22.4134V51.9996H38.0689L37.6882 48.4134L35.6896 29.5858L33.691 48.4134L33.3103 51.9996H25.3793V22.4134L26.1724 18.8271H45.2069L46 22.4134Z" fill="#B37A60"/>
<path d="M33.691 48.4141L33.3103 52.0003H25.3793V48.4141H33.691ZM46 48.4141V52.0003H38.0689L37.6882 48.4141H46Z" fill="#966651"/>
<path d="M28.5518 13.4482H30.138V18.8276H28.5518V13.4482ZM31.7242 13.4482H33.3104V18.8276H31.7242V13.4482ZM34.8966 13.4482H36.4828V18.8276H34.8966V13.4482ZM38.069 13.4482H39.6552V18.8276H38.069V13.4482ZM41.2414 13.4482H42.8276V18.8276H41.2414V13.4482Z" fill="#734B39"/>
<path d="M13.4828 0H21.4138V3.58621H13.4828V0Z" fill="#B6B9BA"/>
<path d="M0 21.5176H6.34483V25.1038H0V21.5176Z" fill="#9AA3A8"/>
</svg>
