<svg width="28" height="27" viewBox="0 0 28 27" fill="none" xmlns="http://www.w3.org/2000/svg">
<path d="M25.8734 4.67264C24.0391 2.6111 22.0155 1.6907 19.8582 1.93465C19.3248 1.31105 18.6626 0.814527 17.9186 0.48044C17.1747 0.146353 16.3673 -0.0170763 15.5541 0.00179199C14.6167 -0.0220682 13.6884 0.192671 12.8537 0.62643C12.019 1.06019 11.3046 1.69917 10.7755 2.4851C5.78664 0.0965128 -0.303366 5.70206 0.0117407 10.7956C0.224936 12.9634 1.02356 15.0293 2.31959 16.7657C3.6558 18.6559 5.20486 20.3812 6.93529 21.9066C7.48364 24.5499 8.85233 25.9743 11.0924 25.2647C12.3343 26.1655 13.2709 26.7642 13.6185 26.9822C13.6372 26.9939 13.6587 27 13.6806 27C13.7025 27 13.724 26.9939 13.7426 26.9822C16.2488 25.3931 18.6487 23.6376 20.9267 21.727C21.6027 23.2836 22.9731 22.9709 24.3594 22.0844C25.8355 21.1667 26.2413 18.1705 24.3665 14.7435C23.5901 13.3992 23.2163 11.8544 23.2909 10.2978C23.2733 8.63933 23.2539 6.92361 21.1881 3.67002C20.8546 3.13555 20.4787 2.62959 20.0641 2.15715C22.0754 1.99184 23.9704 2.8908 25.6973 4.83795C28.1759 7.6233 28.4197 10.9144 26.4235 14.6264C26.4154 14.6404 26.4101 14.6559 26.408 14.6719C26.4059 14.688 26.407 14.7043 26.4112 14.7199C26.4155 14.7355 26.4228 14.7501 26.4327 14.7628C26.4426 14.7755 26.455 14.786 26.469 14.7938C26.483 14.8015 26.4984 14.8063 26.5143 14.8079C26.5302 14.8094 26.5462 14.8077 26.5614 14.8029C26.5766 14.798 26.5907 14.7901 26.6029 14.7796C26.615 14.7691 26.6249 14.7562 26.6321 14.7417C28.682 10.9323 28.4268 7.54645 25.8742 4.67711L25.8734 4.67264ZM18.1066 12.1297C18.2232 12.1502 18.3431 12.1389 18.4541 12.0972C18.5651 12.0554 18.6632 11.9847 18.7386 11.892C18.798 12.3216 18.737 12.7596 18.5625 13.1556C17.0343 13.8138 15.6012 14.6795 14.3024 15.7291C14.0123 15.9832 13.7094 16.2218 13.395 16.444C13.461 16.2653 13.5252 16.0723 13.586 15.8569C13.8914 15.6085 14.3544 15.2645 14.1854 14.8069C14.1088 14.5269 13.9345 14.2846 13.6951 14.1251C13.9265 13.775 14.0148 13.3472 13.9416 12.9322L14.2936 12.5971C14.3855 12.5087 14.4586 12.4023 14.5087 12.2843C14.5588 12.1663 14.5847 12.0393 14.585 11.9108V11.6427C14.8857 11.487 15.1545 11.2748 15.3771 11.0172C15.9846 10.3233 16.5268 9.57331 16.9967 8.77694C17.193 10.8787 17.56 11.976 18.1154 12.1235L18.1066 12.1297ZM17.0037 18.2268C17.2557 18.6828 17.6517 19.0395 18.1277 19.2392C18.0378 19.5929 17.8553 19.9152 17.5996 20.1721C16.7957 20.9805 16.0408 21.69 15.3349 22.3007L12.8308 18.8049C13.4953 18.2616 14.2311 17.6691 14.9626 17.1071C15.2284 16.9017 15.5403 16.7666 15.8703 16.7137C16.2003 16.6609 16.538 16.6919 16.8532 16.8041C16.7349 17.2839 16.7886 17.7907 17.0046 18.2339L17.0037 18.2268ZM17.4737 15.3342C17.2319 15.7173 17.0421 16.1318 16.9095 16.5664C16.5596 16.4461 16.186 16.4148 15.8213 16.4752C15.4567 16.5357 15.1123 16.6861 14.8182 16.9132C13.0579 18.2786 11.2649 19.7888 10.5159 20.4277C10.6827 19.9198 10.7856 19.3926 10.8222 18.8585C10.8648 18.8641 10.9077 18.8671 10.9507 18.8675C11.3006 18.813 11.6355 18.6853 11.9342 18.4924C12.2328 18.2995 12.4887 18.0456 12.6855 17.7469C12.9092 17.4731 13.0927 17.1679 13.2304 16.8408C13.6591 16.5626 14.0674 16.2532 14.4521 15.915C15.6791 14.9288 17.0224 14.1015 18.4508 13.4523C18.1779 14.1059 17.852 14.7354 17.4764 15.3342H17.4737ZM9.35404 12.7427C9.2206 12.6448 9.0718 12.5705 8.91394 12.5229C9.04514 12.0969 9.07886 11.6461 9.01252 11.2049C8.99914 11.1343 8.97144 11.0674 8.9312 11.0084C8.89095 10.9493 8.83904 10.8995 8.77877 10.8619C8.7185 10.8243 8.65119 10.7999 8.58111 10.7902C8.51104 10.7804 8.43974 10.7856 8.37175 10.8054C8.30485 10.0798 9.84518 9.13349 10.8732 9.13259C10.9181 9.22195 10.9665 9.31668 11.0176 9.40782C10.8285 9.71811 10.5415 9.95431 10.2034 10.078C10.1754 10.0889 10.1525 10.1101 10.1392 10.1374C10.126 10.1647 10.1234 10.1961 10.1319 10.2252C10.1405 10.2544 10.1596 10.2792 10.1855 10.2946C10.2113 10.3101 10.2419 10.3151 10.2712 10.3086C10.6255 10.1838 10.933 9.95058 11.1514 9.64105C11.6501 10.4384 12.3032 11.1246 13.0711 11.6579H13.0772C13.208 11.7298 13.3496 11.7793 13.4962 11.8045C13.4745 11.8901 13.4474 11.9743 13.4152 12.0564C13.4084 12.0738 13.4057 12.0925 13.4072 12.1111C13.4087 12.1297 13.4145 12.1477 13.424 12.1637C13.593 12.4397 13.6867 12.7564 13.6954 13.0813C13.704 13.4062 13.6274 13.7276 13.4733 14.0125C13.3072 13.927 13.1155 13.9078 12.9362 13.959C12.7569 14.0101 12.603 14.1278 12.5051 14.2887L12.2472 14.7587C11.7854 14.8855 11.2991 14.888 10.8361 14.7659C10.373 14.6438 9.94933 14.4014 9.60665 14.0626C9.65825 14.0258 9.70682 13.9849 9.75188 13.9402C9.77158 13.917 9.78185 13.887 9.78063 13.8564C9.7794 13.8259 9.76675 13.7969 9.74526 13.7754C9.72376 13.7539 9.69503 13.7415 9.66487 13.7408C9.63472 13.74 9.60541 13.7509 9.58288 13.7713C9.58288 13.7713 9.29858 14.059 9.02661 13.9956C8.84529 13.9527 8.69565 13.7605 8.58123 13.4246C8.68153 13.2045 8.76969 12.979 8.84529 12.749C8.98018 12.7891 9.1071 12.8529 9.22025 12.9375C9.23307 12.9478 9.24784 12.9552 9.26362 12.9594C9.27941 12.9636 9.29588 12.9645 9.312 12.9619C9.32812 12.9594 9.34355 12.9535 9.35734 12.9446C9.37112 12.9357 9.38295 12.9241 9.3921 12.9104C9.40125 12.8966 9.40752 12.8812 9.41051 12.8649C9.41351 12.8486 9.41317 12.8319 9.40952 12.8157C9.40587 12.7996 9.39898 12.7844 9.38928 12.771C9.37958 12.7577 9.36728 12.7466 9.35315 12.7383L9.35404 12.7427ZM13.6581 12.0949C13.6886 12.0101 13.7142 11.9236 13.7347 11.8357C13.9406 11.8441 14.1462 11.8138 14.3412 11.7464V11.9108C14.3409 12.0065 14.3216 12.1012 14.2842 12.189C14.2468 12.2769 14.1922 12.3561 14.1238 12.4219L13.88 12.6561C13.8271 12.4614 13.7527 12.2725 13.6581 12.0949ZM12.0544 15.0616C11.8406 15.2609 11.6406 15.4749 11.4559 15.7023C11.3598 15.4936 11.2514 15.291 11.1311 15.0956C11.4383 15.1438 11.7517 15.132 12.0544 15.0607V15.0616ZM8.97379 14.2342C9.11328 14.2631 9.25821 14.2472 9.38836 14.1886C9.78424 14.5787 10.2675 14.8655 10.7967 15.0241C10.9885 15.303 11.1533 15.6002 11.2887 15.9114C10.9943 16.2952 10.7314 16.7029 10.5027 17.1303C10.4889 17.1583 10.4864 17.1906 10.4956 17.2204C10.5048 17.2502 10.5251 17.2752 10.5522 17.2902C10.5792 17.3051 10.6109 17.3088 10.6406 17.3005C10.6703 17.2922 10.6956 17.2725 10.7113 17.2456C11.1123 16.4646 11.6456 15.7613 12.2868 15.168C12.2992 15.16 12.3099 15.1496 12.3185 15.1376L12.7181 14.4093C12.8669 14.1162 13.2374 14.1537 13.4795 14.2744C13.5973 14.3336 13.7011 14.418 13.7838 14.5218C13.8664 14.6256 13.9259 14.7464 13.9583 14.8758C14.0956 15.2287 13.6062 15.5013 13.4046 15.6952C13.3863 15.7108 13.3731 15.7316 13.3668 15.7551C13.2131 16.4208 12.9208 17.0454 12.5095 17.5869C11.8124 18.4082 11.2068 18.7486 10.7086 18.5905C9.58992 18.2411 9.27658 15.5701 9.27394 15.5433C9.26906 15.5127 9.25278 15.4852 9.22849 15.4665C9.20419 15.4478 9.17374 15.4392 9.14343 15.4427C9.11311 15.4461 9.08526 15.4613 9.06564 15.485C9.04603 15.5087 9.03615 15.5392 9.03805 15.5701C9.05125 15.6845 9.3646 18.3519 10.5889 18.8031C10.5525 19.4043 10.4272 19.9965 10.2175 20.5599C9.71931 19.6494 7.78554 16.0526 7.70633 14.9499C7.98184 14.5592 8.22838 14.1482 8.44392 13.7203C8.48698 13.8416 8.55704 13.9512 8.64864 14.0404C8.74025 14.1297 8.85092 14.1963 8.97203 14.235L8.97379 14.2342ZM10.8336 3.85946C11.5452 5.50917 12.7005 6.92179 14.1669 7.93517C14.264 7.99309 14.3732 8.02697 14.4856 8.03407C14.5981 8.04117 14.7106 8.02129 14.814 7.97604C14.9175 7.93079 15.009 7.86145 15.0811 7.77362C15.1533 7.68579 15.204 7.58195 15.2293 7.4705C15.3622 6.98349 15.6755 6.33116 16.2978 6.43124C16.4853 6.4089 16.921 7.15684 16.9509 8.36946C16.4485 9.25733 15.8587 10.0912 15.1905 10.8581C14.1625 11.9984 13.2673 11.4935 13.2031 11.4551C12.2852 10.8244 11.5448 9.96214 11.0546 8.95298C10.3599 7.34211 10.2805 5.52647 10.8319 3.85946H10.8336ZM1.44997 12.9393C0.809125 11.3084 0.727626 9.50587 1.2186 7.82214C1.70957 6.13842 2.74443 4.67146 4.15654 3.65751C5.03011 2.87178 6.11069 2.36214 7.26557 2.19117C8.42045 2.02021 9.59938 2.19535 10.6576 2.6951C10.0626 3.63087 9.68698 4.69272 9.55957 5.79897C9.43215 6.90523 9.55636 8.02641 9.92263 9.0763C8.77839 9.47842 8.07425 10.2326 8.13322 10.9529C8.0849 11.0088 8.04889 11.0746 8.02759 11.1459C7.83365 11.9611 7.40022 12.6972 6.78477 13.2566C6.71214 13.3103 6.64277 13.3685 6.57705 13.4308C6.52854 13.0231 6.52087 12.6114 6.55416 12.2021C6.6082 11.202 6.35009 10.2101 5.81657 9.36761C5.88903 9.31177 5.95283 9.2452 6.00581 9.17012C7.87532 8.90204 6.42742 6.36154 6.07887 5.81198C6.06812 5.79443 6.05315 5.77995 6.03536 5.76992C6.01757 5.75988 5.99755 5.75461 5.9772 5.75461C5.95685 5.75461 5.93684 5.75988 5.91905 5.76992C5.90126 5.77995 5.88629 5.79443 5.87554 5.81198C5.62281 6.24311 5.39874 6.69091 5.20484 7.15238C4.86506 6.90631 4.51248 6.67901 4.14862 6.47145C4.13064 6.46171 4.1105 6.45678 4.09013 6.45715C4.06975 6.45751 4.0498 6.46315 4.03217 6.47353C4.01454 6.48391 3.99982 6.49869 3.98939 6.51647C3.97896 6.53424 3.97317 6.55443 3.97258 6.57511C3.96776 6.99844 3.9854 7.42172 4.02539 7.84313C3.53367 7.78223 3.03848 7.75477 2.54315 7.76092C2.52278 7.76152 2.50291 7.7674 2.4854 7.77798C2.46789 7.78857 2.45333 7.80352 2.4431 7.82142C2.43288 7.83932 2.42732 7.85957 2.42697 7.88026C2.42661 7.90095 2.43146 7.92138 2.44106 7.93964C2.72536 8.50439 4.17766 11.0672 5.34127 9.55616C5.43408 9.54682 5.52493 9.52301 5.6106 9.48557C6.11905 10.2862 6.36548 11.2294 6.31475 12.1807C6.27464 12.6705 6.29266 13.1634 6.36844 13.6488C6.11874 13.9034 5.9374 14.2186 5.84172 14.5645C5.74604 14.9103 5.7392 15.2753 5.82185 15.6246C5.95502 16.2025 6.05436 16.788 6.11935 17.3778C5.88093 17.9299 5.67777 18.4971 5.51114 19.0757C3.7715 17.3226 2.39121 15.237 1.44997 12.9393ZM5.59652 9.23089C5.49621 9.28091 5.38683 9.30941 5.27519 9.3146C5.16355 9.31979 5.05205 9.30157 4.94766 9.26107C4.84326 9.22057 4.74821 9.15867 4.66843 9.07921C4.58865 8.99976 4.52586 8.90447 4.48397 8.79928C4.27562 8.15217 4.18262 7.47252 4.20935 6.79226C4.8029 7.10892 5.33612 7.53044 5.784 8.03704C5.85266 8.12647 5.90247 8.22929 5.93032 8.3391C5.95817 8.44891 5.96346 8.56336 5.94588 8.67534C5.92829 8.78732 5.88821 8.89442 5.8281 8.99C5.768 9.08557 5.68917 9.16757 5.59652 9.23089ZM5.70039 19.2785C5.83521 18.7876 5.99892 18.3054 6.19065 17.8345C6.31299 18.603 6.4547 19.4224 6.59465 20.1873C6.28424 19.8829 5.98615 19.5806 5.70039 19.2785ZM9.35051 25.1173C8.3383 24.8269 7.64119 23.8314 7.21782 22.0737C6.95377 20.963 6.39925 17.8237 6.21881 16.3806C5.73295 14.7042 6.21001 14.0224 6.92296 13.4603C7.58195 12.8715 8.04735 12.0918 8.25644 11.2263C8.27318 11.1662 8.30955 11.1137 8.35958 11.0773C8.40961 11.041 8.47032 11.023 8.53175 11.0263C8.59318 11.0297 8.65167 11.0541 8.69761 11.0956C8.74355 11.1372 8.77421 11.1933 8.78455 11.2549C9.05829 12.6981 7.5074 14.8248 7.49156 14.8463C7.47545 14.8682 7.46708 14.8949 7.46779 14.9222C7.50652 16.1813 10.0203 20.7038 10.1277 20.895C10.1364 20.9098 10.1482 20.9225 10.1621 20.9322C10.176 20.942 10.1919 20.9486 10.2085 20.9517C10.2252 20.9547 10.2423 20.9541 10.2588 20.9499C10.2752 20.9457 10.2905 20.9379 10.3038 20.9272C10.3187 20.9138 11.3177 20.0524 12.6451 18.9613L15.1536 22.4624C12.6063 24.633 10.6946 25.5051 9.34875 25.12L9.35051 25.1173ZM20.8273 21.5018C18.7717 23.2368 16.6081 24.8355 14.35 26.2879C13.563 25.9105 12.8368 25.4143 12.1962 24.8162C14.2633 23.6178 16.142 22.1118 17.7695 20.3482C18.0483 20.0686 18.2495 19.7194 18.3531 19.3357C20.2895 19.8504 20.0016 19.3268 20.8281 21.5036L20.8273 21.5018Z" fill="#1088C0"/>
</svg>
