<svg width="22" height="21" viewBox="0 0 22 21" fill="none" xmlns="http://www.w3.org/2000/svg">
<path d="M16.4991 3.66949C15.5315 3.67171 14.5821 3.93223 13.749 4.42414V3.88917C13.7476 3.40744 13.8418 2.93023 14.0262 2.48517C14.2106 2.04011 14.4814 1.63605 14.823 1.29639L13.5266 0C13.0155 0.510363 12.6103 1.11666 12.3341 1.78408C12.058 2.4515 11.9165 3.16689 11.9176 3.88917V4.4221C11.084 3.93018 10.1342 3.66966 9.16619 3.66745C7.94754 3.66837 6.76372 4.07409 5.80069 4.82088C4.83767 5.56767 4.14999 6.6132 3.8457 7.79326H15.1254V17.8762H6.78563C8.10725 19.044 9.7381 19.8051 11.482 20.068C13.226 20.3309 15.0087 20.0844 16.6159 19.3582C18.223 18.6319 19.5862 17.4568 20.5413 15.9742C21.4965 14.4916 22.003 12.7646 21.9999 11.001V9.17033C21.9999 7.7116 21.4204 6.31261 20.389 5.28113C19.3575 4.24965 17.9585 3.67017 16.4997 3.67017L16.4991 3.66949Z" fill="#8EBAC5"/>
<path d="M2.75008 9.16942C2.50696 9.16942 2.2738 9.07283 2.10188 8.90092C1.92997 8.72901 1.83339 8.49584 1.83339 8.25272C1.83498 8.04959 1.90507 7.85294 2.0323 7.69458C2.15952 7.53622 2.33646 7.42542 2.53447 7.38009C2.71324 6.71602 2.99143 6.0828 3.35963 5.50195H2.7494C2.02015 5.50213 1.32084 5.79196 0.805242 6.30768C0.289647 6.8234 -2.21641e-08 7.52279 0 8.25204V13.7522C0 14.4816 0.289739 15.1811 0.805479 15.6968C1.32122 16.2125 2.02072 16.5023 2.75008 16.5023V12.8362H4.58076V16.5023H6.41143V11.0021H8.24212V16.5023H10.0728V12.8362H11.9035V16.5023H13.7341V9.16942H2.75008Z" fill="#8EBAC5"/>
</svg>
