<svg width="21" height="17" viewBox="0 0 21 17" fill="none" xmlns="http://www.w3.org/2000/svg">
<path d="M6.18994 12.8223V16.3575H7.07429V13.7044H13.2641V16.3575H14.1485V12.8223H6.18994Z" fill="#7F051A"/>
<path d="M3.5368 1.76868V16.3593H5.3044V11.9392H15.0316V16.3603H16.8003V1.76868H3.5368ZM13.1797 3.97954L13.5061 2.65302H15.4749V3.53736H14.1968L13.9406 4.57617L13.9276 4.57182L13.6665 5.74768H9.72721V6.63202H13.4723L13.1759 7.95854H6.96323L6.07888 3.97954H13.1797ZM7.5158 9.28506C7.5158 9.11015 7.56767 8.93917 7.66484 8.79374C7.76202 8.64831 7.90014 8.53496 8.06173 8.46802C8.22332 8.40109 8.40113 8.38358 8.57268 8.41771C8.74422 8.45183 8.90179 8.53605 9.02547 8.65973C9.14915 8.7834 9.23338 8.94098 9.2675 9.11252C9.30162 9.28407 9.28411 9.46188 9.21718 9.62348C9.15024 9.78507 9.03689 9.92318 8.89146 10.0204C8.74603 10.1175 8.57506 10.1694 8.40015 10.1694C8.16583 10.1687 7.94131 10.0753 7.77562 9.90958C7.60993 9.74389 7.51652 9.51938 7.5158 9.28506ZM10.611 9.28506C10.6102 9.25254 10.6116 9.22001 10.6154 9.1877C10.6341 9.02225 10.6992 8.86545 10.8031 8.73532C10.907 8.6052 11.0455 8.50702 11.2027 8.45209C11.3598 8.39715 11.5293 8.38768 11.6917 8.42476C11.854 8.46184 12.0026 8.54398 12.1203 8.66172C12.2381 8.77946 12.3202 8.92803 12.3573 9.09036C12.3944 9.25269 12.3849 9.42219 12.3299 9.57938C12.275 9.73657 12.1768 9.87506 12.0467 9.97895C11.9166 10.0828 11.7598 10.1479 11.5943 10.1667C11.562 10.1704 11.5295 10.1719 11.497 10.171C11.2621 10.1707 11.0369 10.0773 10.8708 9.91122C10.7047 9.74513 10.6113 9.51994 10.611 9.28506Z" fill="#7F051A"/>
<path d="M2.21082 0H18.1279V0.884343H2.21082V0Z" fill="#7F051A"/>
<path d="M8.40076 13.2639H9.2851V16.3586H8.40076V13.2639Z" fill="#7F051A"/>
<path d="M11.0532 13.2639H11.9375V16.3586H11.0532V13.2639Z" fill="#7F051A"/>
<path d="M2.65303 7.11426V10.1692H0V9.0684L2.65303 7.11426Z" fill="#7F051A"/>
<path d="M0 11.0537H2.65303V13.7067H0V11.0537Z" fill="#7F051A"/>
<path d="M0 14.5907H2.65303V16.3583H0V14.5907Z" fill="#7F051A"/>
<path d="M17.6853 14.5907H20.3383V16.3583H17.6853V14.5907Z" fill="#7F051A"/>
<path d="M17.6853 11.0537H20.3383V13.7067H17.6853V11.0537Z" fill="#7F051A"/>
<path d="M20.3383 9.06842V10.1692H17.6853V7.11426L20.3383 9.06842Z" fill="#7F051A"/>
</svg>
