<svg width="11" height="11" viewBox="0 0 11 11" fill="none" xmlns="http://www.w3.org/2000/svg">
<path d="M10.4942 5.50039L10.9768 4.24166C11.0297 4.10279 10.9885 3.94537 10.8723 3.85119L9.82602 3.00287L9.61428 1.67127C9.59091 1.52416 9.47542 1.40935 9.3283 1.38598L7.99671 1.17424L7.14908 0.127253C7.05558 0.0110734 6.89472 -0.0301738 6.75929 0.0227601L5.49988 0.50604L4.24115 0.0234475C4.1016 -0.0301738 3.94555 0.0124483 3.85136 0.12794L3.00305 1.17493L1.67145 1.38667C1.59994 1.39818 1.53388 1.43195 1.48266 1.48317C1.43144 1.53439 1.39767 1.60045 1.38616 1.67196L1.17442 3.00356L0.127432 3.85187C0.0119396 3.94537 -0.029995 4.10279 0.0229389 4.24166L0.505531 5.50039L0.0229389 6.75911C-0.0306825 6.89798 0.0119396 7.0554 0.127432 7.1489L1.17442 7.99653L1.38616 9.32812C1.40953 9.47524 1.52434 9.59073 1.67145 9.6141L3.00305 9.82584L3.85136 10.8721C3.89691 10.9288 3.95931 10.9694 4.02952 10.9882C4.09973 11.007 4.17409 11.003 4.24184 10.9766L5.49988 10.4947L6.7586 10.9773C6.7979 10.9923 6.8396 11 6.88166 11C6.98271 11 7.08239 10.9553 7.14908 10.8721L7.99671 9.82584L9.3283 9.6141C9.40004 9.60269 9.46633 9.56888 9.5177 9.51752C9.56906 9.46615 9.60287 9.39986 9.61428 9.32812L9.82602 7.99653L10.8723 7.1489C10.9885 7.05472 11.0297 6.89798 10.9768 6.75911L10.4942 5.50039Z" fill="#F3EB39"/>
<path d="M4.46868 4.81298C3.90016 4.81298 3.4375 4.35033 3.4375 3.7818C3.4375 3.21328 3.90016 2.75063 4.46868 2.75063C5.0372 2.75063 5.49986 3.21328 5.49986 3.7818C5.49986 4.35033 5.0372 4.81298 4.46868 4.81298ZM4.46868 3.43808C4.27894 3.43808 4.12495 3.59207 4.12495 3.7818C4.12495 3.97154 4.27894 4.12553 4.46868 4.12553C4.65842 4.12553 4.81241 3.97154 4.81241 3.7818C4.81241 3.59207 4.65842 3.43808 4.46868 3.43808ZM6.53104 8.25025C5.96251 8.25025 5.49986 7.78759 5.49986 7.21907C5.49986 6.65055 5.96251 6.18789 6.53104 6.18789C7.09956 6.18789 7.56222 6.65055 7.56222 7.21907C7.56222 7.78759 7.09956 8.25025 6.53104 8.25025ZM6.53104 6.87534C6.34199 6.87534 6.18731 7.03002 6.18731 7.21907C6.18731 7.40812 6.34199 7.5628 6.53104 7.5628C6.72009 7.5628 6.87477 7.40812 6.87477 7.21907C6.87477 7.03002 6.72009 6.87534 6.53104 6.87534ZM3.78123 8.25025C3.71179 8.25025 3.64236 8.22962 3.58187 8.18632C3.42719 8.07563 3.39144 7.86115 3.50212 7.70647L6.93939 2.8943C7.05007 2.73963 7.26455 2.70388 7.41923 2.81456C7.5739 2.92455 7.60896 3.13972 7.49897 3.29371L4.06171 8.10588C3.99365 8.20006 3.88847 8.25025 3.78123 8.25025Z" fill="#FAFAFA"/>
</svg>
