<svg width="46" height="52" viewBox="0 0 46 52" fill="none" xmlns="http://www.w3.org/2000/svg">
<path d="M20.1103 29.1042L12.259 37.9796C10.7104 39.7303 10.7104 42.5686 12.259 44.3192C13.8076 46.0698 16.3185 46.0698 17.8671 44.3192L25.7184 35.4438C27.267 33.6932 27.267 30.8548 25.7184 29.1042C24.1698 27.3536 21.659 27.3536 20.1103 29.1042Z" fill="#AFEAEF"/>
<path d="M25.804 31.8595L17.9523 40.7354C17.2086 41.576 16.2 42.0483 15.1483 42.0483C14.0966 42.0483 13.0879 41.576 12.3443 40.7354C11.9696 40.313 11.6738 39.81 11.4743 39.256C11.1304 40.09 11.0217 41.0234 11.1631 41.9296C11.3044 42.8358 11.689 43.6709 12.2645 44.3216C13.0082 45.1622 14.0169 45.6345 15.0686 45.6345C16.1203 45.6345 17.1289 45.1622 17.8726 44.3216L25.7243 35.4457C26.276 34.8222 26.6528 34.0285 26.8076 33.1641C26.9623 32.2997 26.8881 31.4029 26.5942 30.5859C26.3987 31.0594 26.1312 31.4904 25.804 31.8595Z" fill="#4ABDCC"/>
<path d="M15.069 43.0342H3.96552C1.77542 43.0342 0 45.0412 0 47.5169C0 49.9927 1.77542 51.9997 3.96552 51.9997H15.069C17.2591 51.9997 19.0345 49.9927 19.0345 47.5169C19.0345 45.0412 17.2591 43.0342 15.069 43.0342Z" fill="#E5E5E5"/>
<path d="M15.8621 49.3099H4.75862C3.7069 49.3099 2.69826 48.8376 1.95458 47.9969C1.2109 47.1563 0.793108 46.016 0.793108 44.8271C0.277161 45.6024 -0.00126032 46.5466 4.28893e-06 47.5168C4.28893e-06 48.7057 0.417799 49.8459 1.16148 50.6866C1.90516 51.5273 2.9138 51.9996 3.96552 51.9996H15.069C16.1207 51.9996 17.1293 51.5273 17.873 50.6866C18.6167 49.8459 19.0345 48.7057 19.0345 47.5168C18.6654 48.0739 18.1865 48.5261 17.6358 48.8374C17.0851 49.1486 16.4778 49.3104 15.8621 49.3099Z" fill="#B7B7B7"/>
<path d="M3.96552 43.0342C2.9138 43.0342 1.90515 43.5065 1.16147 44.3471C0.417794 45.1878 0 46.328 0 47.5169C0 48.7058 0.417794 49.846 1.16147 50.6867C1.90515 51.5274 2.9138 51.9997 3.96552 51.9997H9.51724V43.0342H3.96552Z" fill="#F44A2A"/>
<path d="M3.96552 43.0342C2.9138 43.0342 1.90515 43.5065 1.16147 44.3471C0.417794 45.1878 0 46.328 0 47.5169C0 48.7058 0.417794 49.846 1.16147 50.6867C1.90515 51.5274 2.9138 51.9997 3.96552 51.9997H9.51724V43.0342H3.96552Z" fill="#F44A2A"/>
<path d="M4.75862 49.3099C3.7069 49.3099 2.69826 48.8376 1.95458 47.9969C1.2109 47.1563 0.793105 46.016 0.793105 44.8271C0.351239 45.4931 0.0821621 46.2851 0.0160253 47.1142C-0.0501115 47.9434 0.089305 48.7769 0.418653 49.5216C0.748 50.2662 1.25427 50.8924 1.88072 51.3301C2.50718 51.7677 3.22907 51.9996 3.96552 51.9996H9.51724V49.3099H4.75862Z" fill="#CE3521"/>
<path d="M11.8966 23.3103C9.33983 22.2593 7.13115 20.3444 5.57039 17.8254C4.00964 15.3065 3.17242 12.3056 3.17242 9.23022V3.58621L11.8966 0L20.6207 3.58621V9.23022C20.6207 12.3056 19.7835 15.3065 18.2227 17.8254C16.662 20.3444 14.4533 22.2593 11.8966 23.3103Z" fill="#77D5D8"/>
<path d="M11.8965 0V23.3103C14.4533 22.2594 16.662 20.3444 18.2227 17.8255C19.7835 15.3066 20.6207 12.3057 20.6207 9.23034V3.58621L11.8965 0Z" fill="#3B9DAF"/>
<path d="M17.4483 9.8616H14.2759V6.27539H11.1034V9.8616H7.93103V13.4478H11.1034V17.034H14.2759V13.4478H17.4483V9.8616Z" fill="#4ABDCC"/>
<path d="M16.6552 8.96511H13.4828V5.37891H10.3104V8.96511H7.13794V12.5513H10.3104V16.1375H13.4828V12.5513H16.6552V8.96511Z" fill="#F44A2A"/>
<path d="M31.7241 15.2412H41.2414V23.3102H31.7241V15.2412Z" fill="#F7B023"/>
<path d="M31.7241 15.2412V17.9309H37.2758V23.3102H41.2414V15.2412H31.7241Z" fill="#F99321"/>
<path d="M42.9106 21.5176H30.055C28.3488 21.5176 26.9656 23.0812 26.9656 25.01V46.7148C26.9656 48.6436 28.3488 50.2072 30.055 50.2072H42.9106C44.6169 50.2072 46.0001 48.6436 46.0001 46.7148V25.01C46.0001 23.0812 44.6169 21.5176 42.9106 21.5176Z" fill="#F7CE23"/>
<path d="M42.9106 21.5176H40.4483V39.5424C40.4483 40.001 40.3684 40.4552 40.2132 40.8789C40.0579 41.3026 39.8303 41.6876 39.5435 42.0119C39.2566 42.3362 38.916 42.5935 38.5412 42.769C38.1663 42.9445 37.7646 43.0348 37.3589 43.0348H26.9656V46.7148C26.9656 47.6411 27.2911 48.5294 27.8705 49.1843C28.4498 49.8393 29.2356 50.2072 30.055 50.2072H42.9106C43.73 50.2072 44.5158 49.8393 45.0952 49.1843C45.6746 48.5294 46.0001 47.6411 46.0001 46.7148V25.01C46.0001 24.0837 45.6746 23.1954 45.0952 22.5405C44.5158 21.8855 43.73 21.5176 42.9106 21.5176Z" fill="#F7B023"/>
<path d="M26.9656 27.793H46.0001V40.3447H26.9656V27.793Z" fill="#066991"/>
<path d="M30.1379 10.7588H42.8276V16.1381H30.1379V10.7588Z" fill="#F9E48C"/>
<path d="M32.5172 10.7588H34.1034V16.1381H32.5172V10.7588ZM35.6896 10.7588H37.2758V16.1381H35.6896V10.7588ZM38.862 13.4484H40.4482V16.1381H38.862V13.4484Z" fill="#F7CE23"/>
<path d="M25.7243 29.1059C24.9807 28.2652 23.972 27.793 22.9203 27.793C21.8686 27.793 20.86 28.2652 20.1163 29.1059L16.1904 33.5438L21.7985 39.8834L25.7243 35.4454C26.468 34.6047 26.8858 33.4646 26.8858 32.2757C26.8858 31.0868 26.468 29.9466 25.7243 29.1059Z" fill="#1DBF5E"/>
<path d="M25.7244 29.106C25.487 28.8374 25.2205 28.6039 24.9313 28.4111C25.3208 29.2571 25.4616 30.2213 25.3332 31.1639C25.2048 32.1064 24.814 32.9782 24.2175 33.6525L20.252 38.1352L21.7985 39.8835L25.7244 35.4456C26.0926 35.0293 26.3847 34.5351 26.584 33.9913C26.7833 33.4474 26.8859 32.8645 26.8859 32.2758C26.8859 31.6871 26.7833 31.1042 26.584 30.5603C26.3847 30.0164 26.0926 29.5222 25.7244 29.106Z" fill="#16994A"/>
<path d="M26.9656 46.7149C26.9656 47.6411 27.2911 48.5294 27.8705 49.1844C28.4498 49.8394 29.2356 50.2073 30.055 50.2073H42.9106C43.73 50.2073 44.5158 49.8394 45.0952 49.1844C45.6746 48.5294 46.0001 47.6411 46.0001 46.7149V46.6211H26.9656V46.7149Z" fill="#F99321"/>
<path d="M26.9656 27.793H40.4483V40.3447H26.9656V27.793Z" fill="#77D5D8"/>
<path d="M40.4482 34.0686H38.0689V31.3789H36.4827V34.0686H34.1034V35.8617H36.4827V38.5513H38.0689V35.8617H40.4482V34.0686Z" fill="#4ABDCC"/>
<path d="M39.6551 33.1731H37.2758V30.4834H35.6896V33.1731H33.3103V34.9662H35.6896V37.6558H37.2758V34.9662H39.6551V33.1731Z" fill="white"/>
<path d="M15.0689 47.5176H11.8965C11.4585 47.5176 11.1034 47.919 11.1034 48.4141C11.1034 48.9093 11.4585 49.3107 11.8965 49.3107H15.0689C15.5069 49.3107 15.862 48.9093 15.862 48.4141C15.862 47.919 15.5069 47.5176 15.0689 47.5176Z" fill="white"/>
<path d="M6.34489 47.5176H4.75868C4.32066 47.5176 3.96558 47.919 3.96558 48.4141C3.96558 48.9093 4.32066 49.3107 4.75868 49.3107H6.34489C6.78291 49.3107 7.13799 48.9093 7.13799 48.4141C7.13799 47.919 6.78291 47.5176 6.34489 47.5176Z" fill="white"/>
<path d="M22.7698 31.6733L21.6482 32.9412C21.3385 33.2914 21.3385 33.859 21.6482 34.2092C21.9579 34.5593 22.4601 34.5593 22.7698 34.2092L23.8914 32.9412C24.2012 32.5911 24.2012 32.0234 23.8914 31.6733C23.5817 31.3232 23.0796 31.3232 22.7698 31.6733Z" fill="white"/>
<path d="M3.17238 48.4142C3.61039 48.4142 3.96548 48.0128 3.96548 47.5176C3.96548 47.0225 3.61039 46.6211 3.17238 46.6211C2.73436 46.6211 2.37927 47.0225 2.37927 47.5176C2.37927 48.0128 2.73436 48.4142 3.17238 48.4142Z" fill="white"/>
<path d="M24.3621 31.1378C24.8002 31.1378 25.1552 30.7364 25.1552 30.2413C25.1552 29.7461 24.8002 29.3447 24.3621 29.3447C23.9241 29.3447 23.569 29.7461 23.569 30.2413C23.569 30.7364 23.9241 31.1378 24.3621 31.1378Z" fill="white"/>
</svg>
