<svg width="44" height="44" viewBox="0 0 44 44" fill="none" xmlns="http://www.w3.org/2000/svg">
<circle cx="22" cy="22" r="22" fill="#F3EB39" fill-opacity="0.1"/>
<path d="M25.12 31.4463C20.83 29.6553 14.275 23.2313 12.543 18.9743C11.824 17.3893 11.818 16.0823 12.531 15.1003C12.815 14.6393 14.433 12.7133 15.882 12.7743C16.3156 12.8324 16.715 13.0413 17.01 13.3643C17.9077 14.2897 18.665 15.3415 19.258 16.4863C19.3328 17.0606 19.1814 17.6414 18.836 18.1063C18.569 18.5743 17.854 19.4603 18.036 19.9773C19.2362 22.6565 21.4164 24.7747 24.129 25.8973C24.635 26.0813 25.52 25.3673 25.986 25.0973C26.4485 24.75 27.0286 24.5978 27.602 24.6733C28.7446 25.2834 29.7928 26.0558 30.714 26.9663C31.0342 27.2599 31.2412 27.6566 31.299 28.0873C31.353 29.5693 29.339 31.2613 28.972 31.4723C28.4798 31.8247 27.8873 32.0094 27.282 31.9993C26.5298 31.9739 25.7921 31.7852 25.12 31.4463ZM26.835 19.9313C26.7054 19.2511 26.3747 18.6254 25.8857 18.1352C25.3967 17.645 24.7719 17.3127 24.092 17.1813C23.868 17.1379 23.6705 17.0073 23.5428 16.8183C23.415 16.6293 23.3677 16.3972 23.411 16.1733C23.4544 15.9493 23.5849 15.7517 23.774 15.624C23.963 15.4963 24.195 15.4489 24.419 15.4923C25.435 15.6889 26.3688 16.1856 27.0996 16.9182C27.8305 17.6508 28.3249 18.5858 28.519 19.6023C28.562 19.8261 28.5149 20.0579 28.388 20.2472C28.261 20.4365 28.0644 20.5681 27.841 20.6133C27.7862 20.6231 27.7307 20.6282 27.675 20.6283C27.476 20.6272 27.2835 20.5572 27.1303 20.4301C26.9771 20.303 26.8727 20.1267 26.835 19.9313ZM30.291 19.8563C30.1236 18.2877 29.4247 16.8236 28.3104 15.7071C27.196 14.5905 25.7333 13.8887 24.165 13.7183C23.9956 13.6983 23.8359 13.6285 23.7061 13.5178C23.5764 13.407 23.4823 13.2603 23.4359 13.0962C23.3894 12.932 23.3927 12.7578 23.4452 12.5955C23.4977 12.4332 23.5972 12.2901 23.731 12.1843C23.8177 12.1138 23.9178 12.0619 24.0253 12.0316C24.1328 12.0013 24.2453 11.9934 24.356 12.0083C26.3119 12.2208 28.1361 13.0961 29.5256 14.4889C30.9151 15.8817 31.7861 17.7079 31.994 19.6643C32.007 19.7763 31.9977 19.8898 31.9666 19.9983C31.9356 20.1067 31.8835 20.208 31.8133 20.2962C31.743 20.3845 31.6561 20.458 31.5573 20.5126C31.4586 20.5672 31.3501 20.6017 31.238 20.6143C31.2049 20.6186 31.1715 20.6206 31.138 20.6203C30.9276 20.6193 30.725 20.5408 30.5687 20.3999C30.4125 20.259 30.3136 20.0655 30.291 19.8563Z" fill="#F3EB39"/>
</svg>
