<svg width="23" height="31" viewBox="0 0 23 31" fill="none" xmlns="http://www.w3.org/2000/svg">
<path fill-rule="evenodd" clip-rule="evenodd" d="M11.5015 0C17.8487 0 23 4.04981 23 12.6662C23 20.2725 14.0373 28.9109 11.937 30.8324C11.816 30.9405 11.6607 31 11.5 31C11.3393 31 11.1841 30.9405 11.0631 30.8324C8.96114 28.9109 0 20.2741 0 12.6662C0 4.05294 5.15285 0 11.4985 0H11.5015ZM11.5015 6.15458C12.4555 6.15458 13.388 6.44353 14.1812 6.98489C14.9744 7.52626 15.5926 8.29572 15.9576 9.19597C16.3227 10.0962 16.4182 11.0868 16.2321 12.0425C16.046 12.9982 15.5866 13.8761 14.9121 14.5651C14.2375 15.2542 13.3781 15.7234 12.4425 15.9135C11.5069 16.1036 10.5371 16.006 9.65577 15.6331C8.77444 15.2602 8.02116 14.6288 7.49117 13.8186C6.96119 13.0083 6.67831 12.0558 6.67831 11.0814C6.67953 9.77538 7.18818 8.52327 8.09253 7.60009C8.99689 6.6769 10.223 6.15813 11.5015 6.15771V6.15458Z" fill="#F3EB39"/>
</svg>
