<svg width="580" height="571" viewBox="0 0 580 571" fill="none" xmlns="http://www.w3.org/2000/svg">
<path d="M22.626 545.648H543.235" stroke="#485070" stroke-width="0.93" stroke-miterlimit="10"/>
<path d="M271.719 192.644C280.48 202.666 284.061 216.174 286.956 228.817C290.799 245.148 294.642 261.496 298.485 277.861C299.52 281.669 300.166 285.573 300.415 289.512C300.191 296.396 299.142 303.229 297.291 309.862C295.387 317.672 290.714 317.189 283.781 316.502C272.786 315.408 257.828 312.076 250.388 303.096C246.883 298.822 245.741 293.124 244.725 287.68L240.535 265.193C234.821 234.667 229.107 203.022 235.456 172.573C249.602 174.551 262.518 181.7 271.719 192.644Z" fill="white"/>
<path d="M287.821 289.436C292.671 291.751 297.318 294.727 302.016 297.551C309.431 302.028 317.253 305.182 324.871 309.328C326.954 310.62 329.237 311.557 331.626 312.101C335.689 312.839 339.981 311.287 344.095 311.847C349.58 312.585 354.252 317.469 356.233 323.955C359.585 334.868 351.738 330.798 346.558 329.857L334.394 327.618C318.686 324.872 302.814 323.173 286.881 322.531C278.018 322.073 262.401 322.276 255.773 314.187C252.548 310.244 248.993 293.099 253.234 288.749C254.001 288.036 254.936 287.529 255.951 287.274C264.162 284.464 273.049 284.321 281.345 286.867C283.56 287.573 285.724 288.431 287.821 289.436Z" fill="#9C5240"/>
<path d="M282.054 415.558H126.59C125.378 415.558 124.177 415.318 123.057 414.853C121.937 414.387 120.919 413.704 120.063 412.844C119.207 411.984 118.528 410.963 118.066 409.84C117.605 408.717 117.369 407.513 117.372 406.298C117.369 405.084 117.605 403.88 118.066 402.757C118.528 401.634 119.207 400.613 120.063 399.752C120.919 398.892 121.937 398.21 123.057 397.744C124.177 397.279 125.378 397.039 126.59 397.039H282.054C284.506 397.039 286.857 398.014 288.591 399.751C290.324 401.487 291.298 403.843 291.298 406.298C291.298 408.754 290.324 411.109 288.591 412.846C286.857 414.582 284.506 415.558 282.054 415.558Z" fill="#485070"/>
<path d="M261.536 293.455V238.788C261.536 230.556 254.874 223.882 246.655 223.882H125.067C116.848 223.882 110.186 230.556 110.186 238.788V293.455C110.186 301.688 116.848 308.362 125.067 308.362H246.655C254.874 308.362 261.536 301.688 261.536 293.455Z" fill="#485070"/>
<path d="M138.956 294.6H129.561V406.985H138.956V294.6Z" fill="#485070"/>
<path d="M240.382 294.6H230.986V406.985H240.382V294.6Z" fill="#485070"/>
<path d="M204.146 410.903H194.75V547.429H204.146V410.903Z" fill="#485070"/>
<path d="M133.499 410.903H124.104V547.429H133.499V410.903Z" fill="#485070"/>
<path d="M284.188 410.903H274.792V547.429H284.188V410.903Z" fill="#485070"/>
<path d="M235.939 410.903H226.543V547.429H235.939V410.903Z" fill="#485070"/>
<path d="M378.223 458.803C372.89 459.922 369.233 460.202 362.986 461.092C353.845 462.398 344.66 463.449 335.434 464.246C337.973 480.858 340.03 495.434 340.512 498.384C342.9 511.104 341.579 542.927 347.242 555.01C354.149 555.875 360.117 554.73 366.567 554.221C369.995 522.347 372.814 490.397 378.223 458.803Z" fill="#CF9378"/>
<path d="M330.127 486.759C330.074 489.376 330.278 491.992 330.736 494.569C338.423 502.112 348.674 506.465 359.432 506.753C365.463 507.008 371.489 506.145 377.208 504.21C377.868 491.77 378.63 479.357 379.417 466.917C380.433 450.764 381.271 434.585 383.277 418.585C384.718 404.133 384.803 389.578 383.531 375.111C379.417 359.314 368.929 355.015 368.929 355.015C352.075 348.369 334.803 342.837 317.226 338.455C289.699 332.401 261.714 327.923 234.034 321.869C220.728 318.969 198.482 319.503 191.575 334.079C183.627 350.945 199.473 373.356 212.246 383.099C225.451 393.274 241.754 398.362 257.956 401.796C280.935 406.82 304.429 409.083 327.943 408.537C327.181 408.537 330.127 480.934 330.127 486.759Z" fill="#F3EB39"/>
<path d="M327.892 408.69C322.813 403.602 317.963 398.209 312.833 393.122C305.215 385.49 297.825 377.731 290.283 370.227C275.249 354.964 260.14 340.007 245.436 324.439C241.602 323.65 237.818 322.836 233.907 321.895C220.601 318.995 198.355 319.529 191.448 334.105C183.5 350.971 199.346 373.382 212.119 383.124C225.324 393.3 241.627 398.387 257.829 401.821C280.808 406.846 304.302 409.109 327.816 408.562C327.816 408.562 327.917 408.613 327.892 408.69Z" fill="#485070"/>
<path d="M328.096 413.167C328.096 405.79 329.137 396.784 329.162 389.433" stroke="#485070" stroke-width="0.69" stroke-miterlimit="10"/>
<path d="M347.014 347.893C327.308 341.533 309.354 335.682 280.43 331.765" stroke="#485070" stroke-width="0.69" stroke-miterlimit="10"/>
<path d="M343.889 564.066H406.917V570.908H346.149C345.549 570.908 344.975 570.67 344.551 570.245C344.127 569.821 343.889 569.245 343.889 568.645V564.066Z" fill="#B3B3B3"/>
<path d="M406.029 565.922C406.262 565.602 406.466 565.261 406.639 564.905C407.225 563.145 407.23 561.242 406.654 559.479C406.078 557.715 404.951 556.184 403.439 555.111C400.299 552.898 396.738 551.356 392.977 550.583C385.226 548.203 377.317 546.376 369.309 545.114C367.151 544.809 344.194 542.697 344.296 541.68L343.229 559.054C342.797 561.323 342.797 563.653 343.229 565.922H406.029Z" fill="#485070"/>
<path d="M354.733 536.872C356.549 535.494 358.75 534.721 361.028 534.661C363.306 534.602 365.545 535.26 367.43 536.541C369.272 537.878 370.75 539.657 371.726 541.715C372.702 543.773 373.146 546.044 373.016 548.319C373.044 548.74 372.986 549.162 372.846 549.56C372.706 549.958 372.488 550.323 372.204 550.634C371.502 551.106 370.659 551.322 369.817 551.245L358.948 551.372C356.688 551.372 353.869 551.931 352.244 549.896C349.476 546.31 352.041 539.569 354.733 536.872Z" fill="#485070"/>
<path d="M378.603 546.768C377.533 546.688 376.464 546.951 375.552 547.517C374.639 548.084 373.929 548.926 373.524 549.922" stroke="#B3B3B3" stroke-width="0.69" stroke-miterlimit="10" stroke-linecap="round"/>
<path d="M379.925 552.288C380.494 551.373 381.283 550.615 382.218 550.082C383.154 549.549 384.207 549.258 385.283 549.235" stroke="#B3B3B3" stroke-width="0.69" stroke-miterlimit="10" stroke-linecap="round"/>
<path d="M387.897 553.153C388.17 552.491 388.631 551.924 389.222 551.522C389.813 551.119 390.509 550.899 391.224 550.889" stroke="#B3B3B3" stroke-width="0.69" stroke-miterlimit="10" stroke-linecap="round"/>
<path d="M273.775 450.256C265.7 451.392 257.607 452.342 249.498 453.105C255.618 483.3 258.462 514.156 263.465 544.478C270.347 544.478 276.619 543.003 283.933 543.156C285.329 533.947 288.148 479.281 292.465 447.203C286.303 448.602 280.061 449.621 273.775 450.256Z" fill="#CF9378"/>
<path d="M250.718 493.246C252.369 500.038 254.324 504.21 260.876 506.881C266.701 509.203 273.001 510.076 279.236 509.425C284.867 508.53 290.141 506.091 294.473 502.378C294.473 502.378 303.107 373.382 292.365 356.872C279.211 336.649 250.439 332.477 228.016 327.568C208.361 323.243 188.477 319.707 168.644 315.841C163.819 334.232 167.298 355.88 174.332 372.822V373.102C177.113 379.689 181.645 385.386 187.434 389.571C193.224 393.756 200.05 396.269 207.167 396.836C217.672 397.725 228.217 398.057 238.758 397.828C238.758 397.828 244.725 468.876 250.718 493.246Z" fill="#F3EB39"/>
<path d="M238.936 402.305C238.936 394.953 239.951 385.948 239.977 378.571" stroke="#485070" stroke-width="0.69" stroke-miterlimit="10"/>
<path d="M261.814 563.074H324.843V569.815H264.1C263.501 569.815 262.926 569.576 262.502 569.152C262.078 568.727 261.84 568.151 261.84 567.551V562.972L261.814 563.074Z" fill="#B3B3B3"/>
<path d="M323.957 564.931C324.184 564.615 324.388 564.284 324.566 563.939C325.154 562.175 325.161 560.268 324.585 558.5C324.009 556.732 322.88 555.196 321.367 554.12C318.222 551.914 314.663 550.374 310.904 549.592C303.154 547.212 295.245 545.384 287.237 544.122C285.078 543.817 262.122 541.731 262.223 540.688L261.157 558.062C260.738 560.333 260.738 562.661 261.157 564.931H323.957Z" fill="#485070"/>
<path d="M272.659 535.906C274.474 534.527 276.674 533.752 278.951 533.688C281.228 533.624 283.467 534.275 285.356 535.549C287.197 536.887 288.674 538.667 289.65 540.725C290.626 542.782 291.071 545.053 290.943 547.327C290.97 547.748 290.913 548.17 290.773 548.568C290.633 548.966 290.415 549.331 290.131 549.642C289.434 550.126 288.587 550.343 287.744 550.253L276.875 550.38C274.615 550.38 271.796 550.94 270.171 548.904C267.403 545.318 269.968 538.577 272.659 535.906Z" fill="#485070"/>
<path d="M296.527 545.776C295.456 545.696 294.388 545.959 293.476 546.525C292.563 547.092 291.853 547.934 291.448 548.93" stroke="#B3B3B3" stroke-width="0.69" stroke-miterlimit="10" stroke-linecap="round"/>
<path d="M297.851 551.296C298.42 550.381 299.208 549.623 300.144 549.09C301.079 548.557 302.133 548.266 303.209 548.243" stroke="#B3B3B3" stroke-width="0.69" stroke-miterlimit="10" stroke-linecap="round"/>
<path d="M305.823 552.161C306.096 551.499 306.557 550.932 307.148 550.529C307.739 550.127 308.435 549.907 309.15 549.897" stroke="#B3B3B3" stroke-width="0.69" stroke-miterlimit="10" stroke-linecap="round"/>
<path d="M166.054 340.871L167.73 349.775C177.888 344.382 190.179 345.527 201.733 345.501C227.136 345.428 252.139 339.169 274.589 327.262C273.099 321.129 272.19 314.869 271.872 308.565C271.872 302.104 269.18 295.846 269.18 289.41C268.749 280.659 269.18 271.909 269.536 263.183C270.349 246.649 271.466 229.936 268.368 213.681C266.505 203.006 262.289 192.881 256.026 184.045C253.106 180.077 249.017 174.913 244.523 172.598C240.028 170.283 232.562 170.996 227.204 170.512C223.284 170.004 219.315 170.004 215.395 170.512C210.625 171.552 206.088 173.467 202.012 176.16C179.742 189.464 177.05 211.137 170.346 234.235C166.994 245.835 161.762 256.824 158.41 268.398C156.54 274.883 155.684 281.619 155.871 288.367C155.998 294.447 158.41 299.891 159.477 305.869C161.678 317.519 163.87 329.187 166.054 340.871Z" fill="white"/>
<path d="M229.006 191.677C233.179 195.226 238.547 197.046 244.014 196.765C245.892 196.755 247.724 196.179 249.271 195.111C250.065 194.561 250.66 193.768 250.966 192.851C251.273 191.934 251.275 190.942 250.972 190.023" stroke="#485070" stroke-width="0.69" stroke-miterlimit="10" stroke-linecap="round"/>
<path d="M223.901 240.289C226.363 248.236 230.623 255.505 236.349 261.533C242.075 267.56 249.113 272.181 256.914 275.038" stroke="#485070" stroke-width="0.69" stroke-miterlimit="10" stroke-linecap="round"/>
<path d="M238.324 252.601C242.431 257.473 248.231 260.6 254.551 261.352" stroke="#485070" stroke-width="0.69" stroke-miterlimit="10" stroke-linecap="round"/>
<path d="M209.885 251.635C215.648 269.81 225.811 286.275 239.469 299.56" stroke="#485070" stroke-width="0.69" stroke-miterlimit="10" stroke-linecap="round"/>
<path d="M261.131 190.787C267.505 201.801 267.606 208.059 269.028 217.802C270.64 228.681 271.379 239.671 271.238 250.668C270.984 269.111 266.921 285.976 271.035 304.266" stroke="#485070" stroke-width="0.69" stroke-miterlimit="10"/>
<path d="M247.748 167.027C248.697 163.964 250.028 161.032 251.709 158.302C246.74 158.144 241.931 156.505 237.895 153.596C235.908 152.118 234.047 150.475 232.334 148.686C231.724 148.051 230.784 146.448 229.794 145.303C228.778 156.394 224.715 166.824 215.218 173.133C218.648 178.865 223.573 183.553 229.464 186.691C234.39 189.54 246.656 195.06 246.935 185.088C246.935 181.807 245.716 178.805 245.996 175.473C246.273 172.603 246.861 169.771 247.748 167.027Z" fill="#CF9378"/>
<path d="M245.969 176.363C245.969 176.058 245.969 175.778 245.969 175.473C246.247 172.603 246.834 169.771 247.721 167.027C248.671 163.964 250.002 161.032 251.683 158.302C246.714 158.144 241.904 156.505 237.868 153.596C235.881 152.118 234.021 150.475 232.307 148.686C231.698 148.051 230.758 146.448 229.768 145.303C229.615 146.931 229.387 148.534 229.107 150.111C229.617 155.519 231.415 160.725 234.349 165.293C237.283 169.861 241.268 173.657 245.969 176.363Z" fill="#9C5240"/>
<path d="M173.594 192.644C164.858 202.666 161.252 216.174 158.357 228.817C154.514 245.148 150.671 261.496 146.828 277.861C145.508 283.509 143.375 291.267 144.619 297.042C146.239 303.433 150.32 308.921 155.97 312.305C161.786 315.79 170.623 317.392 176.997 314.416C183.371 311.44 190.405 308.565 194.925 303.07C198.455 298.797 199.598 293.099 200.614 287.655L204.804 265.168C210.517 234.642 216.206 202.997 209.756 172.547C195.645 174.563 182.77 181.718 173.594 192.644Z" fill="white"/>
<path d="M209.987 223.017C197.29 226.349 198.408 242.63 197.29 252.678C195.593 267.533 192.766 282.236 188.834 296.66" stroke="#485070" stroke-width="0.69" stroke-miterlimit="10"/>
<path d="M200.437 231.488C201.843 227.048 204.486 223.103 208.055 220.117" stroke="#485070" stroke-width="0.69" stroke-miterlimit="10"/>
<path d="M192.998 292.539C199.803 294.015 206.482 296.202 213.313 298.237C223.928 301.442 234.695 303.325 245.488 306.174C248.522 307.113 251.661 307.669 254.833 307.827C260.293 307.827 265.549 305.665 271.009 305.538C274.661 305.544 278.255 306.461 281.465 308.206C284.674 309.952 287.4 312.471 289.395 315.535C296.073 325.71 285.001 323.014 278.043 322.912L261.562 322.556C240.549 322.338 219.538 323.187 198.61 325.1C186.979 326.067 166.715 328.814 156.354 321.895C151.275 318.537 143.047 302.18 147.669 297.296C148.593 296.439 149.694 295.797 150.894 295.414C161.369 291.245 172.699 289.691 183.907 290.886C186.965 291.267 190 291.819 192.998 292.539Z" fill="#CF9378"/>
<path d="M371.824 345.73H230.784C229.213 345.73 227.939 347.006 227.939 348.579V349.571C227.939 351.145 229.213 352.42 230.784 352.42H371.824C373.395 352.42 374.668 351.145 374.668 349.571V348.579C374.668 347.006 373.395 345.73 371.824 345.73Z" fill="#485070"/>
<path d="M389.499 352.395H264.102L274.996 280.227C275.168 279.005 275.779 277.887 276.713 277.082C277.647 276.277 278.842 275.84 280.075 275.852H395.517C396.224 275.86 396.92 276.021 397.558 276.326C398.196 276.63 398.761 277.069 399.213 277.614C399.664 278.158 399.992 278.794 400.174 279.479C400.356 280.163 400.387 280.878 400.266 281.575L389.499 352.395Z" fill="#757E96"/>
<path d="M345.491 312.661C345.491 314.311 345.002 315.924 344.087 317.296C343.172 318.668 341.871 319.738 340.349 320.369C338.827 321.001 337.152 321.166 335.536 320.844C333.921 320.522 332.437 319.728 331.272 318.561C330.107 317.394 329.313 315.907 328.992 314.289C328.671 312.67 328.836 310.992 329.466 309.468C330.096 307.943 331.164 306.64 332.534 305.723C333.904 304.806 335.514 304.317 337.161 304.317C339.37 304.317 341.489 305.196 343.051 306.761C344.613 308.326 345.491 310.448 345.491 312.661Z" fill="url(#paint0_linear_95_1588)"/>
<path d="M272.584 121.087C271.136 115.465 265.143 120.349 259.683 118.543C254.935 116.889 251.329 115.439 246.224 116.304C241.629 117.021 237.46 119.413 234.518 123.02C233.756 124.012 233.07 125.004 232.435 126.022C230.688 129.561 229.276 133.257 228.22 137.062V137.367C228.463 144.457 230.815 151.313 234.975 157.056C236.836 159.789 239.392 161.974 242.379 163.387C245.365 164.8 248.674 165.39 251.963 165.094C255.72 164.609 259.184 162.807 261.74 160.007C264.508 156.863 266.7 153.255 268.216 149.348C270.679 143.421 274.26 127.192 272.584 121.087Z" fill="#CF9378"/>
<path d="M246.122 126.581C246.122 126.327 246.122 126.047 246.299 125.741C246.757 123.503 245.639 121.773 245.893 119.535C245.94 118.814 246.21 118.125 246.665 117.565C247.12 117.004 247.738 116.599 248.433 116.406C249.676 116.326 250.905 116.706 251.886 117.474L263.263 124.317C264.785 125.138 266.461 125.633 268.185 125.769C269.908 125.905 271.641 125.68 273.273 125.108C274.905 124.536 276.4 123.63 277.663 122.447C278.926 121.264 279.928 119.83 280.607 118.237C281.671 115.411 281.695 112.297 280.676 109.454C279.657 106.611 277.661 104.224 275.046 102.72C275.27 102.834 275.464 103 275.611 103.204C275.759 103.408 275.855 103.644 275.892 103.893C275.929 104.142 275.907 104.397 275.826 104.635C275.745 104.874 275.608 105.089 275.427 105.264C274.997 105.571 274.482 105.735 273.954 105.735C273.426 105.735 272.911 105.571 272.481 105.264C271.593 104.692 270.804 103.979 270.145 103.152C262.247 94.6307 248.509 92.5193 239.087 99.642C237.6 100.712 236.296 102.018 235.228 103.509C234.745 104.17 232.688 107.935 233.501 108.596C232.807 108.092 231.977 107.809 231.121 107.787C230.264 107.764 229.42 108.002 228.701 108.469C227.289 109.44 226.145 110.752 225.375 112.285C221.823 118.684 220.492 126.083 221.591 133.322C222.18 136.467 223.134 139.532 224.435 142.454C225.4 144.998 226.974 147.542 229.92 147.542C233.983 147.542 233.526 140.801 234.694 137.367C235.151 135.993 235.05 134.238 236.7 133.831C238.351 133.424 241.068 136.578 242.338 133.983C242.68 132.986 242.68 131.903 242.338 130.905C241.999 129.903 242.063 128.809 242.516 127.853C242.516 127.853 244.674 127.853 245.055 127.853C245.347 127.787 245.609 127.626 245.802 127.397C245.995 127.167 246.107 126.881 246.122 126.581Z" fill="#485070"/>
<path d="M259.021 140.165C259.021 140.527 258.914 140.881 258.713 141.182C258.512 141.484 258.226 141.718 257.892 141.857C257.558 141.996 257.191 142.032 256.836 141.961C256.481 141.89 256.155 141.716 255.9 141.46C255.644 141.204 255.47 140.877 255.399 140.522C255.329 140.167 255.365 139.799 255.503 139.464C255.642 139.129 255.876 138.843 256.177 138.642C256.478 138.441 256.831 138.333 257.193 138.333C257.678 138.333 258.143 138.526 258.486 138.87C258.828 139.213 259.021 139.679 259.021 140.165Z" fill="#485070"/>
<path d="M255.823 135.23C257.008 134.823 258.295 134.823 259.48 135.23" stroke="#485070" stroke-width="0.69" stroke-miterlimit="10" stroke-linecap="round"/>
<path d="M270.627 142.047C270.627 142.409 270.52 142.763 270.319 143.065C270.118 143.366 269.833 143.601 269.499 143.739C269.165 143.878 268.797 143.914 268.442 143.843C268.088 143.773 267.762 143.598 267.506 143.342C267.251 143.086 267.076 142.76 267.006 142.404C266.935 142.049 266.971 141.681 267.11 141.346C267.248 141.012 267.483 140.725 267.783 140.524C268.084 140.323 268.437 140.216 268.799 140.216C269.284 140.216 269.749 140.409 270.092 140.752C270.435 141.096 270.627 141.561 270.627 142.047Z" fill="#485070"/>
<path d="M267.377 137.112C268.571 136.705 269.865 136.705 271.059 137.112" stroke="#485070" stroke-width="0.69" stroke-miterlimit="10" stroke-linecap="round"/>
<path d="M264.101 142.938C263.898 144.564 264.335 146.207 265.32 147.516C265.597 147.833 265.781 148.22 265.853 148.636C265.816 148.861 265.711 149.069 265.552 149.233C265.393 149.397 265.188 149.508 264.964 149.551C264.521 149.653 264.061 149.653 263.618 149.551" stroke="#485070" stroke-width="0.69" stroke-miterlimit="10" stroke-linecap="round"/>
<path d="M255.798 152.986C256.66 153.728 257.681 154.261 258.782 154.543C259.883 154.826 261.035 154.85 262.146 154.614" stroke="#485070" stroke-width="0.69" stroke-miterlimit="10" stroke-linecap="round"/>
<path d="M227.71 136.858C227.705 138.192 228.095 139.498 228.832 140.61C229.568 141.722 230.617 142.59 231.847 143.104C233.076 143.618 234.43 143.755 235.737 143.498C237.044 143.241 238.245 142.601 239.189 141.659C240.133 140.717 240.776 139.516 241.038 138.208C241.3 136.9 241.168 135.543 240.659 134.31C240.151 133.076 239.288 132.022 238.181 131.28C237.074 130.538 235.772 130.142 234.44 130.142C232.659 130.142 230.951 130.849 229.69 132.108C228.429 133.366 227.717 135.075 227.71 136.858Z" fill="#CF9378"/>
<path d="M233.118 133.983C233.603 133.925 234.095 133.991 234.547 134.177C235 134.362 235.397 134.659 235.702 135.042C236.007 135.424 236.21 135.878 236.291 136.36C236.372 136.843 236.329 137.338 236.166 137.799C235.871 137.533 235.504 137.362 235.112 137.307C234.72 137.253 234.32 137.317 233.964 137.492C233.609 137.668 233.314 137.946 233.118 138.291C232.922 138.636 232.834 139.031 232.864 139.427" stroke="#485070" stroke-width="0.69" stroke-linecap="round" stroke-linejoin="round"/>
<path d="M112.294 416.27C112.294 443.743 88.6264 466.103 59.7531 466.053C30.4734 466.002 10.1579 444.812 7.28837 422.452C6.29974 415.389 6.92924 408.193 9.12916 401.41C11.3291 394.627 15.0417 388.435 19.9855 383.302C25.0016 377.796 31.1373 373.43 37.9796 370.499C44.8219 367.567 52.2117 366.139 59.6515 366.31C88.3979 366.31 112.446 388.339 112.294 416.27Z" fill="#35AAF3"/>
<path d="M66.9667 434.992H53.0252C51.3492 434.992 50.7397 434.484 50.7651 432.906C50.7651 426.064 50.435 419.195 50.9682 412.353C51.3855 407.982 53.162 403.854 56.0471 400.549C57.9756 398.164 60.0627 395.912 62.2941 393.808C62.6683 393.504 62.9632 393.114 63.1534 392.671C63.3436 392.228 63.4235 391.745 63.3861 391.264C63.3861 390.094 63.3861 388.924 63.3861 387.754C63.301 387.077 63.4448 386.391 63.7946 385.805C64.1445 385.219 64.6801 384.768 65.316 384.523C66.0245 384.237 66.8 384.158 67.5512 384.298C68.3025 384.438 68.9983 384.789 69.5569 385.312C70.6046 386.389 71.3113 387.751 71.5884 389.229C72.4044 392.819 71.9088 396.582 70.1918 399.837C69.6585 400.956 69.1506 402.126 68.5411 403.246C68.1602 403.958 68.5411 404.212 69.1506 404.314C69.5057 404.339 69.8621 404.339 70.2171 404.314H82.7873C83.7326 404.208 84.6849 404.438 85.4784 404.963C86.2719 405.489 86.8563 406.276 87.1298 407.189C87.4418 408.183 87.4055 409.255 87.0269 410.227C86.6482 411.198 85.9499 412.011 85.0474 412.531C84.2094 412.938 84.2348 413.116 85.0474 413.599C85.8123 413.975 86.4396 414.583 86.8406 415.337C87.2417 416.09 87.3961 416.95 87.2821 417.796C87.2077 418.483 86.924 419.129 86.4696 419.648C86.0152 420.167 85.4122 420.533 84.7427 420.696C84.4634 420.696 84.0063 420.696 83.9555 421.103C83.9047 421.51 84.3618 421.536 84.5903 421.688C85.1165 422.062 85.534 422.568 85.7998 423.157C86.0657 423.745 86.1704 424.394 86.1032 425.036C86.0359 425.679 85.7992 426.291 85.4173 426.812C85.0354 427.332 84.5221 427.741 83.9301 427.997C83.3714 428.226 83.1175 428.353 83.7015 428.913C84.2359 429.4 84.6013 430.046 84.7448 430.756C84.8883 431.465 84.8025 432.202 84.4998 432.86C84.197 433.518 83.6931 434.061 83.061 434.413C82.4289 434.764 81.7016 434.905 80.9843 434.814H67.0175L66.9667 434.992Z" fill="#FDFDFE"/>
<path d="M45.1498 438.808H33.5953C33.3708 438.834 33.1435 438.811 32.9284 438.742C32.7133 438.672 32.5152 438.558 32.3473 438.407C32.1794 438.256 32.0454 438.07 31.9541 437.863C31.8628 437.656 31.8163 437.432 31.8177 437.206C31.7795 436.681 31.7795 436.154 31.8177 435.629V412.734C31.8177 410.877 32.3256 410.419 34.3572 410.419H44.6673C46.064 410.419 46.775 410.979 46.775 412.226C46.775 420.213 46.775 428.175 46.775 436.163C46.775 436.163 46.5719 436.315 46.775 436.392C46.775 437.257 46.775 438.071 45.7592 438.427C45.7592 438.198 45.7592 437.943 45.3529 438.02C44.9466 438.096 45.1752 438.63 45.1498 438.808Z" fill="#FDFDFE"/>
<path d="M325.2 7.45435L319.182 26.0496H299.653L315.449 37.5476L309.405 56.1429L325.2 44.6449L340.995 56.1429L334.977 37.5476L350.747 26.0496H331.244L325.2 7.45435Z" fill="#F3EB39"/>
<path d="M413.393 228.308L409.203 241.205H395.668L406.613 249.193L402.423 262.09L413.393 254.102L424.338 262.09L420.148 249.193L431.118 241.205H417.583L413.393 228.308Z" fill="#F3EB39"/>
<path d="M89.9471 119.229L200.387 119.229C206.418 119.229 211.307 114.332 211.307 108.291V11.3972C211.307 5.35607 206.418 0.458778 200.387 0.458778L89.9471 0.458778C83.9164 0.458778 79.0276 5.35607 79.0276 11.3972V108.291C79.0276 114.332 83.9164 119.229 89.9471 119.229Z" fill="#F3EB39"/>
<path d="M194.622 80.4869H95.6855" stroke="white" stroke-width="1.02" stroke-miterlimit="10" stroke-linecap="round"/>
<path d="M194.622 69.7268H95.6855" stroke="white" stroke-width="1.02" stroke-miterlimit="10" stroke-linecap="round"/>
<path d="M194.622 58.9664H95.6855" stroke="white" stroke-width="1.02" stroke-miterlimit="10" stroke-linecap="round"/>
<path d="M102.518 87.7878L100.588 93.7404H94.3408L99.3943 97.4289L97.4643 103.407L102.518 99.7183L107.571 103.407L105.641 97.4289L110.72 93.7404H104.448L102.518 87.7878Z" fill="white"/>
<path d="M123.849 87.7878L121.919 93.7404H115.646L120.7 97.4289L118.77 103.407L123.849 99.7183L128.902 103.407L126.972 97.4289L132.026 93.7404H125.779L123.849 87.7878Z" fill="white"/>
<path d="M145.155 87.788L143.226 93.7405H136.979L142.032 97.429L140.102 103.407L145.155 99.7184L150.209 103.407L148.279 97.429L153.332 93.7405H147.085L145.155 87.788Z" fill="white"/>
<path d="M166.461 87.788L164.531 93.7405H158.284L163.338 97.429L161.408 103.407L166.461 99.7184L171.54 103.407L169.61 97.429L174.664 93.7405H168.391L166.461 87.788Z" fill="white"/>
<path d="M187.79 87.788L185.86 93.7405H179.588L184.667 97.429L182.737 103.407L187.79 99.7184L192.844 103.407L190.914 97.429L195.967 93.7405H189.72L187.79 87.788Z" fill="white"/>
<path d="M162.093 34.3167C162.093 37.6725 161.099 40.9529 159.238 43.7432C157.377 46.5334 154.732 48.7082 151.637 49.9924C148.542 51.2766 145.136 51.6126 141.85 50.9579C138.565 50.3032 135.547 48.6873 133.178 46.3144C130.809 43.9414 129.196 40.9182 128.542 37.6269C127.889 34.3355 128.224 30.924 129.506 27.8236C130.788 24.7233 132.959 22.0734 135.745 20.209C138.53 18.3446 141.805 17.3495 145.155 17.3495C149.647 17.3495 153.955 19.1371 157.132 22.3191C160.308 25.501 162.093 29.8167 162.093 34.3167Z" fill="white"/>
<path d="M43.3989 240.62C67.3675 240.62 86.7978 222.261 86.7978 199.614C86.7978 176.966 67.3675 158.607 43.3989 158.607C19.4304 158.607 0 176.966 0 199.614C0 222.261 19.4304 240.62 43.3989 240.62Z" fill="#FF4570"/>
<path d="M56.4247 184.173C53.0697 184.084 49.8159 185.329 47.3748 187.636C44.9336 189.943 43.5036 193.125 43.3974 196.485C43.2911 193.143 41.8752 189.977 39.4561 187.673C37.0369 185.368 33.8093 184.111 30.4716 184.173C27.108 184.07 23.8412 185.309 21.3889 187.618C18.9367 189.926 17.4997 193.116 17.3936 196.485C17.3936 211.875 43.4735 224.747 43.4735 224.747C43.4735 224.747 69.5789 211.875 69.5789 196.485C69.5265 194.81 69.1442 193.162 68.4539 191.635C67.7636 190.109 66.779 188.734 65.5566 187.59C64.3342 186.446 62.8982 185.555 61.331 184.969C59.7639 184.382 58.0965 184.112 56.4247 184.173Z" fill="white"/>
<path d="M502.529 229.554C477.693 229.147 470.075 255.145 467.129 275.114C460.882 317.316 456.489 366.004 453.975 408.588C452.731 429.778 451.08 447.686 450.369 468.902C449.632 490.677 448.464 528.351 449.404 550.024C449.38 550.456 449.496 550.884 449.734 551.245C450.103 551.577 450.584 551.759 451.08 551.754C460.198 552.741 469.388 552.877 478.531 552.161C478.959 552.155 479.378 552.041 479.75 551.83C480.156 551.525 476.652 550.151 476.804 549.693C483.788 528.071 488.562 489.405 490.771 466.816C495.342 419.577 505.144 373.585 522.743 329.933C540.316 288.723 550.27 230.318 502.529 229.554Z" fill="#757E96"/>
<path d="M502.528 229.554C500.828 229.534 499.13 229.654 497.449 229.91V419.399C502.846 388.787 511.355 358.809 522.844 329.933C540.315 288.723 550.269 230.317 502.528 229.554Z" fill="#545D78"/>
<path d="M477.768 570.323H414.79V563.251H480.104V567.983C480.104 568.604 479.858 569.199 479.42 569.638C478.982 570.077 478.388 570.323 477.768 570.323Z" fill="#485070"/>
<path d="M415.705 565.159C415.463 564.836 415.259 564.486 415.096 564.117C414.475 562.291 414.461 560.313 415.057 558.479C415.652 556.645 416.824 555.053 418.397 553.941C421.656 551.659 425.346 550.066 429.24 549.261C437.276 546.801 445.473 544.905 453.771 543.588C456.006 543.283 479.801 541.044 479.699 540.027C480.055 546.03 480.435 552.033 480.791 558.062C481.248 560.406 481.248 562.816 480.791 565.159H415.705Z" fill="#F3EB39"/>
<path d="M468.881 535.066C467.002 533.635 464.721 532.83 462.361 532.767C460.001 532.703 457.681 533.382 455.727 534.71C453.811 536.09 452.275 537.933 451.262 540.068C450.25 542.204 449.794 544.561 449.937 546.92C449.908 547.355 449.968 547.791 450.112 548.202C450.256 548.613 450.482 548.99 450.775 549.312C451.511 549.837 452.418 550.064 453.314 549.948L464.589 550.075C466.926 550.075 469.897 550.66 471.522 548.549C474.341 544.835 471.674 537.865 468.881 535.066Z" fill="#F3EB39"/>
<path d="M444.121 545.318C445.233 545.206 446.35 545.464 447.301 546.053C448.251 546.641 448.981 547.528 449.378 548.574" stroke="#485070" stroke-width="0.96" stroke-miterlimit="10" stroke-linecap="round"/>
<path d="M442.775 551.041C442.185 550.09 441.367 549.302 440.396 548.746C439.425 548.191 438.332 547.887 437.214 547.862" stroke="#485070" stroke-width="0.96" stroke-miterlimit="10" stroke-linecap="round"/>
<path d="M434.522 552.008C434.234 551.323 433.755 550.735 433.143 550.316C432.53 549.896 431.81 549.662 431.068 549.642" stroke="#485070" stroke-width="0.96" stroke-miterlimit="10" stroke-linecap="round"/>
<path d="M510.705 394.826C515.784 445.295 524.976 497.087 530.741 547.454C542.549 548.472 546.841 547.683 558.294 545.75C565.912 490.88 568.985 464.348 562.204 408.766C561.519 403.068 562.204 355.753 561.925 349.673C560.706 313.5 565.531 266.007 543.844 235.456C538.385 227.824 529.395 221.846 520.278 222.559C517.141 222.858 514.109 223.853 511.403 225.473C508.698 227.092 506.386 229.294 504.635 231.92C493.437 247.183 499.684 288.545 501.664 306.606C504.305 330.696 508.292 370.761 510.705 394.826Z" fill="#757E96"/>
<path d="M557.406 570.883H494.428V563.812H559.742V568.543C559.742 569.164 559.496 569.759 559.058 570.198C558.62 570.637 558.026 570.883 557.406 570.883Z" fill="#485070"/>
<path d="M495.316 565.745C495.083 565.415 494.88 565.066 494.707 564.702C494.099 562.875 494.091 560.901 494.685 559.07C495.279 557.238 496.444 555.646 498.008 554.526C501.274 552.251 504.961 550.651 508.851 549.82C516.896 547.369 525.101 545.482 533.408 544.173C535.642 543.868 559.412 541.629 559.31 540.612C559.691 546.615 560.046 552.619 560.427 558.622C560.872 560.975 560.872 563.391 560.427 565.745H495.316Z" fill="#F3EB39"/>
<path d="M548.519 535.651C546.64 534.22 544.36 533.415 541.999 533.351C539.639 533.287 537.319 533.967 535.365 535.295C533.454 536.679 531.922 538.524 530.91 540.658C529.898 542.792 529.439 545.147 529.575 547.505C529.547 547.94 529.606 548.376 529.75 548.787C529.894 549.197 530.12 549.575 530.413 549.896C531.157 550.404 532.058 550.63 532.953 550.532L544.202 550.66C546.539 550.66 549.535 551.219 551.16 549.133C553.954 545.394 551.287 538.424 548.519 535.651Z" fill="#F3EB39"/>
<path d="M523.758 545.903C524.865 545.797 525.977 546.058 526.922 546.646C527.867 547.234 528.594 548.117 528.989 549.159" stroke="#485070" stroke-width="0.96" stroke-miterlimit="10" stroke-linecap="round"/>
<path d="M522.388 551.627C521.803 550.676 520.99 549.887 520.023 549.331C519.056 548.776 517.966 548.472 516.852 548.447" stroke="#485070" stroke-width="0.96" stroke-miterlimit="10" stroke-linecap="round"/>
<path d="M514.132 552.517C513.847 551.83 513.369 551.24 512.756 550.82C512.143 550.4 511.421 550.168 510.679 550.151" stroke="#485070" stroke-width="0.96" stroke-miterlimit="10" stroke-linecap="round"/>
<path d="M507.43 285.518H507.659C509.944 285.874 512.204 286.23 514.49 286.51L519.568 287.044L521.244 287.197L525.46 287.502H527.847H529.701C539.9 287.93 550.116 287.265 560.174 285.518C561.088 285.34 558.752 264.99 558.295 263.133C556.609 255.798 554.052 248.692 550.677 241.968C545.877 232.531 538.233 223.704 527.822 220.142C514.769 215.64 500.142 219.379 489.07 227.087C476.22 236.041 471.065 250.312 468.043 265.04C467.256 268.907 466.24 272.112 470.151 274.046C474.278 275.993 478.518 277.692 482.848 279.133C490.838 281.984 499.064 284.121 507.43 285.518Z" fill="#545D78"/>
<path d="M576.047 99.2094C574.396 97.1489 572.212 95.1902 572.085 92.57C571.882 88.3219 577.164 85.4474 577.164 81.1992C577.164 77.6633 573.634 75.2212 570.409 73.7967C567.184 72.3722 563.4 70.8204 562.232 67.4626C561.267 64.6644 562.512 61.6627 562.918 58.7373C563.273 55.7628 562.776 52.7485 561.486 50.0461C560.195 47.3437 558.164 45.0645 555.63 43.4745C550.221 40.1929 543.618 44.1104 538.133 44.9244C535.262 45.356 532.543 46.4955 530.22 48.2406C527.897 49.9856 526.044 52.2814 524.826 54.9216C522.403 60.2776 521.131 66.0846 521.093 71.9652C521.063 77.8312 520.621 83.6878 519.773 89.492C518.313 95.5903 515.73 101.362 512.155 106.51C509.521 110.514 508.471 115.357 509.209 120.094C510.352 124.342 514.288 127.242 517.919 129.532C525.09 134.172 533.168 137.225 541.612 138.486C549.65 139.606 557.823 137.801 564.645 133.398C569.03 131.456 572.837 128.405 575.691 124.546C581.075 117.016 581.659 106.205 576.047 99.2094Z" fill="#485070"/>
<path d="M543.031 59.4242C543.058 61.2724 542.715 63.1073 542.021 64.8202C541.328 66.533 540.298 68.089 538.993 69.396C538.619 69.8688 538.124 70.2317 537.561 70.4466C536.998 70.6615 536.387 70.7203 535.794 70.617C534.473 70.1591 534.117 68.4802 534.041 67.0811C533.847 63.2392 534.111 59.3877 534.829 55.6085C535.26 53.2936 536.809 49.3253 539.907 51.0042C542.142 52.3016 543.005 57.0585 543.031 59.4242Z" fill="#F3EB39"/>
<path d="M525.206 115.337C521.346 122.231 509.258 122.485 504.89 111.928C504.357 110.631 503.925 109.385 503.494 107.96C496.18 107.35 485.032 107.553 478.861 112.285C476.933 113.984 475.362 116.051 474.239 118.364C469.567 126.581 465.3 135.077 461.542 143.802C461.025 144.765 460.746 145.838 460.729 146.931C460.954 148.257 461.533 149.496 462.406 150.518C470.024 161.635 474.95 224.034 474.95 224.034C474.95 224.034 469.059 251.584 466.189 269.263C481.426 275.267 550.905 278.777 560.656 273.639C560.656 262.217 553.317 247.641 552.784 230.725C551.997 205.897 556.568 178.449 558.574 161.329C559.996 149.119 558.574 136.654 557.177 124.419C556.847 121.57 557.457 115.363 556.085 113.15C554.257 110.224 530.564 107.121 528.151 106.485C527.872 107.986 527.567 109.461 527.237 110.936C526.782 112.496 526.097 113.979 525.206 115.337Z" fill="#F3EB39"/>
<path d="M503.57 93.842C503.452 90.7408 502.958 87.6655 502.097 84.6843C506.764 85.8213 511.665 85.5289 516.165 83.8449C518.391 82.974 520.54 81.9189 522.59 80.6905C523.326 80.2581 524.596 79.0116 525.815 78.1467C524.19 79.2406 525.002 88.322 525.155 90.0772C525.44 94.0026 526.475 97.8367 528.202 101.372C529.904 104.78 531.402 105.696 530.742 109.69C529.93 114.018 528.15 118.106 525.536 121.646C524.154 123.949 522.058 125.735 519.568 126.734C518.064 127.084 516.504 127.123 514.984 126.847C513.464 126.572 512.017 125.988 510.731 125.131C506.211 122.587 500.573 116.635 500.294 111.064C500.116 108.138 501.513 107.044 502.503 104.373C503.539 100.966 503.901 97.3886 503.57 93.842Z" fill="#FFC1A6"/>
<path d="M502.807 102.974C502.889 102.707 502.957 102.435 503.01 102.16C504.034 96.341 503.722 90.3645 502.096 84.6843C506.763 85.8213 511.664 85.5289 516.164 83.8449C518.389 82.974 520.538 81.9189 522.589 80.6905C523.325 80.2581 524.595 79.0116 525.814 78.1467C525.526 79.69 525.323 81.2417 525.205 82.8019C523.358 87.7161 520.359 92.1138 516.462 95.6244C512.564 99.135 507.881 101.656 502.807 102.974Z" fill="#E3856D"/>
<path d="M481.374 59.6279C481.159 67.8242 483.63 75.8656 488.409 82.5222C489.64 84.3673 491.251 85.9283 493.132 87.101C494.073 87.6824 495.133 88.0417 496.233 88.1519C497.333 88.2621 498.443 88.1202 499.48 87.737C502.35 86.4905 503.671 83.209 504.686 80.1055C506.744 74.5956 508.126 68.8553 508.8 63.0111C509.469 57.1319 508.26 51.1916 505.347 46.0439C502.807 41.9484 494.732 34.8257 489.424 38.0309C483.584 41.5159 481.527 53.599 481.374 59.6279Z" fill="#485070"/>
<path d="M489.882 47.6209C492.142 42.5333 497.068 48.1297 502.579 47.1885C507.379 46.3999 511.035 45.5859 515.759 47.1885C520.05 48.5879 523.67 51.5342 525.916 55.4559C526.475 56.5243 526.983 57.5672 527.44 58.6356C528.524 62.2919 529.28 66.0376 529.7 69.8284V70.0573C528.344 76.7691 525.009 82.919 520.126 87.7114C517.942 90.0574 515.165 91.7685 512.09 92.6641C509.015 93.5596 505.755 93.6062 502.655 92.799C499.121 91.8038 496.064 89.5636 494.047 86.4904C491.903 83.0558 490.39 79.2653 489.577 75.2976C488.13 69.2179 487.393 53.2428 489.882 47.6209Z" fill="#FFC1A6"/>
<path d="M510.426 64.0285C504.819 61.4461 499.52 58.2375 494.631 54.4638C491.098 51.4659 488.718 47.328 487.902 42.7622C487.241 38.1579 489.273 35.6141 492.599 32.587C497.461 28.4163 503.67 26.1563 510.071 26.2275C516.394 26.2275 523.149 30.6028 528.278 34.1387C531.922 36.4941 534.855 39.8012 536.76 43.7034C539.858 50.5463 538.792 60.5689 536.506 67.539C535.439 70.3768 534.05 73.0825 532.367 75.6029C531.072 77.7651 529.142 80.1054 526.323 79.6984C524.393 79.4186 522.108 73.059 520.533 71.3293C517.964 68.6865 515.01 66.4481 511.772 64.6899C511.315 64.5118 510.858 64.2829 510.426 64.0285Z" fill="#485070"/>
<path d="M499.734 67.9712C499.694 68.2002 499.7 68.4348 499.751 68.6615C499.803 68.8883 499.899 69.1025 500.033 69.2918C500.168 69.4812 500.339 69.6418 500.536 69.7644C500.733 69.8871 500.953 69.9693 501.182 70.0062C501.643 70.0838 502.116 69.9746 502.497 69.7027C502.878 69.4308 503.136 69.0184 503.213 68.5562C503.291 68.0941 503.182 67.6201 502.91 67.2384C502.639 66.8568 502.227 66.5988 501.766 66.5212C501.537 66.4812 501.303 66.487 501.077 66.5385C500.85 66.5899 500.636 66.6858 500.447 66.8207C500.258 66.9556 500.098 67.1268 499.976 67.3243C499.853 67.5218 499.771 67.7417 499.734 67.9712Z" fill="#485070"/>
<path d="M503.594 63.7743C502.513 63.2243 501.279 63.0541 500.09 63.291" stroke="#485070" stroke-width="0.72" stroke-miterlimit="10" stroke-linecap="round"/>
<path d="M488.41 67.9205C488.333 68.3827 488.442 68.8567 488.713 69.2384C488.985 69.62 489.396 69.878 489.858 69.9556C490.319 70.0332 490.792 69.924 491.173 69.6521C491.554 69.3801 491.812 68.9678 491.889 68.5056C491.967 68.0435 491.858 67.5694 491.586 67.1878C491.315 66.8061 490.903 66.5481 490.442 66.4706C489.98 66.393 489.507 66.5021 489.126 66.7741C488.745 67.046 488.488 67.4584 488.41 67.9205Z" fill="#485070"/>
<path d="M492.293 63.7233C491.207 63.1616 489.961 62.991 488.764 63.24" stroke="#485070" stroke-width="0.72" stroke-miterlimit="10" stroke-linecap="round"/>
<path d="M494.528 69.8029C494.452 71.3819 493.781 72.8732 492.649 73.9747C492.312 74.2154 492.069 74.5663 491.963 74.9668C491.959 75.1864 492.023 75.402 492.145 75.5841C492.268 75.7661 492.444 75.9059 492.649 75.9843C493.068 76.1114 493.507 76.1631 493.944 76.137" stroke="#485070" stroke-width="0.72" stroke-miterlimit="10" stroke-linecap="round"/>
<path d="M500.776 80.6903C499.842 81.2691 498.785 81.6191 497.691 81.7119C496.597 81.8048 495.496 81.6378 494.479 81.2245" stroke="#485070" stroke-width="0.72" stroke-miterlimit="10" stroke-linecap="round"/>
<path d="M530.108 69.803C529.895 71.0671 529.313 72.2397 528.436 73.1727C527.558 74.1058 526.425 74.7575 525.178 75.0455C523.931 75.3335 522.626 75.245 521.43 74.791C520.233 74.3371 519.197 73.5381 518.453 72.495C517.709 71.4518 517.291 70.2113 517.25 68.93C517.21 67.6488 517.549 66.3842 518.226 65.296C518.902 64.2077 519.885 63.3447 521.051 62.8158C522.217 62.2869 523.513 62.1158 524.775 62.3242C526.471 62.6108 527.984 63.5588 528.983 64.9604C529.983 66.3621 530.387 68.1033 530.108 69.803Z" fill="#FFC1A6"/>
<path d="M525.41 66.14C524.973 66.0243 524.514 66.0147 524.073 66.1121C523.631 66.2094 523.219 66.4108 522.87 66.6996C522.522 67.0158 522.259 67.4142 522.104 67.8584C521.948 68.3027 521.906 68.7788 521.982 69.2434C522.299 69.0365 522.67 68.9264 523.048 68.9264C523.427 68.9264 523.797 69.0365 524.115 69.2434C524.416 69.4789 524.645 69.7947 524.776 70.1547C524.906 70.5147 524.932 70.9042 524.851 71.2785" stroke="#485070" stroke-width="0.72" stroke-linecap="round" stroke-linejoin="round"/>
<path d="M349.425 210.908L463.877 210.908C470.132 210.908 475.203 205.829 475.203 199.563V99.1585C475.203 92.8927 470.132 87.8131 463.877 87.8131L349.425 87.8131C343.17 87.8131 338.099 92.8927 338.099 99.1585V199.563C338.099 205.829 343.17 210.908 349.425 210.908Z" fill="url(#paint1_linear_95_1588)"/>
<path d="M335.56 112.819C334.503 114.063 333.535 115.38 332.665 116.762C329.871 121.137 328.373 134.187 328.373 134.187C328.373 134.187 337.744 162.016 337.744 162.805C337.744 159.599 338.201 141.564 338.201 141.564C338.201 141.564 342.365 138.537 344.803 136.959C350.263 133.347 355.113 129.684 352.548 122.282C353.285 124.393 356.586 123.325 357.272 121.061C357.495 119.953 357.437 118.807 357.105 117.727C356.772 116.647 356.175 115.668 355.367 114.879C353.02 112.24 349.764 110.586 346.251 110.249C342.501 109.897 338.741 110.801 335.56 112.819Z" fill="#FFC1A6"/>
<path d="M457.938 170.767H355.37" stroke="#485070" stroke-width="1.44" stroke-miterlimit="10" stroke-linecap="round"/>
<path d="M457.938 159.625H355.37" stroke="#485070" stroke-width="1.44" stroke-miterlimit="10" stroke-linecap="round"/>
<path d="M457.938 148.483H355.37" stroke="#485070" stroke-width="1.44" stroke-miterlimit="10" stroke-linecap="round"/>
<path d="M362.453 178.347L360.447 184.529H353.972L359.228 188.345L357.222 194.526L362.453 190.71L367.71 194.526L365.704 188.345L370.935 184.529H364.46L362.453 178.347Z" fill="#485070"/>
<path d="M384.546 178.347L382.565 184.529H376.064L381.321 188.345L379.315 194.526L384.546 190.71L389.803 194.526L387.797 188.345L393.053 184.529H386.552L384.546 178.347Z" fill="#485070"/>
<path d="M406.639 178.347L404.633 184.529H398.157L403.414 188.345L401.408 194.526L406.639 190.71L411.896 194.526L409.889 188.345L415.146 184.529H408.645L406.639 178.347Z" fill="#485070"/>
<path d="M428.734 178.347L426.753 184.529H420.252L425.509 188.345L423.502 194.526L428.734 190.71L433.99 194.526L431.984 188.345L437.241 184.529H430.74L428.734 178.347Z" fill="#485070"/>
<path d="M450.826 178.347L448.846 184.529H442.345L447.601 188.345L445.595 194.526L450.826 190.71L456.083 194.526L454.077 188.345L459.334 184.529H452.833L450.826 178.347Z" fill="#485070"/>
<path d="M424.212 122.918C424.212 126.399 423.182 129.803 421.251 132.698C419.32 135.592 416.575 137.849 413.364 139.181C410.153 140.513 406.62 140.862 403.211 140.183C399.802 139.504 396.671 137.827 394.213 135.365C391.756 132.903 390.082 129.767 389.404 126.352C388.726 122.937 389.074 119.398 390.404 116.181C391.734 112.965 393.986 110.216 396.876 108.281C399.766 106.347 403.164 105.315 406.639 105.315C411.3 105.315 415.77 107.169 419.065 110.471C422.361 113.772 424.212 118.249 424.212 122.918Z" fill="#485070"/>
<path d="M574.038 126.53C570.635 118.898 562.941 113.658 554.84 111.267H554.434C552.867 110.851 551.209 110.936 549.692 111.511C548.176 112.086 546.877 113.121 545.977 114.472C540.758 122.75 536.916 131.823 534.601 141.335C533.94 143.879 533.356 146.423 532.849 148.966C532.25 152.322 532.712 155.781 534.169 158.862C534.169 159.091 534.372 159.294 534.448 159.523C535.473 163.169 535.868 166.963 535.616 170.741C535.826 178.664 535.127 186.585 533.534 194.348C532.366 200.046 530.842 206.584 535.236 211.01C536.589 212.239 538.224 213.114 539.996 213.557C541.768 214.001 543.622 214 545.393 213.554C551.691 212.256 556.059 207.321 559.614 202.259C567.472 191.148 573.095 178.612 576.171 165.348C578.99 153.393 579.142 138.053 574.038 126.53Z" fill="#F3EB39"/>
<path d="M527.262 182.443L548.288 138.893" stroke="#485070" stroke-width="0.65" stroke-miterlimit="10"/>
<path d="M541.991 140.267C542.296 143.014 542.575 145.787 542.88 148.56" stroke="#485070" stroke-width="0.65" stroke-miterlimit="10"/>
<path d="M463.675 200.402C464.868 200.316 466.068 200.419 467.23 200.708C477.616 203.251 487.977 205.032 498.668 206.838C505.829 208.059 512.914 209.56 519.872 211.366C525.51 212.816 531.655 215.818 537.521 215.792C543.387 215.767 548.111 215.207 552.326 211.213C554.332 209.28 556.262 207.245 558.04 205.159C559.161 204.058 559.915 202.636 560.199 201.089C560.91 188.777 545.394 185.496 536.099 184.147C521.492 181.843 506.725 180.712 491.939 180.764C478.725 181.296 465.559 182.689 452.527 184.936C447.782 185.373 443.159 186.684 438.89 188.802C436.053 190.291 433.883 192.799 432.814 195.823C431.745 198.846 431.856 202.163 433.125 205.108C433.507 206.016 434.113 206.812 434.886 207.421C435.659 208.031 436.573 208.434 437.544 208.593C439.677 208.797 441.759 206.482 440.286 205.21C450.266 212.613 453.72 201.191 463.675 200.402Z" fill="#FFC1A6"/>
<defs>
<linearGradient id="paint0_linear_95_1588" x1="328.832" y1="312.661" x2="345.491" y2="312.661" gradientUnits="userSpaceOnUse">
<stop stop-color="white"/>
<stop offset="1" stop-color="white"/>
</linearGradient>
<linearGradient id="paint1_linear_95_1588" x1="338.099" y1="149.373" x2="475.203" y2="149.373" gradientUnits="userSpaceOnUse">
<stop stop-color="white"/>
<stop offset="1" stop-color="white"/>
</linearGradient>
</defs>
</svg>
