<svg width="26" height="31" viewBox="0 0 26 31" fill="none" xmlns="http://www.w3.org/2000/svg">
<path d="M24.9088 24.2779L18.8233 8.56007C18.6911 8.22635 18.4308 7.95775 18.0991 7.81275L12.3083 5.2545C12.1301 4.46198 11.7743 3.719 11.2672 3.08018C10.7601 2.44135 10.1146 1.92293 9.378 1.56303C8.64143 1.20313 7.83258 1.01089 7.01092 1.00045C6.18925 0.990011 5.37568 1.16164 4.62998 1.50271C3.88429 1.84379 3.22545 2.34564 2.7019 2.97137C2.17834 3.5971 1.80339 4.3308 1.6046 5.11853C1.40581 5.90626 1.38825 6.72799 1.5532 7.52331C1.71814 8.31862 2.0614 9.06731 2.55775 9.71432L1.4031 10.8551C1.27496 10.9817 1.17339 11.132 1.10422 11.2975C1.03504 11.463 0.999623 11.6403 1 11.8194V28.6423C1 29.0024 1.1448 29.3477 1.40252 29.6023C1.66024 29.857 2.00978 30 2.37426 30H15.2042C15.5242 29.9989 15.8338 29.8875 16.0797 29.6851C16.3255 29.4827 16.4922 29.2019 16.5511 28.8911L24.1124 26.0349C24.2817 25.9714 24.4366 25.8756 24.5683 25.7529C24.7 25.6302 24.8059 25.483 24.8799 25.3198C24.9539 25.1566 24.9945 24.9805 24.9995 24.8017C25.0044 24.6229 24.9736 24.4449 24.9088 24.2779ZM2.37328 6.45889C2.37454 5.40879 2.74524 4.39178 3.42192 3.58198C4.0986 2.77218 5.03916 2.21997 6.08258 2.01988C7.126 1.81979 8.20738 1.98428 9.14156 2.48517C10.0757 2.98607 10.8046 3.79222 11.2034 4.76561L8.97611 3.783C8.89137 3.74468 8.79681 3.73283 8.70507 3.74903C8.61333 3.76522 8.52878 3.8087 8.46272 3.87364L3.21071 9.0615C2.66681 8.29951 2.37404 7.39033 2.37231 6.45793L2.37328 6.45889ZM15.6619 28.6375C15.6619 28.6969 15.6501 28.7557 15.6271 28.8105C15.6041 28.8654 15.5703 28.9153 15.5278 28.9573C15.4853 28.9993 15.4349 29.0326 15.3793 29.0553C15.3238 29.078 15.2643 29.0897 15.2042 29.0897H2.37328C2.25196 29.0895 2.13567 29.0417 2.04988 28.957C1.96409 28.8722 1.91578 28.7573 1.91552 28.6375V11.8145C1.91517 11.755 1.92671 11.696 1.94949 11.6409C1.97227 11.5858 2.00584 11.5357 2.04826 11.4934L3.16679 10.3884C4.11941 11.2904 5.3686 11.824 6.68635 11.8917C6.90875 12.4071 7.31669 12.8228 7.8313 13.0582C8.3459 13.2937 8.93062 13.3324 9.47237 13.1666C10.0141 13.0009 10.4744 12.6426 10.7643 12.161C11.0541 11.6794 11.153 11.1087 11.0416 10.5593C10.9303 10.0099 10.6167 9.5208 10.1615 9.18658C9.70634 8.85235 9.14188 8.69674 8.5773 8.74985C8.01273 8.80295 7.48814 9.06099 7.10496 9.47407C6.72179 9.88715 6.50726 10.4259 6.50285 10.9862C5.49698 10.8852 4.55305 10.4588 3.8178 9.77314L8.78871 4.83697L15.5292 11.4905C15.5716 11.5328 15.6052 11.5829 15.6279 11.638C15.6507 11.6931 15.6623 11.7521 15.6619 11.8116V28.6375ZM9.21525 10.9361C9.17139 10.8246 9.08464 10.7349 8.97398 10.6864C8.86332 10.638 8.73775 10.6348 8.62474 10.6776C8.23782 10.8355 7.83045 10.939 7.41447 10.9853C7.41086 10.6606 7.52369 10.3452 7.73297 10.095C7.94226 9.84469 8.23448 9.67571 8.55782 9.61796C8.88117 9.56022 9.21477 9.61744 9.49949 9.77949C9.78422 9.94154 10.0017 10.1979 10.1133 10.5033C10.225 10.8086 10.2236 11.1431 10.1094 11.4475C9.99529 11.7519 9.77573 12.0066 9.48968 12.1664C9.20363 12.3261 8.86958 12.3807 8.54671 12.3203C8.22385 12.26 7.93304 12.0887 7.72583 11.8367C8.14615 11.7782 8.55818 11.6718 8.95367 11.5195C9.06647 11.4761 9.15732 11.3904 9.20634 11.2811C9.25536 11.1718 9.25857 11.0477 9.21525 10.9361ZM24.0392 24.9703C24.0146 25.0251 23.9793 25.0746 23.9352 25.1158C23.8912 25.157 23.8392 25.1892 23.7825 25.2104L16.5794 27.9104V11.8145C16.5798 11.6355 16.5444 11.4582 16.4752 11.2927C16.406 11.1272 16.3044 10.9768 16.1763 10.8503L10.8696 5.60839L17.7428 8.63722C17.7978 8.66016 17.8473 8.69412 17.8883 8.73694C17.9293 8.77976 17.9608 8.83052 17.981 8.886L24.048 24.6048C24.0911 24.7162 24.0879 24.84 24.0392 24.9491V24.9703Z" fill="#27C153" stroke="#27C153" stroke-width="1.5"/>
<path d="M14.2874 20.9453H3.28954C3.16801 20.9453 3.05145 20.993 2.96551 21.0779C2.87958 21.1628 2.8313 21.278 2.8313 21.3981C2.8313 21.5181 2.87958 21.6333 2.96551 21.7182C3.05145 21.8031 3.16801 21.8508 3.28954 21.8508H14.2874C14.409 21.8508 14.5255 21.8031 14.6115 21.7182C14.6974 21.6333 14.7457 21.5181 14.7457 21.3981C14.7457 21.278 14.6974 21.1628 14.6115 21.0779C14.5255 20.993 14.409 20.9453 14.2874 20.9453Z" fill="#27C153"/>
<path d="M14.2874 23.6621H3.28954C3.16801 23.6621 3.05145 23.7098 2.96551 23.7947C2.87958 23.8796 2.8313 23.9948 2.8313 24.1149C2.8313 24.2349 2.87958 24.3501 2.96551 24.435C3.05145 24.5199 3.16801 24.5676 3.28954 24.5676H14.2874C14.409 24.5676 14.5255 24.5199 14.6115 24.435C14.6974 24.3501 14.7457 24.2349 14.7457 24.1149C14.7457 23.9948 14.6974 23.8796 14.6115 23.7947C14.5255 23.7098 14.409 23.6621 14.2874 23.6621Z" fill="#27C153"/>
<path d="M14.2874 26.3779H3.28954C3.16801 26.3779 3.05145 26.4256 2.96551 26.5105C2.87958 26.5954 2.8313 26.7106 2.8313 26.8307C2.8313 26.9507 2.87958 27.0659 2.96551 27.1508C3.05145 27.2357 3.16801 27.2834 3.28954 27.2834H14.2874C14.409 27.2834 14.5255 27.2357 14.6115 27.1508C14.6974 27.0659 14.7457 26.9507 14.7457 26.8307C14.7457 26.7106 14.6974 26.5954 14.6115 26.5105C14.5255 26.4256 14.409 26.3779 14.2874 26.3779Z" fill="#27C153"/>
<path d="M3.10615 19.0942C3.13378 19.106 3.16309 19.1135 3.19302 19.1164H3.48582C3.51723 19.1129 3.54807 19.1054 3.57758 19.0942C3.59588 19.0887 3.61194 19.0775 3.62345 19.0624C3.62816 19.0477 3.62816 19.0318 3.62345 19.0171V16.6276C3.66053 16.724 3.70543 16.8205 3.75619 16.9265C3.80694 17.0326 3.84794 17.1261 3.89772 17.2158L4.7 18.7095C4.73464 18.7779 4.77276 18.8445 4.8142 18.9091C4.84205 18.9567 4.87767 18.9993 4.91961 19.0354C4.9522 19.065 4.99129 19.0868 5.03381 19.0991C5.08412 19.1039 5.13479 19.1039 5.1851 19.0991H5.46424C5.49642 19.1057 5.52966 19.1057 5.56185 19.0991C5.5912 19.093 5.61824 19.079 5.63992 19.0586C5.66313 19.0386 5.68176 19.0139 5.69457 18.9862C5.70195 18.9519 5.70195 18.9164 5.69457 18.8821V16.0076C5.69883 15.9944 5.69883 15.9802 5.69457 15.967C5.68332 15.9508 5.66732 15.9384 5.6487 15.9314C5.62107 15.9196 5.59178 15.9121 5.56185 15.9092H5.26903L5.17728 15.9314C5.15649 15.9389 5.13777 15.9511 5.12262 15.967C5.11882 15.9803 5.11882 15.9943 5.12262 16.0076V18.2302L5.03088 18.0306L4.82884 17.6227L4.71854 17.4144L4.08608 16.2467C4.0594 16.1903 4.02875 16.1358 3.99434 16.0837C3.96917 16.0429 3.93598 16.0075 3.89673 15.9796C3.86228 15.9558 3.82351 15.9387 3.78253 15.9294C3.72947 15.9216 3.67554 15.9216 3.62248 15.9294H3.2877C3.22548 15.9263 3.1645 15.9475 3.11786 15.9883C3.09446 16.0102 3.07623 16.0369 3.06442 16.0666C3.05262 16.0962 3.04754 16.1281 3.04954 16.1599V19.0344C3.04501 19.0492 3.04501 19.065 3.04954 19.0798C3.06585 19.0899 3.08499 19.0946 3.1042 19.0933L3.10615 19.0942Z" fill="#27C153"/>
<path d="M7.12956 19.1083H8.75172C8.76486 19.1136 8.77956 19.1136 8.7927 19.1083C8.80696 19.098 8.8181 19.084 8.82492 19.0679C8.82864 19.0423 8.82864 19.0163 8.82492 18.9907C8.82801 18.9499 8.82801 18.909 8.82492 18.8682C8.82779 18.8291 8.82779 18.7898 8.82492 18.7506C8.82864 18.725 8.82864 18.699 8.82492 18.6735C8.81929 18.6554 8.80801 18.6395 8.7927 18.6281C8.77956 18.6229 8.76486 18.6229 8.75172 18.6281H7.58731V17.7227H8.56334C8.57672 17.7265 8.59095 17.7265 8.60434 17.7227C8.61705 17.7119 8.62651 17.6979 8.63167 17.6822C8.63742 17.6568 8.63742 17.6304 8.63167 17.605C8.63453 17.5659 8.63453 17.5265 8.63167 17.4874C8.63454 17.4482 8.63454 17.4089 8.63167 17.3697C8.63692 17.3443 8.63692 17.3181 8.63167 17.2926C8.62651 17.2769 8.61705 17.2629 8.60434 17.2521H7.58242V16.419H8.73708C8.75183 16.4246 8.76819 16.4246 8.78295 16.419C8.79715 16.4066 8.80818 16.391 8.81515 16.3736C8.81658 16.3479 8.81658 16.3222 8.81515 16.2965C8.81759 16.2573 8.81759 16.218 8.81515 16.1789C8.81781 16.1381 8.81781 16.0972 8.81515 16.0564V15.9754C8.80833 15.9593 8.7972 15.9453 8.78295 15.9349C8.76964 15.9306 8.75526 15.9306 8.74195 15.9349H7.12467C7.07306 15.935 7.02308 15.9528 6.98314 15.985C6.96315 16.0052 6.94789 16.0295 6.93845 16.0562C6.929 16.0828 6.9256 16.1112 6.92848 16.1393V18.928C6.92574 18.9567 6.9292 18.9856 6.93863 19.0129C6.94805 19.0402 6.96322 19.0651 6.98314 19.0862C7.0265 19.1089 7.07631 19.1167 7.12467 19.1083H7.12956Z" fill="#27C153"/>
<path d="M10.4616 18.9449C10.4687 18.9788 10.4812 19.0113 10.4987 19.0413C10.5181 19.0651 10.5433 19.0837 10.5719 19.0953C10.6164 19.1097 10.6628 19.1172 10.7095 19.1175H11.1634C11.2085 19.1167 11.2533 19.1092 11.2961 19.0953C11.3255 19.0847 11.3498 19.0638 11.3644 19.0365C11.3831 19.0092 11.3957 18.9783 11.4016 18.9458L11.8896 16.9209L12.4069 18.9458C12.4118 18.9803 12.4244 19.0133 12.444 19.0423C12.4604 19.067 12.4843 19.0859 12.5123 19.0963C12.557 19.1096 12.6032 19.1171 12.6499 19.1185H13.0901C13.1352 19.1177 13.18 19.1102 13.2228 19.0963C13.2549 19.086 13.2836 19.0674 13.3058 19.0423C13.3228 19.0116 13.3366 18.9793 13.3468 18.9458L14.0895 16.162C14.102 16.1146 14.1095 16.0662 14.112 16.0173C14.1145 16.0036 14.1137 15.9895 14.1099 15.9761C14.106 15.9628 14.099 15.9504 14.0895 15.9402C14.0656 15.9185 14.035 15.9056 14.0027 15.9035H13.6503C13.6179 15.8993 13.5851 15.8993 13.5527 15.9035C13.5319 15.9137 13.5143 15.9294 13.502 15.9488C13.502 15.9713 13.502 15.9938 13.502 16.0163L12.9164 18.4791L12.3073 16.0482C12.3004 16.0217 12.2913 15.9959 12.28 15.971C12.2676 15.9501 12.2483 15.9341 12.2253 15.9257C12.1888 15.9196 12.1515 15.9196 12.115 15.9257H11.7441C11.7075 15.9219 11.6705 15.9219 11.6338 15.9257C11.6129 15.9372 11.5943 15.9526 11.5792 15.971C11.5761 15.9966 11.5761 16.0225 11.5792 16.0482L10.9877 18.4791L10.4197 16.0299C10.4233 16.0059 10.4233 15.9815 10.4197 15.9575C10.415 15.9486 10.4085 15.9408 10.4006 15.9344C10.3927 15.9281 10.3836 15.9235 10.3738 15.9209C10.339 15.9144 10.3032 15.9144 10.2684 15.9209H9.88381C9.84824 15.9229 9.8142 15.9357 9.78623 15.9575C9.77467 15.9666 9.76563 15.9785 9.75999 15.992C9.75436 16.0055 9.75229 16.0202 9.754 16.0347C9.75895 16.082 9.76811 16.1288 9.78135 16.1745L10.4616 18.9449Z" fill="#27C153"/>
</svg>
