<svg width="39" height="39" viewBox="0 0 39 39" fill="none" xmlns="http://www.w3.org/2000/svg">
<circle cx="19.5" cy="19.5" r="19.5" fill="#F9F9F9"/>
<path d="M18.1937 27.5353V25.9311C16.4776 25.7449 14.8898 24.9343 13.7325 23.6536C12.5751 22.3729 11.929 20.7114 11.917 18.9853C11.9175 18.8799 11.9388 18.7757 11.9797 18.6786C12.0205 18.5815 12.0801 18.4934 12.155 18.4193C12.2299 18.3452 12.3187 18.2867 12.4163 18.2469C12.5139 18.2072 12.6183 18.1871 12.7237 18.1878C12.829 18.1871 12.9335 18.2072 13.0311 18.2469C13.1288 18.2866 13.2176 18.3452 13.2926 18.4193C13.3676 18.4933 13.4272 18.5814 13.4682 18.6785C13.5091 18.7756 13.5305 18.8799 13.5312 18.9853C13.5489 20.424 14.1329 21.7977 15.1566 22.8088C16.1802 23.8199 17.5611 24.3869 18.9999 24.3869C20.4387 24.3869 21.8196 23.8199 22.8433 22.8088C23.8669 21.7977 24.4509 20.424 24.4687 18.9853C24.4687 18.7711 24.5537 18.5657 24.7052 18.4143C24.8566 18.2628 25.062 18.1778 25.2762 18.1778C25.4903 18.1778 25.6957 18.2628 25.8471 18.4143C25.9986 18.5657 26.0837 18.7711 26.0837 18.9853C26.0717 20.7113 25.4257 22.3726 24.2685 23.6533C23.1113 24.934 21.5238 25.7447 19.8078 25.9311V27.5353C19.8078 27.7493 19.7228 27.9546 19.5714 28.1059C19.4201 28.2573 19.2148 28.3423 19.0007 28.3423C18.7867 28.3423 18.5814 28.2573 18.43 28.1059C18.2787 27.9546 18.1937 27.7493 18.1937 27.5353ZM18.8545 22.6803C17.8985 22.6858 16.9795 22.3114 16.2995 21.6394C15.6196 20.9674 15.2344 20.0529 15.2287 19.0969V15.2494C15.2313 14.776 15.3272 14.3078 15.5108 13.8714C15.6945 13.4351 15.9623 13.0392 16.2991 12.7064C16.6358 12.3737 17.0348 12.1105 17.4733 11.932C17.9117 11.7535 18.3811 11.6631 18.8545 11.6661H19.1462C19.6196 11.6631 20.089 11.7535 20.5275 11.932C20.966 12.1105 21.3651 12.3736 21.7019 12.7064C22.0387 13.0391 22.3066 13.435 22.4904 13.8714C22.6741 14.3077 22.7701 14.776 22.7728 15.2494V19.0994C22.77 19.5728 22.6739 20.0411 22.4901 20.4774C22.3063 20.9136 22.0384 21.3095 21.7016 21.6422C21.3649 21.975 20.9659 22.2381 20.5274 22.4166C20.0889 22.5952 19.6196 22.6856 19.1462 22.6828L18.8545 22.6803Z" fill="black" fill-opacity="0.6"/>
</svg>
