<svg width="46" height="52" viewBox="0 0 46 52" fill="none" xmlns="http://www.w3.org/2000/svg">
<path d="M46 14.2589C46 14.2589 44.516 21.8072 38.5801 21.8072H38.3352C38.5023 21.2683 38.5851 20.7008 38.5801 20.1298C38.9065 19.4253 39.4556 18.3518 39.9379 17.2615C40.2574 16.5599 40.5134 15.8237 40.7022 15.0641L40.806 15.0976C41.7208 14.6881 42.6878 14.4474 43.6701 14.3847C44.4444 14.2981 45.222 14.2561 46 14.2589Z" fill="#598019"/>
<path d="M43.6701 14.3848C42.6878 14.4475 41.7208 14.6882 40.806 15.0977L40.7021 15.0642L40.806 14.259V12.4139C40.8057 11.9691 40.8581 11.5262 40.9618 11.0972L41.3699 9.3946C41.4506 9.02894 41.5003 8.65543 41.5183 8.27913H41.5554C41.6074 7.80107 42.0081 5.87207 45.258 5.87207C45.258 5.87207 45.258 11.9862 43.6553 14.259L43.6701 14.3848Z" fill="#346C2F"/>
<path d="M31.6869 2.61751C31.4184 3.18287 30.9744 3.61601 30.4403 3.83362C30.0066 4.00585 29.6298 4.32395 29.3605 4.74521C29.0913 5.16648 28.9425 5.67075 28.9341 6.19036V10.9038C28.3522 10.8787 27.8005 10.605 27.3901 10.1381C26.9797 9.67111 26.7413 9.0456 26.723 8.38775C26.7107 8.31877 26.7057 8.24838 26.7081 8.17807V3.82524C26.7084 3.44464 26.8146 3.07378 27.0117 2.7652C27.2088 2.45662 27.4868 2.22596 27.8063 2.10591L28.3034 1.91301C28.7056 1.76006 29.0386 1.43481 29.2309 1.00721C29.3642 0.704643 29.5695 0.45013 29.8239 0.272322C30.0782 0.0945142 30.3713 0.000470534 30.6704 0.000776426H33.3415C32.9835 -0.012119 32.6355 0.136053 32.374 0.412783C32.1125 0.689514 31.9588 1.0722 31.9466 1.47688C31.9478 1.87594 31.8583 2.26866 31.6869 2.61751ZM38.58 1.67817C38.9591 1.72595 39.3124 1.91803 39.5821 2.22286C39.8518 2.52769 40.0217 2.92713 40.064 3.35556C40.0454 3.68435 40.1043 4.01283 40.2346 4.30751C40.365 4.60218 40.5621 4.85251 40.806 5.03296C41.0504 5.21278 41.248 5.46298 41.3784 5.75782C41.5088 6.05265 41.5674 6.38145 41.548 6.71035V7.54905C41.548 7.74195 41.5406 8.00195 41.5183 8.27872C41.5002 8.65502 41.4506 9.02852 41.3699 9.39418L40.9618 11.0967C40.8581 11.5258 40.8057 11.9687 40.806 12.4135V14.2586L40.7021 15.0638C40.5134 15.8234 40.2573 16.5596 39.9379 17.2612C39.4556 18.3515 38.9065 19.425 38.58 20.1295V5.87166C38.5695 4.97702 38.2894 4.11317 37.7861 3.42266C37.6743 3.25723 37.5502 3.1029 37.4151 2.96138C37.2058 2.74019 36.9853 2.53296 36.7547 2.34074C36.5765 2.16849 36.4517 1.93632 36.3986 1.67817H38.58Z" fill="#B9D671"/>
<path d="M38.58 9.58728V18.4523C38.5461 16.6947 38.2397 14.9574 37.6748 13.3195C37.3027 12.1929 36.8614 11.0971 36.354 10.0402C36.3318 9.66276 36.1685 5.29315 37.7861 3.42285C38.2894 4.11336 38.5695 4.97721 38.58 5.87185V9.58728Z" fill="#89B029"/>
<path d="M38.58 18.4518V19.2905C36.8289 16.7325 31.9021 15.097 31.9021 15.097V14.208C31.7951 13.7745 31.6136 13.3692 31.3678 13.0152C31.1221 12.6611 30.817 12.3654 30.47 12.1448C30.47 12.1448 34.7587 11.5242 37.6748 13.319C38.2397 14.9569 38.5461 16.6942 38.58 18.4518ZM28.9341 7.66614V6.19004C28.9425 5.67043 29.0913 5.16615 29.3605 4.74489C29.6297 4.32362 30.0065 4.00553 30.4403 3.8333C30.9744 3.61569 31.4184 3.18254 31.6869 2.61719C33.4849 4.88479 35.0506 7.37474 36.354 10.0397V10.0648C33.438 7.50679 29.3051 7.66614 29.3051 7.66614H28.9341Z" fill="#88AB00"/>
<path d="M36.3987 1.67817C36.4518 1.93632 36.5766 2.16849 36.7548 2.34074C36.9854 2.53296 37.2059 2.74019 37.4152 2.96138C37.5503 3.1029 37.6744 3.25723 37.7862 3.42266C36.1687 5.29295 36.3319 9.66257 36.3542 10.04C35.0507 7.37506 33.485 4.88511 31.687 2.61751C31.8584 2.26866 31.9479 1.87594 31.9467 1.47688C31.9589 1.0722 32.1126 0.689514 32.3741 0.412783C32.6357 0.136053 32.9836 -0.012119 33.3417 0.000776426H35.1744C35.3294 0.000555652 35.4829 0.0348977 35.6261 0.101836C35.7693 0.168773 35.8994 0.266992 36.009 0.390866C36.1186 0.514739 36.2055 0.661834 36.2647 0.823725C36.324 0.985615 36.3543 1.15912 36.3542 1.3343C36.3538 1.45079 36.3688 1.56668 36.3987 1.67817Z" fill="#93BD2C"/>
<path d="M29.3051 7.66602C29.3051 7.66602 33.438 7.50667 36.354 10.0647V10.0395C36.8614 11.0965 37.3027 12.1923 37.6748 13.3188C34.7587 11.524 30.47 12.1447 30.47 12.1447C30.1033 11.9289 29.7576 11.6703 29.4386 11.3731C29.1418 11.1131 28.9341 10.9034 28.9341 10.9034V7.66602H29.3051ZM31.9021 15.0969C31.9021 15.0969 36.8289 16.7323 38.58 19.2904V20.1291C38.5851 20.7 38.5022 21.2676 38.3351 21.8065H34.5436C34.3826 20.2832 33.8709 18.8344 33.0596 17.6046C32.4542 16.9236 32.0499 16.0477 31.9021 15.0969Z" fill="#80A100"/>
<path d="M31.1601 17.6134C31.1601 15.0386 28.6745 12.925 25.4616 12.6231L25.469 12.5812C25.2961 12.3469 25.2086 12.0471 25.2242 11.7425V10.0651C25.2254 9.62063 25.3821 9.19474 25.6601 8.88046C25.9382 8.56617 26.315 8.38902 26.7082 8.3877H26.723C26.7414 9.04555 26.9798 9.67106 27.3901 10.138C27.8005 10.605 28.3523 10.8786 28.9342 10.9038C28.9342 10.9038 29.1419 11.1135 29.4387 11.3735C29.7577 11.6707 30.1034 11.9293 30.4701 12.1451C30.8171 12.3656 31.1222 12.6614 31.3679 13.0154C31.6136 13.3695 31.7952 13.7748 31.9021 14.2083V15.0973C32.0499 16.0481 32.4542 16.924 33.0596 17.605C33.8709 18.8348 34.3826 20.2836 34.5436 21.8068H30.6407C30.9906 20.4443 31.1655 19.0321 31.1601 17.6134Z" fill="#628C1B"/>
<path d="M43.7102 9.91731C43.6412 10.093 43.5209 10.2366 43.3694 10.324C43.2179 10.4114 43.0444 10.4374 42.878 10.3975C42.7117 10.3576 42.5624 10.2543 42.4554 10.1049C42.3484 9.95549 42.29 9.76906 42.29 9.5768V6.92652C41.8937 7.29407 41.632 7.81459 41.5554 8.38753H41.5183C41.5003 8.76383 41.4506 9.13733 41.3699 9.503L40.9618 11.2056C40.8581 11.6346 40.8057 12.0775 40.806 12.5223V14.3674L40.7021 15.1726L40.806 15.2061C41.7208 14.7966 42.6878 14.5559 43.6701 14.4932L43.6553 14.3674C45.258 12.0946 45.258 5.98047 45.258 5.98047L43.7102 9.91731Z" fill="#335E33"/>
<path d="M40.6703 16.894L41.1637 14.9406C41.0418 14.9849 40.9224 15.0373 40.806 15.0975L40.7022 15.0639C40.5134 15.8236 40.2574 16.5598 39.9379 17.2613C39.4556 18.3516 38.9065 19.4252 38.5801 20.1297C38.5851 20.7006 38.5023 21.2682 38.3352 21.8071H38.5801C44.516 21.8071 46 14.2588 46 14.2588L41.8285 17.7947C41.7042 17.8998 41.5539 17.9582 41.3987 17.9617C41.2435 17.9652 41.0913 17.9136 40.9634 17.8141C40.8356 17.7147 40.7385 17.5724 40.6859 17.4074C40.6333 17.2423 40.6278 17.0627 40.6703 16.894Z" fill="#346C2F"/>
<path d="M40.2517 14.9698C40.126 14.9676 40.0028 14.9306 39.8927 14.862C39.7826 14.7935 39.6891 14.6954 39.6203 14.5765C39.4889 14.3404 39.4124 14.0707 39.3977 13.7923C39.3414 13.2022 39.418 12.6056 39.6203 12.0579C39.8674 11.3928 40.3052 10.7286 40.156 10.0299C40.0513 9.71076 39.923 9.40215 39.7724 9.10735C39.417 8.17556 39.7724 7.12215 39.814 6.1132C39.8495 5.7191 39.775 5.32231 39.601 4.97844C39.4845 4.778 39.3183 4.61613 39.2033 4.41484C38.9696 4.00556 38.9673 3.46376 38.6891 3.09054C38.5349 2.92104 38.3727 2.76117 38.2031 2.61164C38.1192 2.5373 38.0548 2.43851 38.0169 2.3259C37.979 2.21329 37.969 2.09113 37.9879 1.97255C38.0288 1.85219 38.102 1.74927 38.1972 1.67817H36.3986C36.4517 1.93632 36.5765 2.16849 36.7547 2.34074C36.9853 2.53296 37.2058 2.74019 37.4151 2.96138C37.5502 3.1029 37.6743 3.25723 37.7861 3.42266C38.2894 4.11317 38.5695 4.97702 38.58 5.87166V20.1295C38.9065 19.425 39.4556 18.3515 39.9379 17.2612C40.2573 16.5596 40.5134 15.8234 40.7021 15.0638L40.7377 14.7862C40.7229 14.7946 40.7088 14.8055 40.694 14.8138C40.5585 14.902 40.4075 14.9552 40.2517 14.9698ZM30.7223 1.48611C30.6279 1.80623 30.4689 2.09711 30.2578 2.33571C30.0467 2.5743 29.7894 2.75406 29.5062 2.86073C29.1235 3.0049 28.7907 3.28149 28.5549 3.65133C28.319 4.02117 28.1921 4.46551 28.1921 4.92141V6.71035C28.1921 6.93279 28.1139 7.14612 27.9748 7.3034C27.8356 7.46069 27.6469 7.54905 27.4501 7.54905C27.2533 7.54905 27.0646 7.46069 26.9254 7.3034C26.7863 7.14612 26.7081 6.93279 26.7081 6.71035V8.17807C26.7057 8.24838 26.7107 8.31877 26.723 8.38775C26.7413 9.0456 26.9797 9.67111 27.3901 10.1381C27.8005 10.605 28.3522 10.8787 28.9341 10.9038V6.19036C28.9425 5.67075 29.0913 5.16648 29.3605 4.74521C29.6298 4.32395 30.0066 4.00585 30.4403 3.83362C30.9744 3.61601 31.4184 3.18287 31.6869 2.61751C31.8583 2.26866 31.9478 1.87594 31.9466 1.47688C31.9588 1.0722 32.1125 0.689514 32.374 0.412783C32.6355 0.136053 32.9835 -0.012119 33.3415 0.000776426H32.5454C32.142 0.000667041 31.7489 0.144077 31.4216 0.410675C31.0944 0.677273 30.8498 1.05353 30.7223 1.48611Z" fill="#9FC73D"/>
<path d="M33.0598 17.605C32.4544 16.924 32.0501 16.0481 31.9023 15.0973V14.2083C31.7953 13.7748 31.6138 13.3695 31.368 13.0154C31.1223 12.6614 30.8172 12.3656 30.4702 12.1451C30.1035 11.9293 29.7578 11.6707 29.4388 11.3735C29.142 11.1135 28.9343 10.9038 28.9343 10.9038C28.3524 10.8786 27.8006 10.605 27.3903 10.138C26.9799 9.67106 26.7415 9.04555 26.7231 8.3877H26.7083C26.4469 8.3895 26.1908 8.47029 25.9663 8.62169V8.98149C25.9665 9.51268 26.1154 10.0302 26.3917 10.4598C26.668 10.8895 27.0575 11.2093 27.5045 11.3735C28.6175 11.7844 29.9968 12.4638 30.4183 13.4199C30.8101 14.7267 31.3284 15.9806 31.9638 17.1588C32.0375 17.2848 32.0795 17.431 32.0854 17.5819C32.0912 17.7328 32.0607 17.8826 31.9971 18.0154C31.9335 18.1482 31.8391 18.2589 31.7241 18.3359C31.6092 18.4128 31.4779 18.4529 31.3443 18.4521H31.1343C31.0863 19.5883 30.9207 20.7142 30.6409 21.8068H34.5438C34.3828 20.2836 33.8711 18.8348 33.0598 17.605Z" fill="#4D6E15"/>
<path d="M38.5802 20.13V16.2863C38.4176 15.2499 38.173 14.2321 37.8493 13.2451C37.4786 12.1247 37.0403 11.0344 36.5375 9.98176C36.5211 9.58925 36.3891 5.44106 37.8909 3.59341C37.8545 3.53722 37.8256 3.47515 37.7862 3.42064C37.7469 3.36612 37.7009 3.31664 37.6594 3.26296L37.6534 3.27219C36.3594 4.76926 36.1694 7.73909 36.1553 9.20261C34.9176 6.80078 33.4678 4.54688 31.828 2.47543C31.8213 2.46704 31.7954 2.4402 31.788 2.43265C31.7805 2.4251 31.7701 2.42343 31.7627 2.41504C31.7411 2.48409 31.7163 2.55183 31.6885 2.618C31.6589 2.68174 31.6188 2.73794 31.5847 2.79916C33.1895 4.83167 34.6096 7.04127 35.8237 9.39468C33.8414 8.09987 31.5879 7.43021 29.2986 7.45561C29.2742 7.4566 29.2503 7.463 29.2281 7.47446C29.2059 7.48591 29.186 7.50219 29.1694 7.52236C29.1528 7.54253 29.1398 7.5662 29.1313 7.59202C29.1228 7.61784 29.1189 7.6453 29.1197 7.67283C29.1206 7.70037 29.1263 7.72744 29.1364 7.7525C29.1466 7.77755 29.161 7.80011 29.1788 7.81888C29.1966 7.83765 29.2176 7.85226 29.2404 7.86189C29.2633 7.87151 29.2876 7.87595 29.3119 7.87496C29.3468 7.86909 33.3929 7.74748 36.2258 10.2183C36.635 11.0843 37 11.9762 37.3188 12.8895C34.4213 11.3899 30.6164 11.9124 30.4472 11.9376C30.4198 11.9425 30.3939 11.9547 30.3715 11.973C30.349 11.9914 30.3308 12.0155 30.3181 12.0433C30.3693 12.076 30.4205 12.1171 30.4709 12.1456C30.5561 12.2 30.6379 12.2608 30.7158 12.3276C31.6062 12.2353 35.0661 11.9963 37.525 13.4699C38.0671 15.0616 38.3613 16.7474 38.3947 18.4526V18.7319C36.4262 16.402 32.1463 14.9578 31.9542 14.8949C31.9364 14.889 31.92 14.9016 31.9022 14.9016V15.0978C31.9042 15.1729 31.9107 15.2477 31.9215 15.3217C32.5151 15.5297 36.7831 17.083 38.3947 19.3676V20.13C38.3989 20.6771 38.3199 21.221 38.1609 21.7378C38.1528 21.7613 38.1609 21.7831 38.1609 21.8074H38.3323C38.5004 21.2687 38.5843 20.7011 38.5802 20.13Z" fill="#B9D671"/>
<path d="M17.0623 8.3877C21.3881 8.3877 24.4822 12.5812 24.4822 12.5812H23.6141C18.0639 12.4554 17.0623 8.3877 17.0623 8.3877Z" fill="#80A100"/>
<path d="M24.4822 10.9036V12.581C24.4822 12.581 21.3881 8.38755 17.0623 8.38755C17.632 8.0879 18.2292 7.86008 18.843 7.7082C19.2392 7.601 19.6452 7.54751 20.0525 7.54885H20.1564C22.6272 7.54885 24.2002 8.91593 24.4822 10.9036Z" fill="#A1C203"/>
<path d="M23.614 12.5811H24.6602C24.9347 12.5811 25.1944 12.5978 25.4615 12.623C28.6744 12.9249 31.1601 15.0384 31.1601 17.6132C31.1655 19.032 30.9906 20.4442 30.6407 21.8067H16.8396C16.4897 20.4442 16.3148 19.032 16.3202 17.6132C16.3321 16.717 16.6208 15.8537 17.1364 15.1726C18.242 13.621 20.3715 12.5811 22.8201 12.5811H23.614Z" fill="#DB3744"/>
<path d="M27.8211 20.13H22.6271C21.7561 20.133 20.9186 19.7503 20.2941 19.0639C19.6696 18.3776 19.3076 17.4421 19.2858 16.4578C19.264 15.4735 19.584 14.5187 20.1773 13.7978C20.7706 13.077 21.5901 12.6473 22.4602 12.601C21.4636 12.5897 20.4758 12.8126 19.5594 13.2554C18.6429 13.6981 17.8179 14.3512 17.1364 15.1733C16.6208 15.8543 16.3321 16.7177 16.3202 17.6139C16.3148 19.0326 16.4897 20.4449 16.8396 21.8074H30.6407C30.9906 20.4449 31.1655 19.0326 31.1601 17.6139C31.1581 17.403 31.1392 17.1927 31.1037 16.9857C30.9735 17.8638 30.5724 18.6614 29.9715 19.237C29.3706 19.8125 28.6087 20.1289 27.8211 20.13Z" fill="#AD313B"/>
<path d="M26.1658 14.0271C25.8616 14.0934 25.5232 14.2855 25.4824 14.6318C25.4379 15.0084 25.7614 15.2936 26.0419 15.5016C26.6534 15.9531 27.2436 16.4405 27.81 16.9617C28.1365 17.262 28.5468 17.5941 28.9401 17.4247C29.0755 17.3618 29.1913 17.2546 29.2725 17.1169C29.3647 16.9519 29.4227 16.7654 29.4419 16.5715C29.4612 16.3776 29.4413 16.1812 29.3838 15.9972C29.2906 15.6517 29.1333 15.3326 28.9223 15.0612C28.563 14.6627 28.1278 14.3624 27.6501 14.1831C27.1723 14.0039 26.6646 13.9505 26.1658 14.0271Z" fill="#FF6666"/>
<path d="M22.9982 4.19463L22.9907 4.29528C22.5009 4.22707 22.0077 4.19345 21.5142 4.19463C21.5142 4.19463 17.8042 3.35594 17.8042 0.839844H20.0302C22.2562 0.839844 22.9982 4.19463 22.9982 4.19463Z" fill="#A1C203"/>
<path d="M26.7083 6.37498V8.17818C26.7058 8.24849 26.7108 8.31888 26.7231 8.38785H26.7083C26.315 8.38918 25.9383 8.56633 25.6602 8.88062C25.3822 9.1949 25.2254 9.62078 25.2243 10.0652V11.7426C25.2087 12.0472 25.2962 12.3471 25.4691 12.5813L25.4617 12.6233C25.1946 12.5981 24.9349 12.5813 24.6603 12.5813H24.4823V10.9039C24.2003 8.91623 22.6273 7.54915 20.1564 7.54915H20.0526C19.6453 7.54781 19.2392 7.60131 18.8431 7.70851C18.2293 7.86038 17.6321 8.0882 17.0623 8.38785V6.71046C17.0618 6.37351 16.9741 6.04409 16.8101 5.76273C17.9008 4.63888 19.6 4.19437 21.5143 4.19437C22.0079 4.19319 22.501 4.2268 22.9909 4.29501C23.7029 4.33836 24.3998 4.54513 25.0389 4.90272C25.678 5.26032 26.246 5.76124 26.7083 6.37498Z" fill="#FF9B00"/>
<path d="M17.0623 15.0972V8.38765C17.0623 8.38765 18.064 12.4553 23.6141 12.5811H22.8202C20.3716 12.5811 18.2421 13.6211 17.1365 15.1727L17.0623 15.0972ZM26.7083 8.17797V7.54895C22.9411 7.54895 19.2141 6.28168 18.6339 4.63867C17.9609 4.8591 17.3386 5.24262 16.8101 5.76253C16.9741 6.04389 17.0618 6.3733 17.0623 6.71025V8.38765C17.6321 8.088 18.2293 7.86018 18.8431 7.7083C19.2392 7.6011 19.6453 7.54761 20.0526 7.54895H20.1564C22.6273 7.54895 24.2003 8.91603 24.4823 10.9037V12.5811H24.6603C24.9349 12.5811 25.1946 12.5979 25.4617 12.6231L25.4691 12.5811C25.2962 12.3469 25.2087 12.047 25.2243 11.7424V10.065C25.2254 9.62058 25.3822 9.1947 25.6602 8.88041C25.9383 8.56613 26.315 8.38898 26.7083 8.38765H26.7231C26.7108 8.31867 26.7058 8.24828 26.7083 8.17797Z" fill="#F1671C"/>
<path d="M21.5142 4.19463C22.0077 4.19345 22.5009 4.22707 22.9907 4.29528L22.9982 4.19463L17.8042 0.839844C17.8042 3.35594 21.5142 4.19463 21.5142 4.19463Z" fill="#88AB00"/>
<path d="M15.0143 19.5169L16.617 21.8065H9.23418L7.34209 20.1039C6.76219 19.572 6.36116 18.8315 6.20588 18.0058C6.0506 17.1801 6.15046 16.3191 6.4888 15.5666C6.5259 15.5079 6.563 15.4324 6.6001 15.3653C6.8677 14.8839 7.22783 14.4768 7.65373 14.1744C7.71309 14.1324 7.77987 14.0905 7.83181 14.0486C8.44309 13.6989 9.13578 13.574 9.81296 13.6913C10.4901 13.8086 11.118 14.1622 11.6086 14.7027C11.6934 14.8004 11.7727 14.9041 11.846 15.0131L15.0143 19.5169Z" fill="#FF9B00"/>
<path d="M6.13259 15.2141L6.48875 15.5663C6.22165 16.1473 6.10101 16.8001 6.14001 17.4534L1.45803 17.0508C1.13525 17.0183 0.83303 16.8579 0.60474 16.5979L0.396982 16.3631C0.184877 16.1226 0.049161 15.8096 0.0110136 15.4728C-0.0271339 15.136 0.0344341 14.7944 0.186108 14.5013C0.337783 14.2083 0.57103 13.9802 0.849446 13.8527C1.12786 13.7252 1.43578 13.7055 1.72515 13.7967L6.13259 15.2141Z" fill="#88AB00"/>
<path d="M7.8318 14.0482C7.77986 14.0901 7.71308 14.1321 7.65372 14.174C7.22782 14.4765 6.86769 14.8835 6.60009 15.3649C6.56299 15.432 6.52589 15.5075 6.48879 15.5662L6.13263 15.214L1.97747 11.2469C1.71119 10.9402 1.56201 10.5276 1.56201 10.0979C1.56201 9.66819 1.71119 9.25562 1.97747 8.9489C2.11064 8.79736 2.26901 8.6771 2.44347 8.59503C2.61793 8.51296 2.80503 8.4707 2.994 8.4707C3.18297 8.4707 3.37007 8.51296 3.54453 8.59503C3.71899 8.6771 3.87736 8.79736 4.01053 8.9489L7.52016 13.6456L7.8318 14.0482Z" fill="#88AB00"/>
<path d="M6.615 7.16279C6.74076 7.01931 6.89043 6.90542 7.05535 6.8277C7.22028 6.74998 7.39719 6.70996 7.57588 6.70996C7.75456 6.70996 7.93148 6.74998 8.0964 6.8277C8.26133 6.90542 8.411 7.01931 8.53676 7.16279L8.74452 7.39762C8.97451 7.65566 9.11642 7.99728 9.14519 8.36212L9.48651 13.4362L9.50135 13.6543C8.92341 13.6102 8.34587 13.7466 7.83187 14.0485L7.52023 13.6459L6.26626 8.66405C6.20023 8.40144 6.19775 8.12361 6.25909 7.85954C6.32044 7.59548 6.44334 7.35486 6.615 7.16279Z" fill="#88AB00"/>
<path d="M11.2153 20.1291C10.9518 20.1293 10.6909 20.0707 10.4474 19.9567C10.204 19.8428 9.98281 19.6756 9.79661 19.4649L8.02918 17.4671C7.78044 17.1873 7.60111 16.8384 7.50914 16.4556C7.41716 16.0728 7.41578 15.6694 7.50511 15.2857C7.59445 14.9021 7.77138 14.5517 8.01819 14.2697C8.26499 13.9877 8.57301 13.7839 8.91141 13.6787C8.53534 13.7306 8.17006 13.8557 7.83181 14.0486C7.77987 14.0905 7.71309 14.1324 7.65373 14.1744C7.22783 14.4769 6.8677 14.8839 6.6001 15.3653C6.563 15.4324 6.5259 15.5079 6.4888 15.5666C6.15046 16.3192 6.0506 17.1801 6.20588 18.0058C6.36116 18.8315 6.76219 19.5721 7.34209 20.104L9.23418 21.8065H16.617L15.4432 20.1291H11.2153Z" fill="#F37924"/>
<path d="M6.48885 15.5667L6.1327 15.2144L5.58733 15.0391L5.42929 15.3947C5.35967 15.5522 5.24796 15.681 5.10999 15.7627C4.97202 15.8445 4.81479 15.8751 4.66058 15.8502L0.812606 15.2287C0.652776 15.202 0.505119 15.1168 0.392366 14.986C0.279612 14.8552 0.208013 14.6862 0.188589 14.5049C0.0355503 14.7968 -0.0270372 15.138 0.010724 15.4746C0.0484853 15.8112 0.18444 16.124 0.397089 16.3634L0.604848 16.5983C0.833137 16.8582 1.13536 17.0186 1.45814 17.0512L6.14012 17.4537C6.10112 16.8005 6.22176 16.1477 6.48885 15.5667Z" fill="#628C1B"/>
<path d="M7.52018 13.6467L7.24119 13.2727L6.94439 13.4966C6.65898 13.7115 6.31651 13.8081 5.97522 13.7699C5.63393 13.7317 5.31489 13.561 5.07234 13.2869L2.76029 10.6735C2.51684 10.3967 2.36685 10.0322 2.33636 9.64334C2.30586 9.25451 2.39678 8.86588 2.59334 8.54492C2.35487 8.62472 2.13875 8.77301 1.96606 8.97531C1.79338 9.17762 1.67001 9.42705 1.60798 9.69929C1.54596 9.97153 1.54739 10.2573 1.61215 10.5287C1.67691 10.8001 1.80278 11.048 1.97749 11.248L6.13265 15.2151L6.48881 15.5673C6.52591 15.5086 6.56301 15.4331 6.60011 15.366C6.86771 14.8846 7.22784 14.4776 7.65374 14.1751C7.7131 14.1332 7.77988 14.0912 7.83182 14.0493L7.52018 13.6467Z" fill="#628C1B"/>
<path d="M9.40484 12.2293L8.95965 12.3559C8.85883 12.3845 8.75383 12.3888 8.65145 12.3685C8.54907 12.3483 8.4516 12.3039 8.36535 12.2384C8.27909 12.1728 8.20599 12.0875 8.15076 11.988C8.09554 11.8885 8.05943 11.777 8.04477 11.6606L7.5647 7.90748C7.51696 7.4951 7.60806 7.0775 7.81995 6.73749C7.59258 6.69004 7.35828 6.70882 7.13911 6.79205C6.91995 6.87528 6.72314 7.02022 6.56725 7.21322C6.41135 7.40621 6.30151 7.6409 6.24806 7.89516C6.19461 8.14941 6.19933 8.41487 6.26176 8.6665L7.51573 13.6484L7.82737 14.0509C8.34137 13.749 8.91891 13.6127 9.49685 13.6567L9.48201 13.4387L9.40484 12.2293Z" fill="#628C1B"/>
<path d="M10.0571 17.7985C10.0202 17.8367 9.99056 17.883 9.9699 17.9344C9.94924 17.9859 9.938 18.0416 9.93686 18.0981C9.93572 18.1546 9.9447 18.2108 9.96326 18.2633C9.98183 18.3158 10.0096 18.3635 10.0449 18.4036C10.0802 18.4436 10.1223 18.4752 10.1686 18.4964C10.215 18.5176 10.2646 18.528 10.3147 18.527C10.3647 18.5259 10.414 18.5134 10.4596 18.4903C10.5052 18.4672 10.5462 18.4338 10.5802 18.3923L12.6103 16.1035L12.1554 15.4561C12.1343 15.4688 12.1142 15.4837 12.0953 15.5005L10.0571 17.7985ZM13.6706 20.1293L14.6574 19.0096L14.193 18.3487L12.6229 20.1293H13.6706Z" fill="#F37924"/>
<path d="M12.3699 20.4167C12.3003 20.4954 12.2612 20.602 12.2612 20.7132C12.2612 20.8244 12.3003 20.931 12.3699 21.0097C12.404 21.0487 12.4447 21.0796 12.4895 21.1006C12.5344 21.1217 12.5825 21.1324 12.631 21.1321C12.68 21.1322 12.7284 21.1214 12.7736 21.1002C12.8188 21.0791 12.8599 21.048 12.8944 21.0088L13.6706 20.1299H12.6229L12.3699 20.4167Z" fill="#E95410"/>
<path d="M8.80083 14.7403C8.71691 14.7748 8.64202 14.8326 8.58303 14.9084C8.52403 14.9842 8.48284 15.0755 8.46322 15.1739C8.46181 15.2527 8.478 15.3306 8.5103 15.4003C8.54259 15.4701 8.58995 15.5296 8.64798 15.5732C8.76464 15.6595 8.89407 15.7214 9.0301 15.756C9.47085 15.8969 9.91678 16.0185 10.3657 16.1099C10.4702 16.1506 10.5822 16.1604 10.6911 16.1384C10.7999 16.1164 10.9019 16.0633 10.9875 15.9841C11.0442 15.9007 11.077 15.7998 11.0817 15.6948C11.0968 15.4808 11.0401 15.2682 10.9229 15.0993C10.6408 14.8079 10.2882 14.6182 9.91028 14.5542C9.53232 14.4903 9.14607 14.5551 8.80083 14.7403Z" fill="#FBCB00"/>
<path d="M11.8684 1.67773H14.8364V5.03252H11.8684V1.67773Z" fill="#30CFFF"/>
<path d="M17.0623 6.71068V8.38808H9.64233V6.71068C9.64351 6.26622 9.80023 5.84034 10.0783 5.52605C10.3563 5.21177 10.7331 5.03462 11.1263 5.03329H15.5783C15.7737 5.03105 15.9676 5.0729 16.1485 5.1564C16.3295 5.23991 16.4938 5.36338 16.632 5.51959C16.7702 5.6758 16.8795 5.8616 16.9533 6.06613C17.0272 6.27065 17.0643 6.48978 17.0623 6.71068Z" fill="#E7F5F5"/>
<path d="M17.1365 15.1728L17.0623 15.0973V8.3877H9.64233V13.6757C10.3842 13.7463 11.0804 14.1101 11.6086 14.7031C11.6935 14.8008 11.7728 14.9044 11.8461 15.0134L15.0144 19.5172L16.6171 21.8068H16.8397C16.4898 20.4443 16.3149 19.0321 16.3203 17.6134C16.3322 16.7171 16.6209 15.8538 17.1365 15.1728Z" fill="#30CFFF"/>
<path d="M11.8683 6.7106C11.8683 6.26572 12.0247 5.83907 12.303 5.5245C12.5813 5.20993 12.9587 5.0332 13.3523 5.0332H11.1263C10.7331 5.03453 10.3563 5.21168 10.0783 5.52597C9.80023 5.84025 9.64351 6.26613 9.64233 6.7106V8.38799H11.8683V6.7106Z" fill="#CEDADA"/>
<path d="M17.1365 15.1724L17.0623 15.0969V12.1614C17.0623 12.94 16.7887 13.6866 16.3016 14.2371C15.8146 14.7876 15.1541 15.0969 14.4653 15.0969C13.7765 15.0969 13.116 14.7876 12.629 14.2371C12.1419 13.6866 11.8683 12.94 11.8683 12.1614V8.38731H9.64233V13.6753C10.3842 13.7459 11.0804 14.1097 11.6086 14.7027C11.6935 14.8004 11.7728 14.904 11.8461 15.013L15.0144 19.5168L16.6171 21.8065H16.8397C16.4898 20.444 16.3149 19.0317 16.3203 17.613C16.3322 16.7167 16.6209 15.8534 17.1365 15.1724ZM11.8683 1.67773V5.03252H14.8363V4.19383H13.3523C13.1555 4.19383 12.9668 4.10546 12.8276 3.94818C12.6885 3.79089 12.6103 3.57756 12.6103 3.35513V1.67773H11.8683Z" fill="#01A3EC"/>
<path d="M13.3523 1.67773H14.0943V4.19383H13.3523V1.67773Z" fill="#01A3EC"/>
<path d="M16.3202 7.54866C16.3202 7.32622 16.242 7.1129 16.1028 6.95561C15.9637 6.79832 15.775 6.70996 15.5782 6.70996C15.3814 6.70996 15.1927 6.79832 15.0535 6.95561C14.9144 7.1129 14.8362 7.32622 14.8362 7.54866V8.38736H16.3202V7.54866Z" fill="white"/>
<path d="M14.8362 8.3877V11.7425C14.8362 11.9649 14.9144 12.1782 15.0535 12.3355C15.1927 12.4928 15.3814 12.5812 15.5782 12.5812C15.775 12.5812 15.9637 12.4928 16.1028 12.3355C16.242 12.1782 16.3202 11.9649 16.3202 11.7425V8.3877H14.8362Z" fill="#99EFFF"/>
<path d="M20.0301 33.5488C22.8987 33.5488 25.2241 32.4223 25.2241 31.0327C25.2241 29.6431 22.8987 28.5166 20.0301 28.5166C17.1616 28.5166 14.8362 29.6431 14.8362 31.0327C14.8362 32.4223 17.1616 33.5488 20.0301 33.5488Z" fill="#88AB00"/>
<path d="M35.612 21.8066V46.9676L32.644 51.9997V21.8066H34.5435H35.612Z" fill="#E5AA5C"/>
<path d="M32.644 21.8066V51.9997H8.90025L7.41626 50.3223V21.8066H32.644ZM25.2241 31.0323C25.2241 29.6401 22.9017 28.5162 20.0301 28.5162C17.1586 28.5162 14.8362 29.6401 14.8362 31.0323C14.8362 32.4245 17.1586 33.5484 20.0301 33.5484C22.9017 33.5484 25.2241 32.4245 25.2241 31.0323Z" fill="#FAD27A"/>
<path d="M38.3352 21.8066H35.6121V46.9676L38.58 50.3223V21.8066H38.3352Z" fill="#D28E43"/>
<path d="M32.644 52L38.58 50.3226L35.612 46.9678L32.644 52Z" fill="#A15C27"/>
<path d="M20.0303 28.0967C16.8575 28.0967 14.4653 29.3589 14.4653 31.0321C14.4653 32.7053 16.8575 33.9676 20.0303 33.9676C23.203 33.9676 25.5952 32.7053 25.5952 31.0321C25.5952 29.3589 23.203 28.0967 20.0303 28.0967ZM20.0303 33.5482C17.1617 33.5482 14.8363 32.4218 14.8363 31.0321C14.8363 29.6424 17.1617 28.516 20.0303 28.516C22.8988 28.516 25.2242 29.6424 25.2242 31.0321C25.2242 32.4218 22.8988 33.5482 20.0303 33.5482Z" fill="#FAAB1B"/>
<path d="M21.5141 48.6449C18.7591 48.6449 16.1169 47.4079 14.1688 45.2059C12.2207 43.0039 11.1262 40.0173 11.1262 36.9032V21.8066H7.41626V50.3223L8.90025 51.9997H32.644V48.6449H21.5141Z" fill="#F5B662"/>
</svg>
