<svg width="25" height="25" viewBox="0 0 25 25" fill="none" xmlns="http://www.w3.org/2000/svg">
<path d="M12.5 25C19.4036 25 25 19.4036 25 12.5C25 5.59644 19.4036 0 12.5 0C5.59644 0 0 5.59644 0 12.5C0 19.4036 5.59644 25 12.5 25Z" fill="#F3EB39"/>
<path d="M5.61678 13.8979L17.2232 17.9918C17.3361 18.0378 17.4602 18.05 17.5806 18.027C17.701 18.004 17.8124 17.9468 17.9014 17.8622C17.9426 17.8262 17.9808 17.787 18.0157 17.7448C18.1125 17.632 18.1684 17.4901 18.1742 17.3422C18.1817 17.2045 18.1376 17.0694 18.0504 16.9633L14.4085 12.7459L18.3391 7.51932C18.4565 7.42584 18.5423 7.29854 18.5846 7.15499C18.6277 7.01945 18.6183 6.87318 18.5585 6.74508C18.5028 6.6197 18.4019 6.52011 18.2756 6.46596C18.1441 6.40907 17.9961 6.40082 17.8582 6.44267L5.81158 12.6938C5.70851 12.7201 5.61256 12.7693 5.53096 12.8378C5.39028 12.9459 5.29764 13.1048 5.27324 13.2798C5.24535 13.4072 5.26369 13.5399 5.32499 13.6542C5.38745 13.7697 5.49175 13.8568 5.61678 13.8979Z" fill="white"/>
</svg>
