<svg width="22" height="22" viewBox="0 0 22 22" fill="none" xmlns="http://www.w3.org/2000/svg">
<path d="M11 22C17.0751 22 22 17.0751 22 11C22 4.92487 17.0751 0 11 0C4.92487 0 0 4.92487 0 11C0 17.0751 4.92487 22 11 22Z" fill="#F3EB39"/>
<path d="M16.9618 7.86695L11.3859 17.1211C11.3351 17.2154 11.258 17.2929 11.164 17.3443C11.0701 17.3957 10.9633 17.4187 10.8565 17.4107C10.8088 17.4091 10.7613 17.4037 10.7145 17.3944C10.5869 17.3715 10.4708 17.306 10.3853 17.2084C10.3042 17.1188 10.2594 17.0022 10.2596 16.8813L10.3902 11.9795L4.85119 10.6084C4.7203 10.6102 4.5921 10.5712 4.48428 10.497C4.38041 10.4286 4.30596 10.3238 4.27564 10.2032C4.24403 10.0868 4.2572 9.96269 4.31254 9.85547C4.36996 9.74343 4.46527 9.65541 4.58151 9.60708L16.1656 7.15515C16.2497 7.11564 16.3416 7.09574 16.4345 7.09695C16.5892 7.09224 16.7395 7.14887 16.8525 7.2545C16.9417 7.32573 17.0026 7.42636 17.0243 7.53837C17.0459 7.65185 17.0236 7.7693 16.9618 7.86695Z" fill="white"/>
</svg>
