<svg width="17" height="16" viewBox="0 0 17 16" fill="none" xmlns="http://www.w3.org/2000/svg">
<path d="M13.5293 9.46138C13.4208 9.55898 13.3395 9.67952 13.2923 9.81265C13.245 9.94579 13.2333 10.0876 13.2582 10.2258L14.0137 14.1031C14.0449 14.264 14.0254 14.4299 13.9575 14.5808C13.8897 14.7317 13.7764 14.8614 13.6313 14.9542C13.4888 15.0506 13.3198 15.1077 13.1439 15.1188C12.9679 15.13 12.7922 15.0948 12.6369 15.0172L8.87268 13.1968C8.74153 13.1324 8.59608 13.0971 8.44773 13.0936H8.21741C8.13701 13.1045 8.05933 13.1285 7.98794 13.1645L4.2229 14.9936C4.03657 15.0805 3.82544 15.1109 3.61947 15.0803C3.37748 15.0376 3.16301 14.9091 3.02172 14.722C2.88044 14.5349 2.82351 14.3041 2.86306 14.0786L3.61947 10.2014C3.64419 10.062 3.63248 9.91924 3.5853 9.78498C3.53812 9.65072 3.45686 9.52893 3.34835 9.42986L0.279371 6.67164C0.153726 6.55883 0.0654557 6.41508 0.0249525 6.25731C-0.0155506 6.09955 -0.00660061 5.93434 0.050749 5.78113C0.1065 5.62804 0.206386 5.49203 0.339576 5.38784C0.472767 5.28365 0.634178 5.21526 0.806308 5.19008L5.0303 4.62189C5.18858 4.60681 5.3402 4.55491 5.47109 4.47102C5.60199 4.38712 5.70791 4.27394 5.77906 4.14196L7.63948 0.60356C7.68334 0.524568 7.74075 0.452707 7.80946 0.390784L7.88595 0.335619C7.92558 0.295115 7.97174 0.260555 8.02279 0.233171L8.11542 0.201649L8.25991 0.146484H8.61771C8.77493 0.161468 8.92565 0.212547 9.05623 0.295103C9.18681 0.377659 9.29315 0.48909 9.36562 0.619322L11.2515 4.14196C11.3186 4.26879 11.4178 4.37868 11.5407 4.46226C11.6635 4.54583 11.8063 4.6006 11.957 4.62189L16.181 5.19008C16.3559 5.21336 16.5206 5.28081 16.657 5.38506C16.7934 5.4893 16.8963 5.62632 16.9544 5.78113C17.0089 5.93593 17.0147 6.10194 16.971 6.25968C16.9274 6.41742 16.8361 6.56033 16.7079 6.67164L13.5293 9.46138Z" fill="#FDD23E"/>
</svg>
