<svg width="21" height="17" viewBox="0 0 21 17" fill="none" xmlns="http://www.w3.org/2000/svg">
<path d="M6.18994 12.8223V16.3575H7.07429V13.7044H13.2641V16.3575H14.1485V12.8223H6.18994Z" fill="#7F051A"/>
<path d="M3.53687 1.76855V16.3591H5.30446V11.939H15.0317V16.3602H16.8004V1.76855H3.53687ZM13.1798 3.97941L13.5061 2.6529H15.475V3.53724H14.1969L13.9407 4.57605L13.9276 4.5717L13.6666 5.74755H9.72727V6.6319H13.4724L13.176 7.95841H6.96329L6.07894 3.97941H13.1798ZM7.51586 9.28493C7.51586 9.11003 7.56773 8.93904 7.6649 8.79361C7.76208 8.64819 7.9002 8.53483 8.06179 8.4679C8.22338 8.40097 8.40119 8.38346 8.57274 8.41758C8.74428 8.45171 8.90186 8.53593 9.02553 8.6596C9.14921 8.78328 9.23344 8.94086 9.26756 9.1124C9.30169 9.28395 9.28417 9.46176 9.21724 9.62336C9.1503 9.78495 9.03695 9.92306 8.89152 10.0202C8.74609 10.1174 8.57512 10.1693 8.40021 10.1693C8.16589 10.1686 7.94137 10.0752 7.77568 9.90946C7.60999 9.74377 7.51658 9.51926 7.51586 9.28493ZM10.6111 9.28493C10.6102 9.25242 10.6117 9.21989 10.6154 9.18758C10.6342 9.02213 10.6993 8.86532 10.8031 8.7352C10.907 8.60507 11.0455 8.5069 11.2027 8.45197C11.3599 8.39703 11.5294 8.38756 11.6917 8.42464C11.8541 8.46172 12.0026 8.54385 12.1204 8.6616C12.2381 8.77934 12.3203 8.92791 12.3573 9.09024C12.3944 9.25257 12.3849 9.42207 12.33 9.57926C12.2751 9.73644 12.1769 9.87494 12.0468 9.97883C11.9166 10.0827 11.7599 10.1478 11.5944 10.1666C11.5621 10.1703 11.5296 10.1717 11.497 10.1709C11.2622 10.1706 11.037 10.0772 10.8709 9.91109C10.7048 9.745 10.6114 9.51982 10.6111 9.28493Z" fill="#7F051A"/>
<path d="M2.21094 0H18.128V0.884343H2.21094V0Z" fill="#7F051A"/>
<path d="M8.40063 13.2639H9.28498V16.3586H8.40063V13.2639Z" fill="#7F051A"/>
<path d="M11.0532 13.2639H11.9376V16.3586H11.0532V13.2639Z" fill="#7F051A"/>
<path d="M2.65303 7.11426V10.1692H0V9.0684L2.65303 7.11426Z" fill="#7F051A"/>
<path d="M0 11.0537H2.65303V13.7067H0V11.0537Z" fill="#7F051A"/>
<path d="M0 14.5906H2.65303V16.3582H0V14.5906Z" fill="#7F051A"/>
<path d="M17.6853 14.5906H20.3383V16.3582H17.6853V14.5906Z" fill="#7F051A"/>
<path d="M17.6853 11.0537H20.3383V13.7067H17.6853V11.0537Z" fill="#7F051A"/>
<path d="M20.3383 9.06842V10.1692H17.6853V7.11426L20.3383 9.06842Z" fill="#7F051A"/>
</svg>
