<svg width="55" height="52" viewBox="0 0 55 52" fill="none" xmlns="http://www.w3.org/2000/svg">
<path d="M52.2519 46.78C51.1485 49.1433 49.4537 50.872 47.4862 51.6409C43.3693 53.1471 38.7533 49.8609 35.1852 42.8092C34.5702 41.5829 33.7467 40.5804 32.7859 39.8886C31.8252 39.1967 30.756 38.8363 29.671 38.8384H25.3295C24.1126 38.8266 22.9185 39.2896 21.8862 40.1734C21.0603 40.8275 20.3525 41.7284 19.8152 42.8092C19.4591 43.5319 19.076 44.2288 18.6674 44.8973C18.6425 44.9316 18.6425 44.9658 18.6175 44.9658C17.5685 46.9737 16.2119 48.6423 14.6429 49.8546C13.074 51.0669 11.3306 51.7934 9.53526 51.9832C8.8537 51.9876 8.17453 51.8725 7.5142 51.6409C1.10171 49.2789 -1.71779 36.1684 1.07676 21.7913C2.26985 14.794 5.00553 8.47103 8.91148 3.68294C10.0532 2.22499 11.4325 1.16287 12.9343 0.585246C14.4361 0.00762057 16.0169 -0.0687482 17.5446 0.362512C18.8644 0.856086 20.0681 1.81153 21.0378 3.13524C22.3762 5.04878 24.1972 6.18774 26.1279 6.31874H28.8725C30.8031 6.18739 32.6241 5.0485 33.9626 3.13524C34.9322 1.81128 36.1359 0.855794 37.4558 0.362512C43.8932 -1.99944 51.1042 7.41415 53.9237 21.7913C55.8699 31.7868 55.0964 41.2004 52.2519 46.78Z" fill="#EA3654"/>
<path d="M52.2519 46.78C51.5589 47.4298 50.7914 47.9157 49.9814 48.2178C45.8644 49.7239 41.2484 46.4377 37.6803 39.3861C37.0653 38.1597 36.2418 37.1573 35.281 36.4655C34.3203 35.7736 33.2512 35.4132 32.1661 35.4153H27.8246C26.7395 35.4132 25.6704 35.7736 24.7096 36.4655C23.7489 37.1573 22.9254 38.1597 22.3103 39.3861C22.1834 39.6626 22.0416 39.9258 21.8862 40.1734C21.0603 40.8275 20.3524 41.7284 19.8152 42.8092C19.459 43.5319 19.0759 44.2288 18.6674 44.8973C18.6425 44.9316 18.6425 44.9658 18.6175 44.9658C16.7892 47.1692 14.4624 48.4389 12.0304 48.5601C11.3488 48.5644 10.6696 48.4494 10.0093 48.2178C3.59683 45.8558 0.77733 32.7453 3.57188 18.3681C4.55454 12.9998 6.37651 7.98894 8.91146 3.68294C10.0531 2.22499 11.4325 1.16287 12.9343 0.585246C14.4361 0.00762057 16.0169 -0.0687482 17.5446 0.362512C18.8644 0.856086 20.0681 1.81153 21.0378 3.13524C22.3761 5.04878 24.1972 6.18774 26.1279 6.31874H28.8725C30.8031 6.18739 32.6241 5.0485 33.9626 3.13524C34.9322 1.81128 36.1359 0.855794 37.4558 0.362512C43.8932 -1.99944 51.1042 7.41415 53.9237 21.7913C55.8699 31.7868 55.0964 41.2004 52.2519 46.78Z" fill="#FF4F64"/>
<path d="M15.0245 31.9919C14.5282 31.9919 14.0522 31.7215 13.7013 31.24C13.3504 30.7585 13.1532 30.1055 13.1532 29.4246V19.1552C13.1532 18.4743 13.3504 17.8213 13.7013 17.3398C14.0522 16.8584 14.5282 16.5879 15.0245 16.5879C15.5209 16.5879 15.9968 16.8584 16.3478 17.3398C16.6987 17.8213 16.8959 18.4743 16.8959 19.1552V29.4246C16.8959 30.1055 16.6987 30.7585 16.3478 31.24C15.9968 31.7215 15.5209 31.9919 15.0245 31.9919Z" fill="white"/>
<path d="M18.7672 26.8573H11.2818C10.7855 26.8573 10.3095 26.5869 9.95857 26.1054C9.60762 25.6239 9.41046 24.9709 9.41046 24.29C9.41046 23.6091 9.60762 22.9561 9.95857 22.4746C10.3095 21.9931 10.7855 21.7227 11.2818 21.7227H18.7672C19.2635 21.7227 19.7395 21.9931 20.0905 22.4746C20.4414 22.9561 20.6386 23.6091 20.6386 24.29C20.6386 24.9709 20.4414 25.6239 20.0905 26.1054C19.7395 26.5869 19.2635 26.8573 18.7672 26.8573Z" fill="white"/>
<path d="M36.857 24.2902C38.5795 24.2902 39.9759 22.3745 39.9759 20.0113C39.9759 17.6482 38.5795 15.7324 36.857 15.7324C35.1344 15.7324 33.738 17.6482 33.738 20.0113C33.738 22.3745 35.1344 24.2902 36.857 24.2902Z" fill="white"/>
<path d="M43.0948 32.8478C44.8173 32.8478 46.2137 30.9321 46.2137 28.5689C46.2137 26.2058 44.8173 24.29 43.0948 24.29C41.3723 24.29 39.9759 26.2058 39.9759 28.5689C39.9759 30.9321 41.3723 32.8478 43.0948 32.8478Z" fill="white"/>
</svg>
