<svg width="21" height="21" viewBox="0 0 21 21" fill="none" xmlns="http://www.w3.org/2000/svg">
<path fill-rule="evenodd" clip-rule="evenodd" d="M10.4946 4.69167e-06C8.56048 -0.00113355 6.66372 0.53279 5.01396 1.54276C3.36419 2.55273 2.02569 3.9994 1.14643 5.72287C0.26717 7.44635 -0.118601 9.37948 0.0317373 11.3086C0.182075 13.2377 0.86266 15.0877 1.99829 16.654L0.690876 20.554L4.72411 19.264C6.09024 20.1658 7.64827 20.7355 9.27371 20.9276C10.8992 21.1196 12.547 20.9286 14.0855 20.3699C15.624 19.8113 17.0106 18.9003 18.1345 17.7099C19.2584 16.5195 20.0884 15.0827 20.5583 13.5142C21.0281 11.9457 21.1248 10.2889 20.8405 8.67637C20.5562 7.06381 19.8989 5.5401 18.9211 4.22699C17.9433 2.91389 16.672 1.84778 15.2089 1.11384C13.7458 0.379888 12.1314 -0.00154309 10.4946 4.69167e-06ZM7.56486 5.33402C7.36494 4.84602 7.20706 4.82801 6.89919 4.81501C6.79923 4.80901 6.6773 4.80301 6.54735 4.80301C6.1544 4.78498 5.76968 4.91969 5.47378 5.17899C5.12314 5.5037 4.84593 5.89967 4.66078 6.34034C4.47563 6.781 4.38683 7.25619 4.40027 7.73401C4.50152 8.88773 4.93401 9.98756 5.6457 10.901C6.93999 12.8826 8.74509 14.4777 10.8704 15.518C13.2824 16.518 13.9981 16.425 14.5469 16.308C14.9786 16.2295 15.3874 16.0558 15.7437 15.7997C16.1 15.5435 16.3949 15.2113 16.607 14.827C16.8053 14.3686 16.8674 13.8628 16.7859 13.37C16.7119 13.241 16.508 13.17 16.2002 13.012C15.8923 12.854 14.393 12.112 14.1091 12.018C13.9779 11.9559 13.8282 11.9448 13.6893 11.9869C13.5503 12.0291 13.432 12.1214 13.3574 12.246C13.1032 12.6226 12.8293 12.9854 12.5368 13.333C12.4396 13.4251 12.3167 13.4855 12.1845 13.5064C12.0523 13.5273 11.9169 13.5076 11.7961 13.45C10.8875 13.1031 10.0526 12.5878 9.33515 11.931C8.66863 11.312 8.09614 10.5987 7.63587 9.814C7.45695 9.506 7.61787 9.32701 7.7588 9.16001C7.91274 8.96801 8.05864 8.833 8.21558 8.654C8.35356 8.51249 8.46801 8.34976 8.55448 8.172C8.59273 8.08067 8.60875 7.98156 8.60127 7.88282C8.5938 7.78408 8.56303 7.68854 8.51147 7.60401C8.4315 7.45101 7.81476 5.94402 7.56187 5.33402H7.56486Z" fill="#27C153"/>
</svg>
