<svg width="19" height="18" viewBox="0 0 19 18" fill="none" xmlns="http://www.w3.org/2000/svg">
<path d="M14.9245 0.274878C14.3543 0.0886453 13.7575 -0.00413795 13.1575 0.000141551C11.835 -0.00611811 10.548 0.427228 9.50002 1.23172C9.40859 1.16656 9.31343 1.10677 9.21502 1.05267C9.12002 0.993931 8.94902 0.852773 8.80652 0.776984L8.44552 0.615931C8.2545 0.51442 8.05406 0.431612 7.84702 0.368668C7.82159 0.34574 7.79274 0.326884 7.76152 0.312773H7.70547C7.14458 0.122423 6.55825 0.0170407 5.96602 0.000141551H5.86152C5.59449 -0.000219204 5.32778 0.0187782 5.06352 0.0569837H4.94952C4.66202 0.0943747 4.37906 0.160713 4.10497 0.254984C0.560516 1.41172 -0.702984 5.24856 0.370516 8.60225C0.975211 10.3103 1.95214 11.8633 3.23097 13.1496C5.07523 14.9252 7.10347 16.5004 9.28152 17.8486L9.52852 18.0011L9.76602 17.858C11.93 16.5057 13.9459 14.9307 15.7805 13.1591C17.065 11.874 18.0421 10.3163 18.639 8.60225C19.6945 5.24856 18.43 1.41172 14.9245 0.274878Z" fill="#F3EB39"/>
</svg>
